SplineFontDB: 3.0
FontName: Chivo-BlackItalic
FullName: Chivo Black Italic
FamilyName: Chivo
Weight: Black
Copyright: Chivo (Goat) is a new Omnibus-Type grotesque. The strength of Chivo Black Italic make it ideal for highlights and headlines. Chivo Black Italic eleganceE^makes it ideal forE^combining the strength ofE^Chivo familyE^and to use in texts for continuous reading.E^ItsE^designE^detail becomesE^an indispensable ally for any designer.
Version: 001.001
ItalicAngle: -8
UnderlinePosition: -34
UnderlineWidth: 62
Ascent: 800
Descent: 200
sfntRevision: 0x00010000
LayerCount: 2
Layer: 0 1 "Back"  1
Layer: 1 1 "Fore"  0
NeedsXUIDChange: 1
XUID: [1021 288 713564382 3492840]
FSType: 0
OS2Version: 2
OS2_WeightWidthSlopeOnly: 0
OS2_UseTypoMetrics: 1
CreationTime: 1323174741
ModificationTime: 1323203662
PfmFamily: 17
TTFWeight: 900
TTFWidth: 5
LineGap: 0
VLineGap: 0
Panose: 2 0 5 3 9 0 0 2 0 4
OS2TypoAscent: 137
OS2TypoAOffset: 1
OS2TypoDescent: -50
OS2TypoDOffset: 1
OS2TypoLinegap: 0
OS2WinAscent: 0
OS2WinAOffset: 1
OS2WinDescent: 0
OS2WinDOffset: 1
HheadAscent: 0
HheadAOffset: 1
HheadDescent: 0
HheadDOffset: 1
OS2SubXSize: 700
OS2SubYSize: 650
OS2SubXOff: 0
OS2SubYOff: 140
OS2SupXSize: 700
OS2SupYSize: 650
OS2SupXOff: 0
OS2SupYOff: 477
OS2StrikeYSize: 50
OS2StrikeYPos: 250
OS2FamilyClass: 2054
OS2CodePages: 00000001.00000000
OS2UnicodeRanges: 00000001.00000000.00000000.00000000
Lookup: 258 0 0 "'kern' Horizontal Kerning in Latin lookup 0"  {"'kern' Horizontal Kerning in Latin lookup 0 subtable"  } ['kern' ('DFLT' <'dflt' > 'latn' <'dflt' > ) ]
MarkAttachClasses: 1
DEI: 91125
TtTable: prep
PUSHW_1
 511
SCANCTRL
PUSHB_1
 4
SCANTYPE
EndTTInstrs

StartChar: .notdef
Encoding: 65536 -1 0
Width: 500
Flags: HMW
HStem: 0 50<80 420 80 500> 650 50<80 420 80 80>
VStem: 0 50<95 605 95 700> 450 50<95 605 605 605>
LayerCount: 2
Fore
SplineSet
500 0 m 1,0,-1
 0 0 l 1,1,-1
 0 700 l 1,2,-1
 500 700 l 1,3,-1
 500 0 l 1,0,-1
50 605 m 1,4,-1
 50 95 l 1,5,-1
 220 350 l 1,6,-1
 50 605 l 1,4,-1
250 305 m 1,7,-1
 80 50 l 1,8,-1
 420 50 l 1,9,-1
 250 305 l 1,7,-1
420 650 m 1,10,-1
 80 650 l 1,11,-1
 250 395 l 1,12,-1
 420 650 l 1,10,-1
450 605 m 1,13,-1
 280 350 l 1,14,-1
 450 95 l 1,15,-1
 450 605 l 1,13,-1
EndSplineSet
EndChar

StartChar: exclam
Encoding: 33 33 4
Width: 315
Flags: HMW
HStem: 0 183<51 216 25 242> 666 20G<88 336 336 336>
LayerCount: 2
Fore
SplineSet
216 0 m 1,0,-1
 25 0 l 1,1,-1
 51 183 l 1,2,-1
 242 183 l 1,3,-1
 216 0 l 1,0,-1
215 231 m 1,4,-1
 88 231 l 1,5,-1
 88 686 l 1,6,-1
 336 686 l 1,7,-1
 215 231 l 1,4,-1
EndSplineSet
EndChar

StartChar: quotedbl
Encoding: 34 34 5
Width: 433
Flags: HMW
HStem: 396 21G<98 98 98 159 301 361 301 301> 666 20G<92 247 247 247 295 450 450 450>
LayerCount: 2
Fore
SplineSet
98 396 m 1,0,-1
 71 539 l 1,1,-1
 92 686 l 1,2,-1
 247 686 l 1,3,-1
 226 539 l 1,4,-1
 159 396 l 1,5,-1
 98 396 l 1,0,-1
301 396 m 1,6,-1
 274 539 l 1,7,-1
 295 686 l 1,8,-1
 450 686 l 1,9,-1
 429 539 l 1,10,-1
 361 396 l 1,11,-1
 301 396 l 1,6,-1
EndSplineSet
EndChar

StartChar: numbersign
Encoding: 35 35 6
Width: 661
Flags: HMW
HStem: 0 21G<48 165 48 48 276 392 276 276> 166 107<24 106 9 146 24 223 24 335 493 582> 394 108<100 191 85 227 570 646> 676 20G<297 416 416 416 525 642 642 642>
LayerCount: 2
Fore
SplineSet
106 166 m 1,0,-1
 9 166 l 1,1,-1
 24 273 l 1,2,-1
 146 273 l 1,3,-1
 191 394 l 1,4,-1
 85 394 l 1,5,-1
 100 502 l 1,6,-1
 227 502 l 1,7,-1
 297 696 l 1,8,-1
 416 696 l 1,9,-1
 345 502 l 1,10,-1
 455 502 l 1,11,-1
 525 696 l 1,12,-1
 642 696 l 1,13,-1
 570 502 l 1,14,-1
 661 502 l 1,15,-1
 646 394 l 1,16,-1
 536 394 l 1,17,-1
 493 273 l 1,18,-1
 597 273 l 1,19,-1
 582 166 l 1,20,-1
 451 166 l 1,21,-1
 392 0 l 1,22,-1
 276 0 l 1,23,-1
 335 166 l 1,24,-1
 223 166 l 1,25,-1
 165 0 l 1,26,-1
 48 0 l 1,27,-1
 106 166 l 1,0,-1
306 393 m 1,28,-1
 262 272 l 1,29,-1
 375 272 l 1,30,-1
 420 393 l 1,31,-1
 306 393 l 1,28,-1
EndSplineSet
EndChar

StartChar: dollar
Encoding: 36 36 7
Width: 608
Flags: HMW
HStem: -66 235<239.5 304 176 307.5> 21 148<301 307.5 239.5 365.5> 469 205<393 580 393 407> 534 140<313 393> 534 223<313 365>
VStem: 16 177<142 224.5> 63 130<208.5 515.5> 63 197<450 502.5 450 515.5> 360 202<202.5 252> 408 154<157.5 496.5> 408 175<482.5 561.5>
LayerCount: 2
Fore
SplineSet
407 475 m 2,0,1
 407 477 407 477 407.5 491 c 128,-1,2
 408 505 408 505 391.5 519.5 c 128,-1,3
 375 534 375 534 341 534 c 0,4,5
 260 534 260 534 260 490 c 0,6,7
 260 455.074626866 260 455.074626866 338.5 437.5 c 0,8,9
 412.842105263 420.85624509 412.842105263 420.85624509 483.5 385 c 0,10,11
 517 368 517 368 539.5 333.5 c 128,-1,12
 562 299 562 299 562 252 c 0,13,14
 562 21 562 21 301 21 c 1,15,-1
 304 -66 l 1,16,-1
 176 -66 l 1,17,-1
 203 22 l 1,18,19
 120 31 120 31 68 75 c 128,-1,20
 16 119 16 119 16 194 c 0,21,22
 16 232 16 232 22 246 c 1,23,-1
 197 246 l 1,24,25
 193 230 193 230 193 223 c 0,26,27
 193 169 193 169 269 169 c 0,28,29
 360 169 360 169 360 213 c 0,30,31
 360 234 360 234 329.5 247.5 c 128,-1,32
 299 261 299 261 255.5 273 c 128,-1,33
 212 285 212 285 168 303 c 128,-1,34
 124 321 124 321 93.5 361 c 128,-1,35
 63 401 63 401 63 461 c 0,36,37
 63 544 63 544 126 603.5 c 128,-1,38
 189 663 189 663 294 671 c 1,39,-1
 291 757 l 1,40,-1
 419 757 l 1,41,-1
 393 674 l 1,42,43
 478 668 478 668 530.5 626 c 128,-1,44
 583 584 583 584 583 511 c 0,45,46
 583 496 583 496 580 469 c 1,47,-1
 407 469 l 1,48,-1
 407 475 l 2,0,1
EndSplineSet
EndChar

StartChar: percent
Encoding: 37 37 8
Width: 715
Flags: HMW
HStem: -1 21G<469.5 501 501 523> 0 71 276 71<550 560.5> 337 72<126.5 189.5 169.5 180> 614 71<207 217.5> 666 20G<576 669 669 669>
VStem: 239 97<577.5 580 569.5 590.5> 582 97<239.5 242 231.5 252.5>
LayerCount: 2
Fore
SplineSet
51 442 m 2,0,-1
 51 451 l 2,1,2
 51 457 51 457 52 460 c 2,3,-1
 66 562 l 1,4,5
 72 614 72 614 111 649.5 c 128,-1,6
 150 685 150 685 207 685 c 2,7,-1
 229 685 l 2,8,9
 276 685 276 685 306 655 c 128,-1,10
 336 625 336 625 336 580 c 2,11,-1
 336 571 l 2,12,13
 336 565 336 565 335 562 c 2,14,-1
 321 460 l 1,15,16
 312 407 312 407 275 372 c 128,-1,17
 238 337 238 337 180 337 c 2,18,-1
 158 337 l 2,19,20
 111 337 111 337 81 367 c 128,-1,21
 51 397 51 397 51 442 c 2,0,-1
155 0 m 1,22,-1
 60 0 l 1,23,-1
 576 686 l 1,24,-1
 669 686 l 1,25,-1
 155 0 l 1,22,-1
165 575 m 0,26,27
 146 447 146 447 146 437.5 c 128,-1,28
 146 428 146 428 155.5 418.5 c 128,-1,29
 165 409 165 409 180 409 c 128,-1,30
 195 409 195 409 207 420 c 128,-1,31
 219 431 219 431 221 448 c 2,32,-1
 230 510 l 1,33,34
 231.5 528 231.5 528 235.25 553 c 128,-1,35
 239 578 239 578 239 586.5 c 128,-1,36
 239 595 239 595 230.5 604.5 c 128,-1,37
 222 614 222 614 207.5 614 c 128,-1,38
 193 614 193 614 180 603 c 128,-1,39
 167 592 167 592 165 575 c 0,26,27
394 104 m 2,40,-1
 394 113 l 2,41,42
 394 119 394 119 395 122 c 2,43,-1
 409 224 l 1,44,45
 415 276 415 276 454 311.5 c 128,-1,46
 493 347 493 347 550 347 c 2,47,-1
 572 347 l 2,48,49
 619 347 619 347 649 317 c 128,-1,50
 679 287 679 287 679 242 c 2,51,-1
 679 233 l 2,52,53
 679 227 679 227 678 224 c 2,54,-1
 664 122 l 1,55,56
 655 69 655 69 618 34 c 128,-1,57
 581 -1 581 -1 523 -1 c 2,58,-1
 501 -1 l 2,59,60
 454 -1 454 -1 424 29 c 128,-1,61
 394 59 394 59 394 104 c 2,40,-1
508 237 m 0,62,63
 489 109 489 109 489 99.5 c 128,-1,64
 489 90 489 90 498.5 80.5 c 128,-1,65
 508 71 508 71 523 71 c 128,-1,66
 538 71 538 71 550 82 c 128,-1,67
 562 93 562 93 564 110 c 2,68,-1
 573 172 l 1,69,70
 574.5 190 574.5 190 578.25 215 c 128,-1,71
 582 240 582 240 582 248.5 c 128,-1,72
 582 257 582 257 573.5 266.5 c 128,-1,73
 565 276 565 276 550.5 276 c 128,-1,74
 536 276 536 276 523 265 c 128,-1,75
 510 254 510 254 508 237 c 0,62,63
EndSplineSet
EndChar

StartChar: ampersand
Encoding: 38 38 9
Width: 709
Flags: HMW
HStem: 0 138<194 399 290 399 290 578> 279 142<265 446 325 419 637 697> 548 148<325.5 357.5>
VStem: 12 202<177.5 213 177.5 218> 77 192<463 498.5 463 551.5>
LayerCount: 2
Fore
SplineSet
12 166 m 0,0,1
 12 322 12 322 160 358 c 1,2,3
 77 386 77 386 77 484.5 c 128,-1,4
 77 583 77 583 155 639.5 c 128,-1,5
 233 696 233 696 351 696 c 0,6,7
 377 696 377 696 401 693 c 1,8,-1
 380 543 l 1,9,10
 365 548 365 548 352 548 c 0,11,12
 312 548 312 548 290.5 529 c 128,-1,13
 269 510 269 510 269 482 c 0,14,15
 269 421 269 421 325 421 c 2,16,-1
 446 421 l 1,17,-1
 516 540 l 1,18,-1
 653 540 l 1,19,-1
 637 421 l 1,20,-1
 717 421 l 1,21,-1
 697 279 l 1,22,-1
 617 279 l 1,23,-1
 578 0 l 1,24,-1
 259 0 l 2,25,26
 189 0 189 0 136.5 14 c 128,-1,27
 84 28 84 28 48 66.5 c 128,-1,28
 12 105 12 105 12 166 c 0,0,1
233 254 m 128,-1,30
 214 229 214 229 214 198.5 c 128,-1,31
 214 168 214 168 235.5 153 c 128,-1,32
 257 138 257 138 290 138 c 2,33,-1
 399 138 l 1,34,-1
 419 279 l 1,35,-1
 305 279 l 2,36,29
 252 279 252 279 233 254 c 128,-1,30
EndSplineSet
EndChar

StartChar: quotesingle
Encoding: 39 39 10
Width: 230
Flags: HMW
HStem: 396 21G<98 98 98 159> 666 20G<92 247 247 247>
LayerCount: 2
Fore
SplineSet
98 396 m 1,0,-1
 71 539 l 1,1,-1
 92 686 l 1,2,-1
 247 686 l 1,3,-1
 226 539 l 1,4,-1
 159 396 l 1,5,-1
 98 396 l 1,0,-1
EndSplineSet
EndChar

StartChar: parenleft
Encoding: 40 40 11
Width: 311
Flags: HMW
HStem: -158 21G<125 233 125 125> 666 20G<244 352 352 352>
VStem: 19 156<112 249 102.5 266.5>
LayerCount: 2
Fore
SplineSet
19 174 m 0,0,1
 19 312 19 312 78.5 447 c 128,-1,2
 138 582 138 582 244 686 c 1,3,-1
 352 686 l 1,4,5
 268 565 268 565 221.5 428.5 c 128,-1,6
 175 292 175 292 175 158 c 0,7,8
 175 -27 175 -27 233 -158 c 1,9,-1
 125 -158 l 1,10,11
 19 -15 19 -15 19 174 c 0,0,1
EndSplineSet
EndChar

StartChar: parenright
Encoding: 41 41 12
Width: 312
Flags: HMW
HStem: -158 21G<-48 60 -48 -48> 666 20G<71 179 179 179>
VStem: 129 156<336.5 413.5 336.5 423.5>
LayerCount: 2
Fore
SplineSet
60 -158 m 1,0,-1
 -48 -158 l 1,1,2
 35 -41 35 -41 82 97 c 128,-1,3
 129 235 129 235 129 368 c 0,4,5
 129 548 129 548 71 686 c 1,6,-1
 179 686 l 1,7,8
 285 544 285 544 285 351 c 0,9,10
 285 307.5 285 307.5 279 264 c 0,11,12
 243 22 243 22 60 -158 c 1,0,-1
EndSplineSet
EndChar

StartChar: asterisk
Encoding: 42 42 13
Width: 506
Flags: HMW
HStem: 265 21G<169 169 326 326> 666 20G<247 367 367 367>
LayerCount: 2
Fore
SplineSet
195 448 m 1,0,-1
 53 483 l 1,1,-1
 107 593 l 1,2,-1
 239 533 l 1,3,-1
 247 686 l 1,4,-1
 367 686 l 1,5,-1
 331 533 l 1,6,-1
 487 593 l 1,7,-1
 507 483 l 1,8,-1
 352 448 l 1,9,-1
 436 335 l 1,10,-1
 326 265 l 1,11,-1
 265 396 l 1,12,-1
 169 265 l 1,13,-1
 79 335 l 1,14,-1
 195 448 l 1,0,-1
EndSplineSet
EndChar

StartChar: plus
Encoding: 43 43 14
Width: 615
Flags: HMW
HStem: 0 21G<203 331 203 203> 192 128<55 230 38 247 55 358 375 550> 492 20G<274 402 402 402>
LayerCount: 2
Fore
SplineSet
230 192 m 1,0,-1
 38 192 l 1,1,-1
 55 320 l 1,2,-1
 247 320 l 1,3,-1
 274 512 l 1,4,-1
 402 512 l 1,5,-1
 375 320 l 1,6,-1
 567 320 l 1,7,-1
 550 192 l 1,8,-1
 358 192 l 1,9,-1
 331 0 l 1,10,-1
 203 0 l 1,11,-1
 230 192 l 1,0,-1
EndSplineSet
EndChar

StartChar: comma
Encoding: 44 44 15
Width: 286
Flags: HMW
HStem: -165 21G<31 125 31 31> 0 183<33 91 7 224>
LayerCount: 2
Fore
SplineSet
91 0 m 1,0,-1
 7 0 l 1,1,-1
 33 183 l 1,2,-1
 224 183 l 1,3,-1
 201 22 l 1,4,-1
 125 -165 l 1,5,-1
 31 -165 l 1,6,-1
 91 0 l 1,0,-1
EndSplineSet
EndChar

StartChar: hyphen
Encoding: 45 45 16
Width: 351
Flags: HMW
HStem: 196 158<57 288 35 311>
LayerCount: 2
Fore
SplineSet
288 196 m 1,0,-1
 35 196 l 1,1,-1
 57 354 l 1,2,-1
 311 354 l 1,3,-1
 288 196 l 1,0,-1
EndSplineSet
EndChar

StartChar: period
Encoding: 46 46 17
Width: 287
Flags: HMW
HStem: 0 183<33 199 8 224>
LayerCount: 2
Fore
SplineSet
199 0 m 1,0,-1
 8 0 l 1,1,-1
 33 183 l 1,2,-1
 224 183 l 1,3,-1
 199 0 l 1,0,-1
EndSplineSet
EndChar

StartChar: slash
Encoding: 47 47 18
Width: 541
Flags: HMW
HStem: -171 21G<-44 88 -44 -44> 666 20G<446 577 577 577>
LayerCount: 2
Fore
SplineSet
88 -171 m 1,0,-1
 -44 -171 l 1,1,-1
 446 686 l 1,2,-1
 577 686 l 1,3,-1
 88 -171 l 1,0,-1
EndSplineSet
EndChar

StartChar: zero
Encoding: 48 48 19
Width: 615
Flags: HMW
HStem: -10 145<180.5 311.5 266.5 288> 552 144<342 363.5>
VStem: 25 197<182.5 204.5 182.5 210.5> 409 195<484 503.5>
LayerCount: 2
Fore
SplineSet
25 205 m 0,0,1
 25 222 25 222 28 240 c 2,2,-1
 57 446 l 2,3,4
 72 558 72 558 153.5 627 c 128,-1,5
 235 696 235 696 342 696 c 2,6,-1
 387 696 l 2,7,8
 481 696 481 696 542.5 634.5 c 128,-1,9
 604 573 604 573 604 480 c 0,10,11
 604 472 604 472 602 446 c 1,12,-1
 573 240 l 2,13,14
 558 132 558 132 481 61 c 128,-1,15
 404 -10 404 -10 288 -10 c 2,16,-1
 243 -10 l 2,17,18
 150 -10 150 -10 87.5 52 c 128,-1,19
 25 114 25 114 25 205 c 0,0,1
222 202 m 0,20,21
 222 173 222 173 239.5 154 c 128,-1,22
 257 135 257 135 290 135 c 0,23,24
 323 135 323 135 344.5 157 c 128,-1,25
 366 179 366 179 372 215 c 2,26,-1
 408 472 l 1,27,-1
 409 484 l 1,28,29
 409 513 409 513 391 532.5 c 128,-1,30
 373 552 373 552 345 552 c 0,31,32
 270 552 270 552 259 472 c 2,33,-1
 223 215 l 2,34,35
 222 212 222 212 222 202 c 0,20,21
EndSplineSet
EndChar

StartChar: one
Encoding: 49 49 20
Width: 615
Flags: HMW
HStem: 0 153<54 206 402 527 33 206> 473 115<115 115 115 251 99 115> 676 20G<411 478 478 478>
LayerCount: 2
Fore
SplineSet
527 0 m 1,0,-1
 33 0 l 1,1,-1
 54 153 l 1,2,-1
 206 153 l 1,3,-1
 251 473 l 1,4,-1
 99 473 l 1,5,-1
 115 588 l 1,6,7
 179 592 179 592 263 623.5 c 128,-1,8
 347 655 347 655 411 696 c 1,9,-1
 478 696 l 1,10,-1
 402 153 l 1,11,-1
 548 153 l 1,12,-1
 527 0 l 1,0,-1
EndSplineSet
EndChar

StartChar: two
Encoding: 50 50 21
Width: 615
Flags: HMW
HStem: 0 168<290 530> 540 156<299 381 319 381>
VStem: 393 204<447.5 496.5>
LayerCount: 2
Fore
SplineSet
530 0 m 1,0,-1
 -4 0 l 1,1,-1
 1 36 l 2,2,3
 8 93 8 93 31.5 133.5 c 128,-1,4
 55 174 55 174 104 209 c 0,5,6
 112 214 112 214 131.5 229 c 128,-1,7
 151 244 151 244 162 251 c 0,8,9
 318 361 318 361 355.5 397 c 128,-1,10
 393 433 393 433 393 479 c 0,11,12
 393 505 393 505 376 522.5 c 128,-1,13
 359 540 359 540 332 540 c 2,14,-1
 319 540 l 2,15,16
 289 540 289 540 267 520 c 128,-1,17
 245 500 245 500 240 470 c 2,18,-1
 236 442 l 1,19,-1
 60 442 l 1,20,21
 68 558 68 558 147.5 627 c 128,-1,22
 227 696 227 696 350 696 c 2,23,-1
 381 696 l 2,24,25
 481 696 481 696 539 644.5 c 128,-1,26
 597 593 597 593 597 508 c 0,27,28
 597 430.846153846 597 430.846153846 559.5 377 c 0,29,30
 540 349 540 349 520.5 327.5 c 128,-1,31
 501 306 501 306 467.5 282 c 128,-1,32
 434 258 434 258 411.5 243 c 128,-1,33
 389 228 389 228 349.5 204.5 c 128,-1,34
 310 181 310 181 290 168 c 1,35,-1
 553 168 l 1,36,-1
 530 0 l 1,0,-1
EndSplineSet
EndChar

StartChar: three
Encoding: 51 51 22
Width: 615
Flags: HMW
HStem: -10 149<162.5 284 257 282> -10 219<162.5 187 12 240 12 282> 289 123<228 315 211 316> 484 212<71 381> 547 149<297.5 381 317 381>
VStem: 376 196<203 250.5> 396 176 396 200<493 507.5>
LayerCount: 2
Fore
SplineSet
7 161 m 0,0,1
 7 170 7 170 9 192 c 1,2,-1
 12 209 l 1,3,-1
 187 209 l 1,4,5
 186 206 186 206 186 196 c 0,6,7
 186 139 186 139 257 139 c 2,8,-1
 284 139 l 2,9,10
 327 139 327 139 351.5 164 c 128,-1,11
 376 189 376 189 376 224 c 0,12,13
 376 259 376 259 359 274 c 128,-1,14
 342 289 342 289 315 289 c 2,15,-1
 211 289 l 1,16,-1
 228 412 l 1,17,-1
 316 412 l 2,18,19
 348 412 348 412 372 433 c 128,-1,20
 396 454 396 454 396 485 c 0,21,22
 396 516 396 516 379 531.5 c 128,-1,23
 362 547 362 547 335 547 c 2,24,-1
 317 547 l 2,25,26
 288 547 288 547 265 528.5 c 128,-1,27
 242 510 242 510 238 484 c 1,28,-1
 71 484 l 1,29,30
 71 576 71 576 152.5 636 c 128,-1,31
 234 696 234 696 351 696 c 2,32,-1
 381 696 l 2,33,34
 478 696 478 696 537 649 c 128,-1,35
 596 602 596 602 596 538.5 c 0,36,37
 596 475 596 475 562.5 427 c 128,-1,38
 529 379 529 379 479 359 c 1,39,40
 572 323 572 323 572 218 c 0,41,42
 572 113 572 113 489 51.5 c 128,-1,43
 406 -10 406 -10 282 -10 c 2,44,-1
 240 -10 l 2,45,46
 128 -10 128 -10 67.5 37.5 c 128,-1,47
 7 85 7 85 7 161 c 0,0,1
EndSplineSet
EndChar

StartChar: four
Encoding: 52 52 23
Width: 615
Flags: HMW
HStem: 0 21G<261 449 261 261> 151 147<152 282 490 568> 676 20G<234 411 411 411>
LayerCount: 2
Fore
SplineSet
282 151 m 1,0,-1
 3 151 l 1,1,-1
 23 300 l 1,2,3
 73 374 73 374 142.5 501 c 128,-1,4
 212 628 212 628 234 696 c 1,5,-1
 411 696 l 1,6,7
 391 622 391 622 305.5 494 c 128,-1,8
 220 366 220 366 152 298 c 1,9,-1
 302 298 l 1,10,-1
 317 400 l 1,11,12
 348 437 348 437 393 512 c 128,-1,13
 438 587 438 587 454 630 c 1,14,-1
 537 630 l 1,15,-1
 490 298 l 1,16,-1
 588 298 l 1,17,-1
 568 151 l 1,18,-1
 470 151 l 1,19,-1
 449 0 l 1,20,-1
 261 0 l 1,21,-1
 282 151 l 1,0,-1
EndSplineSet
EndChar

StartChar: five
Encoding: 53 53 24
Width: 615
Flags: HMW
HStem: -10 154<173 281 264 277> -10 234<173 195 19 247 19 277> 315 144<269.5 440 291 440> 516 170<269 560 269 269>
VStem: 375 198<212.5 265.5>
LayerCount: 2
Fore
SplineSet
246 414 m 1,0,1
 307.875 459 307.875 459 388.9375 459 c 128,-1,2
 470 459 470 459 521.5 409 c 128,-1,3
 573 359 573 359 573 269 c 0,4,5
 573 148 573 148 487.5 69 c 128,-1,6
 402 -10 402 -10 277 -10 c 2,7,-1
 247 -10 l 2,8,9
 139 -10 139 -10 78 46.5 c 128,-1,10
 17 103 17 103 17 191 c 2,11,-1
 17 208 l 2,12,13
 17 214 17 214 19 224 c 1,14,-1
 195 224 l 1,15,16
 194 221 194 221 194 213 c 0,17,18
 194 184 194 184 214 164 c 128,-1,19
 234 144 234 144 264 144 c 2,20,-1
 281 144 l 2,21,22
 317 144 317 144 346 171.5 c 128,-1,23
 375 199 375 199 375 246 c 0,24,25
 375 275 375 275 355 295 c 128,-1,26
 335 315 335 315 305 315 c 2,27,-1
 291 315 l 2,28,29
 256.285714286 315 256.285714286 315 229.5 292.5 c 0,30,31
 217 282 217 282 215 281 c 1,32,-1
 61 303 l 1,33,-1
 143 686 l 1,34,-1
 583 686 l 1,35,-1
 560 516 l 1,36,-1
 269 516 l 1,37,-1
 246 414 l 1,0,1
EndSplineSet
EndChar

StartChar: six
Encoding: 54 54 25
Width: 615
Flags: HMW
HStem: -10 140<189 293 255 293> 321 116<292.5 436.5 313 436.5> 466 230<413 440.5 354 591 413 413> 546 150<326.5 382 347 382>
VStem: 385 192<256 276.5> 414 163 414 180<487 568>
LayerCount: 2
Fore
SplineSet
28 205 m 0,0,1
 28 235 28 235 59 446 c 1,2,3
 73 553 73 553 159 624.5 c 128,-1,4
 245 696 245 696 354 696 c 2,5,-1
 382 696 l 2,6,7
 474 696 474 696 534 646 c 128,-1,8
 594 596 594 596 594 505 c 0,9,10
 594 485.5 594 485.5 591 466 c 1,11,-1
 413 466 l 1,12,-1
 414 487 l 1,13,14
 413 513 413 513 396 529.5 c 128,-1,15
 379 546 379 546 353 546 c 2,16,-1
 347 546 l 2,17,18
 316 546 316 546 290 524 c 128,-1,19
 264 502 264 502 259 471 c 2,20,-1
 247 385 l 1,21,22
 305 437 305 437 386.5 437 c 0,23,24
 468 437 468 437 522.5 392.5 c 128,-1,25
 577 348 577 348 577 265 c 0,26,27
 577 141 577 141 490.5 65.5 c 128,-1,28
 404 -10 404 -10 283 -10 c 2,29,-1
 255 -10 l 2,30,31
 156 -10 156 -10 92 50.5 c 128,-1,32
 28 111 28 111 28 205 c 0,0,1
221 199 m 2,33,-1
 221 194 l 2,34,35
 221 167 221 167 239.5 148.5 c 128,-1,36
 258 130 258 130 287 130 c 2,37,-1
 293 130 l 2,38,39
 324 130 324 130 350 152.5 c 128,-1,40
 376 175 376 175 378 205 c 1,41,-1
 385 256 l 1,42,43
 385 286 385 286 366.5 303.5 c 128,-1,44
 348 321 348 321 319 321 c 2,45,-1
 313 321 l 2,46,47
 283 321 283 321 258 299 c 128,-1,48
 233 277 233 277 228 246 c 2,49,-1
 222 205 l 2,50,51
 221 203 221 203 221 199 c 2,33,-1
EndSplineSet
EndChar

StartChar: seven
Encoding: 55 55 26
Width: 615
Flags: HMW
HStem: 0 21G<87 309 87 87> 514 172<116 384 92 625>
LayerCount: 2
Fore
SplineSet
309 0 m 1,0,-1
 87 0 l 1,1,2
 105 130 105 130 184 255.5 c 128,-1,3
 263 381 263 381 384 514 c 1,4,-1
 92 514 l 1,5,-1
 116 686 l 1,6,-1
 625 686 l 1,7,-1
 612 595 l 1,8,9
 492 456 492 456 416 327.5 c 128,-1,10
 340 199 340 199 318 59 c 2,11,-1
 309 0 l 1,0,-1
EndSplineSet
EndChar

StartChar: eight
Encoding: 56 56 27
Width: 615
Flags: HMW
HStem: -10 132<264.5 303 264.5 379.5> 295 108<305 325.5> 566 130<325.5 363.5>
VStem: 21 200<164.5 184.5 164.5 210.5> 87 174<444.5 464.5 444.5 538> 368 196<225 234 234 249.5 168 251.5> 406 178<496 505 505 522.5>
LayerCount: 2
Fore
SplineSet
86.5 34.5 m 128,-1,1
 21 79 21 79 21 154.5 c 128,-1,2
 21 230 21 230 53 272 c 128,-1,3
 85 314 85 314 146 347 c 1,4,-1
 147 351 l 1,5,6
 117 376 117 376 102 400.5 c 128,-1,7
 87 425 87 425 87 464 c 0,8,9
 87 571 87 571 168 633.5 c 128,-1,10
 249 696 249 696 354.5 696 c 128,-1,11
 460 696 460 696 522 650.5 c 128,-1,12
 584 605 584 605 584 524 c 0,13,14
 584 479 584 479 568.5 444 c 128,-1,15
 553 409 553 409 534 390.5 c 128,-1,16
 515 372 515 372 484 351 c 1,17,-1
 483 347 l 1,18,19
 524 320 524 320 544 291 c 128,-1,20
 564 262 564 262 564 219.5 c 128,-1,21
 564 177 564 177 549 139.5 c 128,-1,22
 534 102 534 102 501.5 67 c 128,-1,23
 469 32 469 32 407.5 11 c 128,-1,24
 346 -10 346 -10 264 -10 c 0,25,0
 152 -10 152 -10 86.5 34.5 c 128,-1,1
221 182 m 0,26,27
 221 156 221 156 238 139 c 128,-1,28
 255 122 255 122 284 122 c 128,-1,29
 313 122 313 122 335.5 142 c 128,-1,30
 358 162 358 162 363 192 c 2,31,-1
 368 225 l 1,32,-1
 368 234 l 2,33,34
 368 261 368 261 351 278 c 128,-1,35
 334 295 334 295 305.5 295 c 128,-1,36
 277 295 277 295 254.5 275 c 128,-1,37
 232 255 232 255 227 225 c 2,38,-1
 222 192 l 2,39,40
 221 190 221 190 221 182 c 0,26,27
261 462 m 0,41,42
 261 436 261 436 278.5 419.5 c 128,-1,43
 296 403 296 403 324 403 c 128,-1,44
 352 403 352 403 375.5 423.5 c 128,-1,45
 399 444 399 444 403 473 c 2,46,-1
 406 496 l 1,47,-1
 406 505 l 2,48,49
 406 532 406 532 389 549 c 128,-1,50
 372 566 372 566 344 566 c 128,-1,51
 316 566 316 566 292.5 545.5 c 128,-1,52
 269 525 269 525 265 496 c 2,53,-1
 262 473 l 2,54,55
 261 470 261 470 261 462 c 0,41,42
EndSplineSet
EndChar

StartChar: nine
Encoding: 57 57 28
Width: 615
Flags: HMW
HStem: -10 150<187 281 246 281> -10 230<187 215 37 246 37 274> 249 116<191.5 315> 556 140<314.5 373 335 373>
VStem: 50 193<411 431.5 411 502.5>
LayerCount: 2
Fore
SplineSet
34 181 m 0,0,1
 34 199 34 199 37 220 c 1,2,-1
 215 220 l 1,3,4
 214 217 214 217 214 212 c 2,5,-1
 214 200 l 2,6,7
 214 176 214 176 231.5 158 c 128,-1,8
 249 140 249 140 275 140 c 2,9,-1
 281 140 l 2,10,11
 318 140 318 140 340.5 161 c 128,-1,12
 363 182 363 182 369 215 c 1,13,-1
 381 301 l 1,14,15
 323 249 323 249 241.5 249 c 128,-1,16
 160 249 160 249 105 293.5 c 128,-1,17
 50 338 50 338 50 421 c 0,18,19
 50 540 50 540 138 618 c 128,-1,20
 226 696 226 696 345 696 c 2,21,-1
 373 696 l 2,22,23
 472 696 472 696 536 635.5 c 128,-1,24
 600 575 600 575 600 482 c 0,25,26
 600 451 600 451 569 240 c 0,27,28
 553 130 553 130 472 60 c 128,-1,29
 391 -10 391 -10 274 -10 c 2,30,-1
 246 -10 l 2,31,32
 153 -10 153 -10 93.5 39.5 c 128,-1,33
 34 89 34 89 34 181 c 0,0,1
243 429 m 0,34,35
 243 402 243 402 261.5 383.5 c 128,-1,36
 280 365 280 365 309 365 c 2,37,-1
 315 365 l 2,38,39
 345 365 345 365 370 387 c 128,-1,40
 395 409 395 409 400 440 c 2,41,-1
 407 491 l 1,42,43
 407 519 407 519 388 537.5 c 128,-1,44
 369 556 369 556 341 556 c 2,45,-1
 335 556 l 2,46,47
 305 556 305 556 280 534 c 128,-1,48
 255 512 255 512 250 481 c 2,49,-1
 245 447 l 2,50,51
 243 432 243 432 243 429 c 0,34,35
EndSplineSet
EndChar

StartChar: colon
Encoding: 58 58 29
Width: 308
Flags: HMW
HStem: 0 183<43 209 18 234> 328 183<89 255 64 280>
LayerCount: 2
Fore
SplineSet
209 0 m 1,0,-1
 18 0 l 1,1,-1
 43 183 l 1,2,-1
 234 183 l 1,3,-1
 209 0 l 1,0,-1
255 328 m 1,4,-1
 64 328 l 1,5,-1
 89 511 l 1,6,-1
 280 511 l 1,7,-1
 255 328 l 1,4,-1
EndSplineSet
EndChar

StartChar: semicolon
Encoding: 59 59 30
Width: 307
Flags: HMW
HStem: -165 21G<41 135 41 41> 0 183<43 101 17 234> 328 183<89 254 63 280>
LayerCount: 2
Fore
SplineSet
101 0 m 1,0,-1
 17 0 l 1,1,-1
 43 183 l 1,2,-1
 234 183 l 1,3,-1
 211 22 l 1,4,-1
 135 -165 l 1,5,-1
 41 -165 l 1,6,-1
 101 0 l 1,0,-1
254 328 m 1,7,-1
 63 328 l 1,8,-1
 89 511 l 1,9,-1
 280 511 l 1,10,-1
 254 328 l 1,7,-1
EndSplineSet
EndChar

StartChar: less
Encoding: 60 60 31
Width: 615
Flags: HMW
HStem: -11 21G<511 511> 501 20G<586 586>
LayerCount: 2
Fore
SplineSet
511 -11 m 1,0,-1
 30 185 l 1,1,-1
 49 324 l 1,2,-1
 586 521 l 1,3,-1
 566 382 l 1,4,-1
 200 254 l 1,5,-1
 531 127 l 1,6,-1
 511 -11 l 1,0,-1
EndSplineSet
EndChar

StartChar: equal
Encoding: 61 61 32
Width: 615
Flags: HMW
HStem: 81 128<40 534 22 552> 301 128<71 565 53 583>
LayerCount: 2
Fore
SplineSet
534 81 m 1,0,-1
 22 81 l 1,1,-1
 40 209 l 1,2,-1
 552 209 l 1,3,-1
 534 81 l 1,0,-1
565 301 m 1,4,-1
 53 301 l 1,5,-1
 71 429 l 1,6,-1
 583 429 l 1,7,-1
 565 301 l 1,4,-1
EndSplineSet
EndChar

StartChar: greater
Encoding: 62 62 33
Width: 615
Flags: HMW
HStem: -11 21G<19 19> 501 20G<94 94>
LayerCount: 2
Fore
SplineSet
556 185 m 1,0,-1
 19 -11 l 1,1,-1
 39 127 l 1,2,-1
 404 254 l 1,3,-1
 74 382 l 1,4,-1
 94 521 l 1,5,-1
 575 324 l 1,6,-1
 556 185 l 1,0,-1
EndSplineSet
EndChar

StartChar: question
Encoding: 63 63 34
Width: 583
Flags: HMW
HStem: 0 183<191 357 166 382> 447 249<49 370> 558 138<279 370>
VStem: 370 212<450.5 514.5 419 696>
LayerCount: 2
Fore
SplineSet
233 447 m 1,0,-1
 49 447 l 1,1,-1
 52 485 l 1,2,3
 66 581 66 581 145.5 638.5 c 128,-1,4
 225 696 225 696 332 696 c 2,5,-1
 370 696 l 2,6,7
 458 696 458 696 520 643.5 c 128,-1,8
 582 591 582 591 582 509 c 0,9,10
 582 459 582 459 561.5 418 c 128,-1,11
 541 377 541 377 511 352 c 128,-1,12
 481 327 481 327 451.5 307.5 c 128,-1,13
 422 288 422 288 399.5 271 c 128,-1,14
 377 254 377 254 375 240 c 2,15,-1
 372 218 l 1,16,-1
 201 218 l 1,17,-1
 210 277 l 2,18,19
 216.964155084 324.008046818 216.964155084 324.008046818 294.5 382.5 c 0,20,21
 323 404 323 404 346.5 435 c 128,-1,22
 370 466 370 466 370 494.5 c 128,-1,23
 370 523 370 523 354.5 540.5 c 128,-1,24
 339 558 339 558 314 558 c 128,-1,25
 289 558 289 558 273 548.5 c 128,-1,26
 257 539 257 539 249 519.5 c 0,27,28
 238.681978799 494.349823322 238.681978799 494.349823322 233 447 c 1,0,-1
357 0 m 1,29,-1
 166 0 l 1,30,-1
 191 183 l 1,31,-1
 382 183 l 1,32,-1
 357 0 l 1,29,-1
EndSplineSet
EndChar

StartChar: at
Encoding: 64 64 35
Width: 907
Flags: HMW
HStem: -153 61<282.5 393.5> 23 113<301 451.5> 243 86<468 514> 364 157<232 509> 412 109<478 492.5> 636 61<408.5 606.5>
VStem: 23 73<84 182.5> 187 198<157.5 192.5 157.5 223> 531 182<377.5 379 379 381.5> 815 73<311.5 474>
LayerCount: 2
Fore
SplineSet
23 167 m 0,0,1
 23 213 23 213 30 262 c 0,2,3
 46 377 46 377 92.5 463 c 128,-1,4
 139 549 139 549 207.5 599 c 0,5,6
 341.76 697 341.76 697 517.38 697 c 128,-1,7
 693 697 693 697 790.5 622.5 c 128,-1,8
 888 548 888 548 888 395 c 0,9,10
 888 292 888 292 861.5 215 c 128,-1,11
 835 138 835 138 793 98 c 0,12,13
 713.2 22 713.2 22 619.1 22 c 128,-1,14
 525 22 525 22 504 99 c 1,15,16
 428 23 428 23 339 23 c 0,17,18
 274 23 274 23 230.5 52.5 c 128,-1,19
 187 82 187 82 187 142.5 c 128,-1,20
 187 203 187 203 211 239.5 c 128,-1,21
 235 276 235 276 283 295 c 0,22,23
 368.894736842 329 368.894736842 329 527 329 c 1,24,-1
 529 343 l 2,25,26
 531 359 531 359 531 366 c 0,27,28
 531 388 531 388 516 400 c 128,-1,29
 501 412 501 412 478 412 c 128,-1,30
 455 412 455 412 434 399.5 c 128,-1,31
 413 387 413 387 411 368 c 1,32,-1
 410 364 l 1,33,-1
 232 364 l 1,34,35
 232 429 232 429 301.5 475 c 128,-1,36
 371 521 371 521 478 521 c 2,37,-1
 509 521 l 2,38,39
 610 521 610 521 661.5 485 c 128,-1,40
 713 449 713 449 713 389 c 2,41,-1
 713 379 l 2,42,43
 713 372 713 372 712 369 c 2,44,-1
 684 171 l 1,45,46
 684 136 684 136 712 136 c 0,47,48
 751 136 751 136 783 207.5 c 128,-1,49
 815 279 815 279 815 386 c 0,50,51
 815 513 815 513 736 574.5 c 128,-1,52
 657 636 657 636 517 636 c 0,53,54
 329 636 329 636 212.5 517 c 128,-1,55
 96 398 96 398 96 172 c 0,56,57
 96 39 96 39 165.5 -26.5 c 128,-1,58
 235 -92 235 -92 380 -92 c 0,59,60
 417 -92 417 -92 470 -82.5 c 128,-1,61
 523 -73 523 -73 550 -60 c 1,62,-1
 541 -126 l 1,63,64
 509 -137 509 -137 457.5 -145 c 128,-1,65
 406 -153 406 -153 372 -153 c 0,66,67
 204 -153 204 -153 113.5 -74 c 128,-1,68
 23 5 23 5 23 167 c 0,0,1
385 172 m 0,69,70
 385 136 385 136 435 136 c 0,71,72
 461 136 461 136 483 155 c 128,-1,73
 505 174 505 174 509 202 c 2,74,-1
 514 243 l 1,75,76
 385 243 385 243 385 172 c 0,69,70
EndSplineSet
EndChar

StartChar: A
Encoding: 65 65 36
Width: 709
Flags: HMW
HStem: 0 21G<-44 157 -44 -44 456 456 456 674> 122 145<283 405 283 432 214 405> 666 20G<281 542 542 542>
LayerCount: 2
Fore
SplineSet
157 0 m 1,0,-1
 -44 0 l 1,1,-1
 281 686 l 1,2,-1
 542 686 l 1,3,-1
 674 0 l 1,4,-1
 456 0 l 1,5,-1
 432 122 l 1,6,-1
 214 122 l 1,7,-1
 157 0 l 1,0,-1
371 475 m 1,8,-1
 283 267 l 1,9,-1
 405 267 l 1,10,-1
 376 475 l 1,11,-1
 371 475 l 1,8,-1
EndSplineSet
EndChar

StartChar: B
Encoding: 66 66 37
Width: 656
Flags: HMW
HStem: 0 159<232 359 359 372.5 232 398> 277 146<248 384 269 375> 540 146<285 285 285 400>
LayerCount: 2
Fore
SplineSet
398 0 m 2,0,-1
 16 0 l 1,1,-1
 113 686 l 1,2,-1
 489 686 l 2,3,4
 557 686 557 686 601.5 644 c 128,-1,5
 646 602 646 602 646 540 c 0,6,7
 646 399 646 399 508 358 c 1,8,-1
 507 354 l 1,9,10
 616 327 616 327 616 218 c 0,11,12
 616 132 616 132 555.5 66 c 128,-1,13
 495 0 495 0 398 0 c 2,0,-1
248 277 m 1,14,-1
 232 159 l 1,15,-1
 359 159 l 2,16,17
 380 159 380 159 397 173.5 c 128,-1,18
 414 188 414 188 416 209 c 2,19,-1
 418 227 l 1,20,-1
 418 234 l 2,21,22
 418 253 418 253 406 265 c 128,-1,23
 394 277 394 277 375 277 c 2,24,-1
 248 277 l 1,14,-1
285 540 m 1,25,-1
 269 423 l 1,26,-1
 384 423 l 2,27,28
 405 423 405 423 422 437.5 c 128,-1,29
 439 452 439 452 441 473 c 2,30,-1
 443 490 l 1,31,-1
 443 497 l 2,32,33
 443 516 443 516 431 528 c 128,-1,34
 419 540 419 540 400 540 c 2,35,-1
 285 540 l 1,25,-1
EndSplineSet
EndChar

StartChar: C
Encoding: 67 67 38
Width: 684
Flags: HMW
HStem: -10 157<226.5 351 307 351> 540 156<358 426 392 426>
VStem: 27 223<208.5 233 233 240 208.5 250> 484 195<450.5 457 457 483>
LayerCount: 2
Fore
SplineSet
27 242 m 0,0,1
 27 257 27 257 45.5 393.5 c 0,2,3
 64 530 64 530 162.5 613 c 128,-1,4
 261 696 261 696 398 696 c 2,5,-1
 426 696 l 2,6,7
 540 696 540 696 609.5 635 c 128,-1,8
 679 574 679 574 679 460 c 0,9,10
 679 430 679 430 675 405 c 1,11,-1
 478 405 l 1,12,-1
 483 440 l 2,13,14
 484 443 484 443 484 448 c 2,15,-1
 484 457 l 2,16,17
 484 495 484 495 460 517.5 c 128,-1,18
 436 540 436 540 397 540 c 2,19,-1
 392 540 l 2,20,21
 343 540 343 540 313.5 512 c 128,-1,22
 284 484 284 484 278 440 c 2,23,-1
 251 247 l 2,24,25
 250 245 250 245 250 240 c 2,26,-1
 250 233 l 2,27,28
 250 196 250 196 274.5 171.5 c 128,-1,29
 299 147 299 147 337 147 c 2,30,-1
 351 147 l 2,31,32
 448 147 448 147 465 247 c 1,33,-1
 470 280 l 1,34,-1
 658 280 l 1,35,36
 638 144 638 144 553.5 67 c 128,-1,37
 469 -10 469 -10 335 -10 c 2,38,-1
 307 -10 l 2,39,40
 183 -10 183 -10 105 57 c 128,-1,41
 27 124 27 124 27 242 c 0,0,1
EndSplineSet
EndChar

StartChar: D
Encoding: 68 68 39
Width: 697
Flags: HMW
HStem: 0 159<251 325> 530 156<303 303 303 380>
VStem: 467 216<443 467.5>
LayerCount: 2
Fore
SplineSet
325 0 m 2,0,-1
 16 0 l 1,1,-1
 113 686 l 1,2,-1
 422 686 l 2,3,4
 535 686 535 686 609 612 c 128,-1,5
 683 538 683 538 683 428 c 0,6,7
 683 407 683 407 680 386 c 2,8,-1
 667 300 l 2,9,10
 648 170 648 170 557 85 c 128,-1,11
 466 0 466 0 325 0 c 2,0,-1
303 530 m 1,12,-1
 251 159 l 1,13,-1
 328 159 l 2,14,15
 377 159 377 159 406.5 187 c 128,-1,16
 436 215 436 215 442 259 c 2,17,-1
 466 430 l 1,18,-1
 467 443 l 1,19,20
 467 480 467 480 442.5 505 c 128,-1,21
 418 530 418 530 380 530 c 2,22,-1
 303 530 l 1,12,-1
EndSplineSet
EndChar

StartChar: E
Encoding: 69 69 40
Width: 600
Flags: HMW
HStem: 0 164<245 531 245 531> 275 153<282 539 261 560> 528 158<297 586 297 297>
LayerCount: 2
Fore
SplineSet
531 0 m 1,0,-1
 16 0 l 1,1,-1
 113 686 l 1,2,-1
 628 686 l 1,3,-1
 586 528 l 1,4,-1
 297 528 l 1,5,-1
 282 428 l 1,6,-1
 560 428 l 1,7,-1
 539 275 l 1,8,-1
 261 275 l 1,9,-1
 245 164 l 1,10,-1
 531 164 l 1,11,-1
 531 0 l 1,0,-1
EndSplineSet
EndChar

StartChar: F
Encoding: 70 70 41
Width: 563
Flags: HMW
HStem: 0 21G<16 221 16 16> 257 154<279 509 257 531> 523 163<295 566 295 295>
LayerCount: 2
Fore
SplineSet
221 0 m 1,0,-1
 16 0 l 1,1,-1
 113 686 l 1,2,-1
 609 686 l 1,3,-1
 566 523 l 1,4,-1
 295 523 l 1,5,-1
 279 411 l 1,6,-1
 531 411 l 1,7,-1
 509 257 l 1,8,-1
 257 257 l 1,9,-1
 221 0 l 1,0,-1
EndSplineSet
EndChar

StartChar: G
Encoding: 71 71 42
Width: 699
Flags: HMW
HStem: -10 157<200 355 275 355> 0 21G<510 622 510 510> 248 136<359 456 340 669> 540 156<360 435 392 435>
VStem: 28 222<208.5 233 233 240 208.5 251.5> 484 196<449 543 473.5 487.5>
LayerCount: 2
Fore
SplineSet
680 479 m 0,0,1
 680 460 680 460 677 439 c 1,2,-1
 483 439 l 1,3,4
 484 442 484 442 484 449 c 2,5,-1
 484 459 l 2,6,7
 484 500 484 500 460 520 c 128,-1,8
 436 540 436 540 397 540 c 2,9,-1
 392 540 l 2,10,11
 345 540 345 540 314.5 512 c 128,-1,12
 284 484 284 484 278 440 c 2,13,-1
 251 247 l 2,14,15
 250 244 250 244 250 240 c 2,16,-1
 250 233 l 2,17,18
 250 196 250 196 274.5 171.5 c 128,-1,19
 299 147 299 147 337 147 c 2,20,-1
 355 147 l 2,21,22
 397 147 397 147 423 173.5 c 128,-1,23
 449 200 449 200 456 248 c 1,24,-1
 340 248 l 1,25,-1
 359 384 l 1,26,-1
 669 384 l 1,27,-1
 636 144 l 2,28,29
 629.157894737 100.666666667 629.157894737 100.666666667 627.078947368 74.3333333333 c 128,-1,30
 625 48 625 48 623.5 29 c 128,-1,31
 622 10 622 10 622 0 c 1,32,-1
 510 0 l 1,33,-1
 493 73 l 1,34,35
 407 -10 407 -10 285 -10 c 2,36,-1
 275 -10 l 2,37,38
 164 -10 164 -10 96 62 c 128,-1,39
 28 134 28 134 28 244 c 0,40,41
 28 266 28 266 31 290 c 2,42,-1
 46 396 l 2,43,44
 65 526 65 526 161 611 c 128,-1,45
 257 696 257 696 407 696 c 2,46,-1
 435 696 l 2,47,48
 540 696 540 696 610 635 c 128,-1,49
 680 574 680 574 680 479 c 0,0,1
EndSplineSet
EndChar

StartChar: H
Encoding: 72 72 43
Width: 697
Flags: HMW
HStem: 0 21G<16 227 16 16 389 389 389 599> 267 166<287 427 265 449> 666 20G<113 323 323 323 485 696 696 696>
LayerCount: 2
Fore
SplineSet
227 0 m 1,0,-1
 16 0 l 1,1,-1
 113 686 l 1,2,-1
 323 686 l 1,3,-1
 287 433 l 1,4,-1
 449 433 l 1,5,-1
 485 686 l 1,6,-1
 696 686 l 1,7,-1
 599 0 l 1,8,-1
 389 0 l 1,9,-1
 427 267 l 1,10,-1
 265 267 l 1,11,-1
 227 0 l 1,0,-1
EndSplineSet
EndChar

StartChar: I
Encoding: 73 73 44
Width: 446
Flags: HMW
HStem: 0 148<16 97 309 369 -5 97> 539 147<92 152 71 466 364 364 364 445>
LayerCount: 2
Fore
SplineSet
369 0 m 1,0,-1
 -5 0 l 1,1,-1
 16 148 l 1,2,-1
 97 148 l 1,3,-1
 152 539 l 1,4,-1
 71 539 l 1,5,-1
 92 686 l 1,6,-1
 466 686 l 1,7,-1
 445 539 l 1,8,-1
 364 539 l 1,9,-1
 309 148 l 1,10,-1
 390 148 l 1,11,-1
 369 0 l 1,0,-1
EndSplineSet
EndChar

StartChar: J
Encoding: 74 74 45
Width: 543
Flags: HMW
HStem: -10 150<124.5 232.5 211 217> 666 20G<339 544 544 544>
VStem: -9 194<147 180 158 180>
LayerCount: 2
Fore
SplineSet
-9 147 m 2,0,-1
 -9 158 l 2,1,2
 -9 177 -9 177 3 248 c 1,3,-1
 195 248 l 1,4,-1
 190 216 l 2,5,6
 185 188 185 188 185 174.5 c 0,7,8
 185 161 185 161 195.5 150.5 c 128,-1,9
 206 140 206 140 222.5 140 c 0,10,11
 239 140 239 140 252.5 152.5 c 128,-1,12
 266 165 266 165 269 186 c 2,13,-1
 339 686 l 1,14,-1
 544 686 l 1,15,-1
 473 180 l 1,16,17
 459 89 459 89 389.5 39.5 c 128,-1,18
 320 -10 320 -10 217 -10 c 2,19,-1
 186 -10 l 2,20,21
 93 -10 93 -10 42 31 c 128,-1,22
 -9 72 -9 72 -9 147 c 2,0,-1
EndSplineSet
EndChar

StartChar: K
Encoding: 75 75 46
Width: 684
Flags: HMW
HStem: 0 21G<16 220 16 16 419 419 419 654> 666 20G<113 317 317 317 513 745 745 745>
LayerCount: 2
Fore
SplineSet
220 0 m 1,0,-1
 16 0 l 1,1,-1
 113 686 l 1,2,-1
 317 686 l 1,3,-1
 279 415 l 1,4,-1
 513 686 l 1,5,-1
 745 686 l 1,6,-1
 497 411 l 1,7,-1
 654 0 l 1,8,-1
 419 0 l 1,9,-1
 335 248 l 1,10,-1
 242 152 l 1,11,-1
 220 0 l 1,0,-1
EndSplineSet
EndChar

StartChar: L
Encoding: 76 76 47
Width: 540
Flags: HMW
HStem: 0 168<252 497 252 497> 666 20G<113 325 325 325>
LayerCount: 2
Fore
SplineSet
497 0 m 1,0,-1
 16 0 l 1,1,-1
 113 686 l 1,2,-1
 325 686 l 1,3,-1
 252 168 l 1,4,-1
 497 168 l 1,5,-1
 497 0 l 1,0,-1
EndSplineSet
EndChar

StartChar: M
Encoding: 77 77 48
Width: 1004
Flags: HMW
HStem: 0 21G<16 207 16 16 331 331 331 572 696 696 696 906> 666 20G<113 457 457 457 657 1003 1003 1003>
LayerCount: 2
Fore
SplineSet
207 0 m 1,0,-1
 16 0 l 1,1,-1
 113 686 l 1,2,-1
 457 686 l 1,3,-1
 504 320 l 1,4,-1
 508 320 l 1,5,-1
 657 686 l 1,6,-1
 1003 686 l 1,7,-1
 906 0 l 1,8,-1
 696 0 l 1,9,-1
 758 440 l 1,10,-1
 754 440 l 1,11,-1
 572 0 l 1,12,-1
 331 0 l 1,13,-1
 274 440 l 1,14,-1
 269 440 l 1,15,-1
 207 0 l 1,0,-1
EndSplineSet
EndChar

StartChar: N
Encoding: 78 78 49
Width: 696
Flags: HMW
HStem: 0 21G<16 209 16 16 418 418 418 598> 666 20G<113 289 289 289 501 695 695 695>
LayerCount: 2
Fore
SplineSet
209 0 m 1,0,-1
 16 0 l 1,1,-1
 113 686 l 1,2,-1
 289 686 l 1,3,-1
 429 431 l 1,4,-1
 457 375 l 1,5,-1
 501 686 l 1,6,-1
 695 686 l 1,7,-1
 598 0 l 1,8,-1
 418 0 l 1,9,-1
 282 246 l 1,10,11
 271 268 271 268 265 278 c 2,12,-1
 252 304 l 1,13,-1
 209 0 l 1,0,-1
EndSplineSet
EndChar

StartChar: O
Encoding: 79 79 50
Width: 719
Flags: HMW
HStem: -10 157<213 342 337 342 342 345> 540 154<388 392 392 397>
VStem: 28 222<208.5 233 233 240 208.5 262.5> 484 221<451 478>
LayerCount: 2
Fore
SplineSet
28 248 m 0,0,1
 28 261 28 261 46.5 391.5 c 0,2,3
 65 522 65 522 158.5 608 c 128,-1,4
 252 694 252 694 388 694 c 2,5,-1
 444 694 l 2,6,7
 557 694 557 694 631 620 c 128,-1,8
 705 546 705 546 705 436 c 0,9,10
 705 423 705 423 686.5 292 c 0,11,12
 668 161 668 161 575 75.5 c 128,-1,13
 482 -10 482 -10 345 -10 c 2,14,-1
 289 -10 l 2,15,16
 176 -10 176 -10 102 64 c 128,-1,17
 28 138 28 138 28 248 c 0,0,1
250 240 m 2,18,-1
 250 233 l 2,19,20
 250 196 250 196 274.5 171.5 c 128,-1,21
 299 147 299 147 337 147 c 2,22,-1
 342 147 l 2,23,24
 391 147 391 147 420.5 175 c 128,-1,25
 450 203 450 203 456 247 c 2,26,-1
 483 440 l 2,27,28
 484 443 484 443 484 454 c 0,29,30
 484 490 484 490 459.5 515 c 128,-1,31
 435 540 435 540 397 540 c 2,32,-1
 392 540 l 2,33,34
 343 540 343 540 313.5 512 c 128,-1,35
 284 484 284 484 278 440 c 2,36,-1
 251 247 l 2,37,38
 250 245 250 245 250 240 c 2,18,-1
EndSplineSet
EndChar

StartChar: P
Encoding: 80 80 51
Width: 645
Flags: HMW
HStem: 0 21G<16 226 16 16> 244 153<282 374 374 395.5 282 416 261 374> 529 157<301 301 301 393>
LayerCount: 2
Fore
SplineSet
226 0 m 1,0,-1
 16 0 l 1,1,-1
 113 686 l 1,2,-1
 478 686 l 2,3,4
 557 686 557 686 608.5 634 c 128,-1,5
 660 582 660 582 660 505 c 0,6,7
 660 494 660 494 655 454 c 0,8,9
 643 364 643 364 577.5 304 c 128,-1,10
 512 244 512 244 416 244 c 2,11,-1
 261 244 l 1,12,-1
 226 0 l 1,0,-1
301 529 m 1,13,-1
 282 397 l 1,14,-1
 374 397 l 2,15,16
 404 397 404 397 422 415 c 128,-1,17
 440 433 440 433 443 457 c 2,18,-1
 445 478 l 1,19,20
 445 499 445 499 431.5 514 c 128,-1,21
 418 529 418 529 393 529 c 2,22,-1
 301 529 l 1,13,-1
EndSplineSet
EndChar

StartChar: Q
Encoding: 81 81 52
Width: 718
Flags: HMW
HStem: -162 123<367 534> 540 154<388 392 392 397>
VStem: 28 222<208.5 233 233 240 208.5 254> 484 220<451 478>
LayerCount: 2
Fore
SplineSet
28 247 m 0,0,1
 28 266 28 266 44.5 393.5 c 128,-1,2
 61 521 61 521 157.5 607.5 c 128,-1,3
 254 694 254 694 388 694 c 2,4,-1
 444 694 l 2,5,6
 557 694 557 694 630.5 621 c 128,-1,7
 704 548 704 548 704 437 c 0,8,9
 704 404.666666667 704 404.666666667 698 365.333333333 c 128,-1,10
 692 326 692 326 687 290 c 0,11,12
 672 187 672 187 610.5 112 c 128,-1,13
 549 37 549 37 444 6 c 1,14,15
 457 -39 457 -39 510.5 -39 c 128,-1,16
 564 -39 564 -39 632 -19 c 2,17,-1
 645 -15 l 1,18,-1
 630 -120 l 1,19,20
 607 -132 607 -132 577 -141 c 0,21,22
 514 -162 514 -162 443 -162 c 0,23,24
 340 -162 340 -162 288.5 -114 c 128,-1,25
 237 -66 237 -66 232 -4 c 1,26,27
 140 14 140 14 84 82.5 c 128,-1,28
 28 151 28 151 28 247 c 0,0,1
250 240 m 2,29,-1
 250 233 l 2,30,31
 250 196 250 196 274.5 171.5 c 128,-1,32
 299 147 299 147 337 147 c 2,33,-1
 342 147 l 2,34,35
 391 147 391 147 420.5 175 c 128,-1,36
 450 203 450 203 456 247 c 2,37,-1
 483 440 l 2,38,39
 484 443 484 443 484 454 c 0,40,41
 484 490 484 490 459.5 515 c 128,-1,42
 435 540 435 540 397 540 c 2,43,-1
 392 540 l 2,44,45
 343 540 343 540 313.5 512 c 128,-1,46
 284 484 284 484 278 440 c 2,47,-1
 251 247 l 2,48,49
 250 244 250 244 250 240 c 2,29,-1
EndSplineSet
EndChar

StartChar: R
Encoding: 82 82 53
Width: 682
Flags: HMW
HStem: -10 21G<468 527.5> 0 21G<16 221 16 16> 266 153<280 316 258 386> 529 157<295 295 295 401>
VStem: 390 208<105.5 202>
LayerCount: 2
Fore
SplineSet
382 88 m 1,0,-1
 390 179 l 1,1,2
 390 266 390 266 316 266 c 2,3,-1
 258 266 l 1,4,-1
 221 0 l 1,5,-1
 16 0 l 1,6,-1
 112 686 l 1,7,-1
 497 686 l 2,8,9
 567 686 567 686 616 645 c 128,-1,10
 665 604 665 604 665 535 c 128,-1,11
 665 466 665 466 622 415 c 128,-1,12
 579 364 579 364 518 354 c 1,13,-1
 517 349 l 1,14,15
 605 322 605 322 605 213 c 1,16,-1
 598 122 l 1,17,18
 598 60 598 60 636 50 c 1,19,-1
 630 9 l 1,20,21
 581 -10 581 -10 513.5 -10 c 128,-1,22
 446 -10 446 -10 414 13 c 128,-1,23
 382 36 382 36 382 88 c 1,0,-1
295 529 m 1,24,-1
 280 419 l 1,25,-1
 386 419 l 2,26,27
 410 419 410 419 425 433 c 128,-1,28
 440 447 440 447 443 469 c 1,29,-1
 444 488 l 2,30,31
 444 506 444 506 431.5 517.5 c 128,-1,32
 419 529 419 529 401 529 c 2,33,-1
 295 529 l 1,24,-1
EndSplineSet
EndChar

StartChar: S
Encoding: 83 83 54
Width: 651
Flags: HMW
HStem: -10 161<260.5 335 260.5 410> -10 244<205.5 212 18 410> 474 222<444 458.5 294 636 444 444> 544 152<340.5 396.5>
VStem: 12 196<112 216> 63 145<196 527> 63 218<453 510.5 453 527> 394 222<196.5 241.5> 445 171<196.5 506.5> 445 195<493 579>
LayerCount: 2
Fore
SplineSet
12 177 m 0,0,1
 12 196 12 196 18 234 c 1,2,-1
 212 234 l 1,3,4
 208 225 208 225 208 212 c 0,5,6
 208 151 208 151 293 151 c 0,7,8
 394 151 394 151 394 199 c 0,9,10
 394 235.391891892 394 235.391891892 308 250.5 c 0,11,12
 225 265.081081081 225 265.081081081 149 300 c 0,13,14
 112 317 112 317 87.5 354 c 128,-1,15
 63 391 63 391 63 443 c 0,16,17
 63 565 63 565 152.5 630.5 c 128,-1,18
 242 696 242 696 388 696 c 0,19,20
 500 696 500 696 570 651 c 128,-1,21
 640 606 640 606 640 517 c 0,22,23
 640 494 640 494 636 474 c 1,24,-1
 444 474 l 1,25,-1
 445 493 l 1,26,27
 445 515 445 515 426 529.5 c 128,-1,28
 407 544 407 544 367 544 c 128,-1,29
 327 544 327 544 304 531 c 128,-1,30
 281 518 281 518 281 497.5 c 128,-1,31
 281 477 281 477 306 463.5 c 128,-1,32
 331 450 331 450 368 443 c 128,-1,33
 405 436 405 436 448.5 423.5 c 128,-1,34
 492 411 492 411 529 395 c 128,-1,35
 566 379 566 379 591 344.5 c 128,-1,36
 616 310 616 310 616 259.5 c 128,-1,37
 616 209 616 209 600 164 c 128,-1,38
 584 119 584 119 547.5 78 c 128,-1,39
 511 37 511 37 441.5 13.5 c 128,-1,40
 372 -10 372 -10 267 -10 c 128,-1,41
 162 -10 162 -10 87 37.5 c 128,-1,42
 12 85 12 85 12 177 c 0,0,1
EndSplineSet
EndChar

StartChar: T
Encoding: 84 84 55
Width: 585
Flags: HMW
HStem: 0 21G<147 355 147 147> 521 165<70 221 47 626 429 429 429 603>
LayerCount: 2
Fore
SplineSet
221 521 m 1,0,-1
 47 521 l 1,1,-1
 70 686 l 1,2,-1
 626 686 l 1,3,-1
 603 521 l 1,4,-1
 429 521 l 1,5,-1
 355 0 l 1,6,-1
 147 0 l 1,7,-1
 221 521 l 1,0,-1
EndSplineSet
EndChar

StartChar: U
Encoding: 85 85 56
Width: 687
Flags: HMW
HStem: -10 156<205.5 352 303.5 323> 666 20G<107 318 318 318 480 690 690 690>
VStem: 39 213<123.5 212.5>
LayerCount: 2
Fore
SplineSet
39 182 m 0,0,1
 39 200 39 200 42 218 c 2,2,-1
 107 686 l 1,3,-1
 318 686 l 1,4,-1
 253 221 l 2,5,6
 252 218 252 218 252 210 c 0,7,8
 252 181 252 181 272.5 163.5 c 128,-1,9
 293 146 293 146 324 146 c 0,10,11
 403 146 403 146 415 221 c 1,12,-1
 480 686 l 1,13,-1
 690 686 l 1,14,-1
 625 218 l 1,15,16
 609 111 609 111 532 50.5 c 128,-1,17
 455 -10 455 -10 323 -10 c 2,18,-1
 280 -10 l 2,19,20
 169 -10 169 -10 104 42 c 128,-1,21
 39 94 39 94 39 182 c 0,0,1
EndSplineSet
EndChar

StartChar: V
Encoding: 86 86 57
Width: 655
Flags: HMW
HStem: 0 21G<159 159 159 409> 666 20G<51 269 269 269 512 714 714 714>
LayerCount: 2
Fore
SplineSet
159 0 m 1,0,-1
 51 686 l 1,1,-1
 269 686 l 1,2,-1
 329 260 l 1,3,-1
 333 260 l 1,4,-1
 512 686 l 1,5,-1
 714 686 l 1,6,-1
 409 0 l 1,7,-1
 159 0 l 1,0,-1
EndSplineSet
EndChar

StartChar: W
Encoding: 87 87 58
Width: 1022
Flags: HMW
HStem: 0 21G<143 143 143 385 557 557 557 795> 666 20G<53 270 270 270 469 684 684 684 881 1078 1078 1078>
LayerCount: 2
Fore
SplineSet
143 0 m 1,0,-1
 53 686 l 1,1,-1
 270 686 l 1,2,-1
 313 305 l 1,3,-1
 317 305 l 1,4,-1
 469 686 l 1,5,-1
 684 686 l 1,6,-1
 726 305 l 1,7,-1
 730 305 l 1,8,-1
 881 686 l 1,9,-1
 1078 686 l 1,10,-1
 795 0 l 1,11,-1
 557 0 l 1,12,-1
 521 329 l 1,13,-1
 515 329 l 1,14,-1
 385 0 l 1,15,-1
 143 0 l 1,0,-1
EndSplineSet
EndChar

StartChar: X
Encoding: 88 88 59
Width: 672
Flags: HMW
HStem: 0 21G<-56 169 -56 -56 404 404 404 648> 491 20G<375 379 379 379> 666 20G<62 305 305 305 499 724 724 724>
LayerCount: 2
Fore
SplineSet
169 0 m 1,0,-1
 -56 0 l 1,1,-1
 209 363 l 1,2,-1
 62 686 l 1,3,-1
 305 686 l 1,4,-1
 375 511 l 1,5,-1
 379 511 l 1,6,-1
 499 686 l 1,7,-1
 724 686 l 1,8,-1
 484 362 l 1,9,-1
 648 0 l 1,10,-1
 404 0 l 1,11,-1
 318 213 l 1,12,-1
 314 213 l 1,13,-1
 169 0 l 1,0,-1
EndSplineSet
EndChar

StartChar: Y
Encoding: 89 89 60
Width: 644
Flags: HMW
HStem: 0 21G<175 384 175 175> 666 20G<44 280 280 280 493 708 708 708>
LayerCount: 2
Fore
SplineSet
212 262 m 1,0,-1
 44 686 l 1,1,-1
 280 686 l 1,2,-1
 351 461 l 1,3,-1
 356 461 l 1,4,-1
 493 686 l 1,5,-1
 708 686 l 1,6,-1
 421 262 l 1,7,-1
 384 0 l 1,8,-1
 175 0 l 1,9,-1
 212 262 l 1,0,-1
EndSplineSet
EndChar

StartChar: Z
Encoding: 90 90 61
Width: 607
Flags: HMW
HStem: 0 161<294 543> 526 160<93 315 70 632>
LayerCount: 2
Fore
SplineSet
543 0 m 1,0,-1
 -27 0 l 1,1,-1
 -18 61 l 1,2,-1
 315 526 l 1,3,-1
 70 526 l 1,4,-1
 93 686 l 1,5,-1
 632 686 l 1,6,-1
 623 625 l 1,7,-1
 294 161 l 1,8,-1
 566 161 l 1,9,-1
 543 0 l 1,0,-1
EndSplineSet
EndChar

StartChar: bracketleft
Encoding: 91 91 62
Width: 318
Flags: HMW
HStem: -161 83<154 230> 603 83<249 337 249 249>
LayerCount: 2
Fore
SplineSet
230 -161 m 1,0,-1
 -7 -161 l 1,1,-1
 112 686 l 1,2,-1
 349 686 l 1,3,-1
 337 603 l 1,4,-1
 249 603 l 1,5,-1
 154 -78 l 1,6,-1
 242 -78 l 1,7,-1
 230 -161 l 1,0,-1
EndSplineSet
EndChar

StartChar: backslash
Encoding: 92 92 63
Width: 648
Flags: HMW
HStem: -171 21G<436 436 436 568> 666 20G<68 199 199 199>
LayerCount: 2
Fore
SplineSet
436 -171 m 1,0,-1
 68 686 l 1,1,-1
 199 686 l 1,2,-1
 568 -171 l 1,3,-1
 436 -171 l 1,0,-1
EndSplineSet
EndChar

StartChar: bracketright
Encoding: 93 93 64
Width: 317
Flags: HMW
HStem: -161 83<-28 60 -28 197 -40 60> 603 83<79 155 67 316>
LayerCount: 2
Fore
SplineSet
197 -161 m 1,0,-1
 -40 -161 l 1,1,-1
 -28 -78 l 1,2,-1
 60 -78 l 1,3,-1
 155 603 l 1,4,-1
 67 603 l 1,5,-1
 79 686 l 1,6,-1
 316 686 l 1,7,-1
 197 -161 l 1,0,-1
EndSplineSet
EndChar

StartChar: asciicircum
Encoding: 94 94 65
Width: 600
Flags: HMW
HStem: 0 21G<-2 137 -2 -2 392 392 392 530> 491 20G<265 404 404 404>
LayerCount: 2
Fore
SplineSet
137 0 m 1,0,-1
 -2 0 l 1,1,-1
 265 511 l 1,2,-1
 404 511 l 1,3,-1
 530 0 l 1,4,-1
 392 0 l 1,5,-1
 314 350 l 1,6,-1
 137 0 l 1,0,-1
EndSplineSet
EndChar

StartChar: underscore
Encoding: 95 95 66
Width: 662
Flags: HMW
HStem: -127 62<30 521 22 530>
LayerCount: 2
Fore
SplineSet
521 -127 m 1,0,-1
 22 -127 l 1,1,-1
 30 -65 l 1,2,-1
 530 -65 l 1,3,-1
 521 -127 l 1,0,-1
EndSplineSet
EndChar

StartChar: grave
Encoding: 96 96 67
Width: 333
Flags: HMW
HStem: 575 145<157 157 157 205 54 275>
LayerCount: 2
Fore
SplineSet
157 575 m 1,0,-1
 51 717 l 1,1,-1
 54 720 l 1,2,-1
 205 720 l 1,3,-1
 275 575 l 1,4,-1
 157 575 l 1,0,-1
EndSplineSet
EndChar

StartChar: a
Encoding: 97 97 68
Width: 628
Flags: HMW
HStem: -10 121<126 287.5> 396 125<171.5 321.5> 491 20G<432 581 581 581>
VStem: 17 196<152.5 172 152.5 265>
LayerCount: 2
Fore
SplineSet
17 193 m 0,0,1
 17 310.6 17 310.6 72.5 410.5 c 0,2,3
 100 460 100 460 148 490.5 c 128,-1,4
 196 521 196 521 247 521 c 0,5,6
 349.147058824 521 349.147058824 521 393 450 c 1,7,-1
 398 450 l 1,8,-1
 432 511 l 1,9,-1
 581 511 l 1,10,11
 564 410 564 410 546 281.5 c 128,-1,12
 528 153 528 153 528 137 c 0,13,14
 528 110 528 110 554 110 c 0,15,16
 571 110 571 110 591 123 c 1,17,-1
 576 13 l 1,18,19
 532 -10 532 -10 475.5 -10 c 128,-1,20
 419 -10 419 -10 383.5 6 c 128,-1,21
 348 22 348 22 337 68 c 1,22,23
 310 34 310 34 269.5 12 c 128,-1,24
 229 -10 229 -10 188 -10 c 0,25,26
 100 -10 100 -10 58.5 46 c 128,-1,27
 17 102 17 102 17 193 c 0,0,1
213 170 m 0,28,29
 213 144 213 144 228 127.5 c 128,-1,30
 243 111 243 111 270 111 c 128,-1,31
 297 111 297 111 315.5 130.5 c 128,-1,32
 334 150 334 150 338 181 c 2,33,-1
 348 253 l 2,34,35
 359 334 359 334 359 338 c 0,36,37
 359 366 359 366 344.5 381 c 128,-1,38
 330 396 330 396 304.5 396 c 128,-1,39
 279 396 279 396 258.5 376 c 128,-1,40
 238 356 238 356 234 326 c 0,41,42
 213 178 213 178 213 170 c 0,28,29
EndSplineSet
EndChar

StartChar: b
Encoding: 98 98 69
Width: 599
Flags: HMW
HStem: -10 121<276 304.5 267.5 403.5> 0 21G<9 78 9 9> 396 125<304.5 457.5> 700 20G<109 307 307 307>
VStem: 376 196<333.5 357.5>
LayerCount: 2
Fore
SplineSet
78 0 m 1,0,-1
 9 0 l 1,1,-1
 109 720 l 1,2,-1
 307 720 l 1,3,-1
 270 458 l 1,4,5
 333 521 333 521 408.5 521 c 128,-1,6
 484 521 484 521 528 471 c 128,-1,7
 572 421 572 421 572 326 c 0,8,9
 572 196.633333333 572 196.633333333 511 97 c 0,10,11
 481 48 481 48 429.5 19 c 128,-1,12
 378 -10 378 -10 312 -10 c 0,13,14
 204 -10 204 -10 156 75 c 1,15,-1
 78 0 l 1,0,-1
230 170 m 0,16,17
 230 144 230 144 245 127.5 c 128,-1,18
 260 111 260 111 287 111 c 128,-1,19
 314 111 314 111 332.5 130.5 c 128,-1,20
 351 150 351 150 355 181 c 2,21,-1
 365 253 l 2,22,23
 376 334 376 334 376 338 c 0,24,25
 376 366 376 366 361.5 381 c 128,-1,26
 347 396 347 396 321.5 396 c 128,-1,27
 296 396 296 396 275.5 376 c 128,-1,28
 255 356 255 356 251 326 c 0,29,30
 230 178 230 178 230 170 c 0,16,17
EndSplineSet
EndChar

StartChar: c
Encoding: 99 99 70
Width: 568
Flags: HMW
HStem: -10 121<266.5 306 266.5 336.5> -10 217<179 533> 304 217<378 419.5 224.5 546 378 378> 400 121<298.5 339.5>
VStem: 16 205<153.5 175 153.5 286> 381 168<337.5 356.5>
LayerCount: 2
Fore
SplineSet
378 304 m 1,0,-1
 381 339 l 1,1,2
 381 365 381 365 364.5 382.5 c 128,-1,3
 348 400 348 400 318 400 c 128,-1,4
 288 400 288 400 267.5 380.5 c 128,-1,5
 247 361 247 361 243.5 336 c 128,-1,6
 240 311 240 311 232 256 c 1,7,8
 221 195 221 195 221 169.5 c 128,-1,9
 221 144 221 144 238.5 127.5 c 128,-1,10
 256 111 256 111 288 111 c 0,11,12
 335 111 335 111 357 146 c 0,13,14
 368 162 368 162 371 181 c 2,15,-1
 375 207 l 1,16,-1
 533 207 l 1,17,18
 517 104 517 104 445.5 47 c 128,-1,19
 374 -10 374 -10 258.5 -10 c 128,-1,20
 143 -10 143 -10 79.5 50 c 128,-1,21
 16 110 16 110 16 198 c 0,22,23
 16 337 16 337 98 429 c 128,-1,24
 180 521 180 521 326 521 c 0,25,26
 392 521 392 521 439 503.5 c 128,-1,27
 486 486 486 486 508.5 456.5 c 0,28,29
 549 403.4 549 403.4 549 340 c 0,30,31
 549 322 549 322 546 304 c 1,32,-1
 378 304 l 1,0,-1
EndSplineSet
EndChar

StartChar: d
Encoding: 100 100 71
Width: 639
Flags: HMW
HStem: -10 121<143 286.5> 396 125<286.5 288.5 195 320.5> 700 20G<413 611 611 611>
VStem: 18 194<152.5 172 152.5 303>
LayerCount: 2
Fore
SplineSet
18 193 m 0,0,1
 18 348 18 348 88 434.5 c 128,-1,2
 158 521 158 521 252.5 521 c 0,3,4
 347 521 347 521 376 458 c 1,5,-1
 413 720 l 1,6,-1
 611 720 l 1,7,-1
 571 442 l 1,8,9
 531 175 531 175 531 142.5 c 0,10,11
 531 110 531 110 556 110 c 0,12,13
 573 110 573 110 593 123 c 1,14,-1
 578 13 l 1,15,16
 534 -10 534 -10 488 -10 c 0,17,18
 442 -10 442 -10 418.5 -5.5 c 128,-1,19
 395 -1 395 -1 372.5 15 c 128,-1,20
 350 31 350 31 342 59 c 1,21,22
 312 27 312 27 279.5 8.5 c 128,-1,23
 247 -10 247 -10 197 -10 c 0,24,25
 114 -10 114 -10 66 41.5 c 128,-1,26
 18 93 18 93 18 193 c 0,0,1
212 170 m 0,27,28
 212 144 212 144 227 127.5 c 128,-1,29
 242 111 242 111 269 111 c 0,30,31
 296 111 296 111 314.5 130.5 c 128,-1,32
 333 150 333 150 337 181 c 2,33,-1
 347 253 l 2,34,35
 358 334 358 334 358 338 c 0,36,37
 358 366 358 366 343.5 381 c 128,-1,38
 329 396 329 396 303.5 396 c 0,39,40
 278 396 278 396 257.5 376 c 128,-1,41
 237 356 237 356 233 326 c 0,42,43
 212 178 212 178 212 170 c 0,27,28
EndSplineSet
EndChar

StartChar: e
Encoding: 101 101 72
Width: 600
Flags: HMW
HStem: -10 121<192 314 270.5 279> -10 202<192 557 264 557> 229 87<242 380 242 563 230 380> 400 121<332 340.5>
VStem: 16 206<150.5 172.5 150.5 300.5> 382 192<320 356.5>
LayerCount: 2
Fore
SplineSet
16 200 m 0,0,1
 16 348 16 348 103.5 434.5 c 128,-1,2
 191 521 191 521 332 521 c 2,3,-1
 357 521 l 2,4,5
 462 521 462 521 518 469 c 128,-1,6
 574 417 574 417 574 330 c 2,7,-1
 574 320 l 1,8,-1
 572 303 l 2,9,10
 571 288 571 288 563 229 c 1,11,-1
 230 229 l 1,12,-1
 226 204 l 1,13,14
 222 187 222 187 222 164.5 c 128,-1,15
 222 142 222 142 241 126.5 c 128,-1,16
 260 111 260 111 292.5 111 c 128,-1,17
 325 111 325 111 347 132.5 c 128,-1,18
 369 154 369 154 374 192 c 1,19,-1
 557 192 l 1,20,21
 545 105 545 105 469.5 47.5 c 128,-1,22
 394 -10 394 -10 279 -10 c 2,23,-1
 264 -10 l 2,24,25
 154 -10 154 -10 85 46 c 128,-1,26
 16 102 16 102 16 200 c 0,0,1
381 323 m 2,27,-1
 382 339 l 1,28,29
 382 365 382 365 365.5 382.5 c 128,-1,30
 349 400 349 400 321.5 400 c 128,-1,31
 294 400 294 400 271 379.5 c 128,-1,32
 248 359 248 359 244 330 c 2,33,-1
 242 316 l 1,34,-1
 380 316 l 1,35,36
 380 320 380 320 381 323 c 2,27,-1
EndSplineSet
EndChar

StartChar: f
Encoding: 102 102 73
Width: 418
Flags: HMW
HStem: -187 122<-26.5 90.5> 369 142<56 100 36 120 318 418> 606 122<281.5 397.5>
LayerCount: 2
Fore
SplineSet
-94 -165 m 1,0,-1
 -78 -53 l 1,1,2
 -51 -65 -51 -65 -18 -65 c 0,3,4
 37 -65 37 -65 49 4 c 1,5,-1
 100 369 l 1,6,-1
 36 369 l 1,7,-1
 56 511 l 1,8,-1
 120 511 l 1,9,-1
 129 577 l 1,10,11
 151 728 151 728 334 728 c 0,12,13
 421 728 421 728 464 706 c 1,14,-1
 449 596 l 1,15,16
 415 606 415 606 395 606 c 0,17,18
 375 606 375 606 365 604 c 128,-1,19
 355 602 355 602 348 595.5 c 128,-1,20
 341 589 341 589 336.5 584.5 c 128,-1,21
 332 580 332 580 329 568 c 128,-1,22
 326 556 326 556 324.5 551.5 c 128,-1,23
 323 547 323 547 321 531 c 128,-1,24
 319 515 319 515 318 511 c 1,25,-1
 438 511 l 1,26,-1
 418 369 l 1,27,-1
 298 369 l 1,28,-1
 243 -26 l 2,29,30
 231 -106 231 -106 176 -146.5 c 128,-1,31
 121 -187 121 -187 35.5 -187 c 0,32,33
 -50 -187 -50 -187 -94 -165 c 1,0,-1
EndSplineSet
EndChar

StartChar: g
Encoding: 103 103 74
Width: 600
Flags: HMW
HStem: -186 123<231.5 275 231.5 312.5> -186 167<183 196 -3 312.5> 19 125<121.5 288.5> 400 121<284.5 307.5 183.5 318.5> 491 20G<509 579 579 579>
LayerCount: 2
Fore
SplineSet
-3 -19 m 1,0,-1
 196 -19 l 1,1,2
 196 -35 196 -35 210 -49 c 128,-1,3
 224 -63 224 -63 252 -63 c 0,4,5
 300 -63 300 -63 312 7 c 1,6,-1
 321 82 l 1,7,8
 261 19 261 19 179.5 19 c 128,-1,9
 98 19 98 19 58 75 c 128,-1,10
 18 131 18 131 18 216 c 0,11,12
 18 328.728813559 18 328.728813559 77.5 420.5 c 0,13,14
 107 466 107 466 158 493.5 c 128,-1,15
 209 521 209 521 275 521 c 0,16,17
 384 521 384 521 430 436 c 1,18,-1
 509 511 l 1,19,-1
 579 511 l 1,20,-1
 513 40 l 2,21,22
 498 -72 498 -72 425 -129 c 128,-1,23
 352 -186 352 -186 245 -186 c 0,24,25
 177 -186 177 -186 124.5 -172 c 128,-1,26
 72 -158 72 -158 34.5 -119 c 128,-1,27
 -3 -80 -3 -80 -3 -19 c 1,0,-1
214 203 m 0,28,29
 214 177 214 177 229 160.5 c 128,-1,30
 244 144 244 144 271 144 c 128,-1,31
 298 144 298 144 316.5 163.5 c 128,-1,32
 335 183 335 183 339 214 c 0,33,34
 340 220 340 220 342.5 241 c 128,-1,35
 345 262 345 262 347 272 c 2,36,-1
 356 342 l 1,37,38
 356 370 356 370 341.5 385 c 128,-1,39
 327 400 327 400 301.5 400 c 128,-1,40
 276 400 276 400 256 380.5 c 128,-1,41
 236 361 236 361 231 330 c 2,42,-1
 222 270 l 1,43,44
 214 208 214 208 214 203 c 0,28,29
EndSplineSet
EndChar

StartChar: h
Encoding: 104 104 75
Width: 597
Flags: HMW
HStem: 0 21G<9 206 9 9 312 312 312 510> 380 141<294.5 484 394 563> 700 20G<109 307 307 307>
VStem: 358 205<323 380>
LayerCount: 2
Fore
SplineSet
312 0 m 1,0,-1
 358 326 l 1,1,-1
 358 333 l 2,2,3
 358 353 358 353 346 366.5 c 128,-1,4
 334 380 334 380 310.5 380 c 128,-1,5
 287 380 287 380 271 363 c 128,-1,6
 255 346 255 346 251 320 c 2,7,-1
 206 0 l 1,8,-1
 9 0 l 1,9,-1
 109 720 l 1,10,-1
 307 720 l 1,11,-1
 269 451 l 1,12,13
 281 468 281 468 305 486 c 1,14,15
 356 521 356 521 410.5 521 c 128,-1,16
 465 521 465 521 496 506.5 c 128,-1,17
 527 492 527 492 540 469 c 0,18,19
 563 428.307692308 563 428.307692308 563 392 c 2,20,-1
 563 380 l 2,21,22
 563 379.833333333 563 379.833333333 510 0 c 1,23,-1
 312 0 l 1,0,-1
EndSplineSet
EndChar

StartChar: i
Encoding: 105 105 76
Width: 296
Flags: HMW
HStem: 0 21G<9 205 9 9> 491 20G<80 277 277 277> 577 143<109 286 89 306>
LayerCount: 2
Fore
SplineSet
205 0 m 1,0,-1
 9 0 l 1,1,-1
 80 511 l 1,2,-1
 277 511 l 1,3,-1
 205 0 l 1,0,-1
286 577 m 1,4,-1
 89 577 l 1,5,-1
 109 720 l 1,6,-1
 306 720 l 1,7,-1
 286 577 l 1,4,-1
EndSplineSet
EndChar

StartChar: j
Encoding: 106 106 77
Width: 298
Flags: HMW
HStem: -187 122<-63.5 53> 491 20G<80 279 279 279> 577 143<109 288 89 308>
LayerCount: 2
Fore
SplineSet
-132 -165 m 1,0,-1
 -116 -53 l 1,1,2
 -90 -65 -90 -65 -56 -65 c 0,3,4
 0 -65 0 -65 9 4 c 2,5,-1
 80 511 l 1,6,-1
 279 511 l 1,7,-1
 203 -26 l 2,8,9
 191 -105 191 -105 137 -146 c 128,-1,10
 83 -187 83 -187 2.5 -187 c 0,11,12
 -78 -187 -78 -187 -132 -165 c 1,0,-1
288 577 m 1,13,-1
 89 577 l 1,14,-1
 109 720 l 1,15,-1
 308 720 l 1,16,-1
 288 577 l 1,13,-1
EndSplineSet
EndChar

StartChar: k
Encoding: 107 107 78
Width: 601
Flags: HMW
HStem: 0 21G<9 206 9 9 332 332 332 565> 491 20G<408 634 634 634> 700 20G<109 307 307 307>
LayerCount: 2
Fore
SplineSet
206 0 m 1,0,-1
 9 0 l 1,1,-1
 109 720 l 1,2,-1
 307 720 l 1,3,-1
 251 321 l 1,4,-1
 408 511 l 1,5,-1
 634 511 l 1,6,-1
 422 280 l 1,7,-1
 565 0 l 1,8,-1
 332 0 l 1,9,-1
 262 145 l 1,10,-1
 222 114 l 1,11,-1
 206 0 l 1,0,-1
EndSplineSet
EndChar

StartChar: l
Encoding: 108 108 79
Width: 297
Flags: HMW
HStem: 0 21G<9 206 9 9> 700 20G<109 307 307 307>
LayerCount: 2
Fore
SplineSet
206 0 m 1,0,-1
 9 0 l 1,1,-1
 109 720 l 1,2,-1
 307 720 l 1,3,-1
 206 0 l 1,0,-1
EndSplineSet
EndChar

StartChar: m
Encoding: 109 109 80
Width: 869
Flags: HMW
HStem: 0 21G<8 202 8 8 298 298 298 492 588 588 588 782> 379 142<288.5 440 357.5 604.5> 491 20G<80 228 228 228>
VStem: 634 201<330 428.5>
LayerCount: 2
Fore
SplineSet
298 0 m 1,0,1
 344 328.571428571 344 328.571428571 344 341.285714286 c 128,-1,2
 344 354 344 354 332.5 366.5 c 128,-1,3
 321 379 321 379 301 379 c 128,-1,4
 281 379 281 379 265.5 364 c 128,-1,5
 250 349 250 349 247 324 c 2,6,-1
 202 0 l 1,7,-1
 8 0 l 1,8,-1
 80 511 l 1,9,-1
 228 511 l 1,10,-1
 238 437 l 1,11,12
 258 466 258 466 301 493.5 c 128,-1,13
 344 521 344 521 402 521 c 0,14,15
 503 521 503 521 535 443 c 1,16,17
 592 521 592 521 692 521 c 0,18,19
 761 521 761 521 798 485 c 128,-1,20
 835 449 835 449 835 392 c 0,21,22
 835 370 835 370 818 254 c 2,23,-1
 808 184 l 1,24,25
 800 117 800 117 782 0 c 1,26,-1
 588 0 l 1,27,28
 634 328.571428571 634 328.571428571 634 341.285714286 c 128,-1,29
 634 354 634 354 622.5 366.5 c 128,-1,30
 611 379 611 379 591 379 c 128,-1,31
 571 379 571 379 555.5 364 c 128,-1,32
 540 349 540 349 537 324 c 2,33,-1
 492 0 l 1,34,-1
 298 0 l 1,0,1
EndSplineSet
EndChar

StartChar: n
Encoding: 110 110 81
Width: 597
Flags: HMW
HStem: 0 21G<8 206 8 8 312 312 312 510> 380 141<294.5 467> 491 20G<80 229 229 229>
VStem: 358 205<326.5 428.5>
LayerCount: 2
Fore
SplineSet
312 0 m 1,0,-1
 358 330 l 1,1,2
 358 352 358 352 346 366 c 128,-1,3
 334 380 334 380 310.5 380 c 128,-1,4
 287 380 287 380 271 363 c 128,-1,5
 255 346 255 346 251 320 c 2,6,-1
 206 0 l 1,7,-1
 8 0 l 1,8,-1
 80 511 l 1,9,-1
 229 511 l 1,10,-1
 238 437 l 1,11,12
 302 521 302 521 419 521 c 0,13,14
 488 521 488 521 525.5 485 c 128,-1,15
 563 449 563 449 563 392 c 0,16,17
 563 372 563 372 546 255 c 2,18,-1
 536 185 l 2,19,20
 528 124 528 124 510 0 c 1,21,-1
 312 0 l 1,0,-1
EndSplineSet
EndChar

StartChar: o
Encoding: 111 111 82
Width: 613
Flags: HMW
HStem: -10 121<263.5 265 265 280> 400 121<323 340 340 340.5>
VStem: 16 205<153.5 172.5 153.5 279.5> 382 205<335 354.5>
LayerCount: 2
Fore
SplineSet
16 205 m 0,0,1
 16 324.208333333 16 324.208333333 89 418.5 c 0,2,3
 125 465 125 465 186 493 c 128,-1,4
 247 521 247 521 323 521 c 2,5,-1
 340 521 l 2,6,7
 458 521 458 521 522.5 462.5 c 128,-1,8
 587 404 587 404 587 305 c 0,9,10
 587 168 587 168 501 79 c 128,-1,11
 415 -10 415 -10 280 -10 c 2,12,-1
 265 -10 l 2,13,14
 145 -10 145 -10 80.5 48.5 c 128,-1,15
 16 107 16 107 16 205 c 0,0,1
232 253 m 1,16,17
 221 192 221 192 221 168.5 c 128,-1,18
 221 145 221 145 238 128 c 128,-1,19
 255 111 255 111 284 111 c 128,-1,20
 313 111 313 111 334 130.5 c 128,-1,21
 355 150 355 150 360 181 c 2,22,-1
 371 254 l 1,23,24
 382 335 382 335 382 339 c 0,25,26
 382 363 382 363 365.5 381.5 c 128,-1,27
 349 400 349 400 320.5 400 c 128,-1,28
 292 400 292 400 269.5 379.5 c 128,-1,29
 247 359 247 359 243 333 c 128,-1,30
 239 307 239 307 232 253 c 1,16,17
EndSplineSet
EndChar

StartChar: p
Encoding: 112 112 83
Width: 599
Flags: HMW
HStem: -181 21G<-16 181 -16 -16> -10 125<269.5 422> 400 121<306.5 440.5> 491 20G<80 238 238 238>
VStem: 378 194<337.5 361.5>
LayerCount: 2
Fore
SplineSet
181 -181 m 1,0,-1
 -16 -181 l 1,1,-1
 80 511 l 1,2,-1
 238 511 l 1,3,-1
 248 452 l 1,4,5
 313 521 313 521 392 521 c 128,-1,6
 471 521 471 521 521.5 469.5 c 128,-1,7
 572 418 572 418 572 319 c 0,8,9
 572 202.943396226 572 202.943396226 518.5 102 c 0,10,11
 492 52 492 52 445 21 c 128,-1,12
 398 -10 398 -10 345.5 -10 c 128,-1,13
 293 -10 293 -10 259.5 8 c 128,-1,14
 226 26 226 26 214 53 c 1,15,-1
 181 -181 l 1,0,-1
232 174 m 0,16,17
 232 148 232 148 247 131.5 c 128,-1,18
 262 115 262 115 289 115 c 128,-1,19
 316 115 316 115 334.5 134.5 c 128,-1,20
 353 154 353 154 357 185 c 2,21,-1
 367 257 l 2,22,23
 378 338 378 338 378 342 c 0,24,25
 378 370 378 370 363.5 385 c 128,-1,26
 349 400 349 400 323.5 400 c 128,-1,27
 298 400 298 400 277.5 380 c 128,-1,28
 257 360 257 360 253 330 c 0,29,30
 232 182 232 182 232 174 c 0,16,17
EndSplineSet
EndChar

StartChar: q
Encoding: 113 113 84
Width: 599
Flags: HMW
HStem: -180 21G<285 483 285 285> -11 125<130.5 285.5> 399 121<285.5 310 180.5 319.5> 491 20G<510 580 580 580>
VStem: 16 195<155.5 175 155.5 260.5>
LayerCount: 2
Fore
SplineSet
16 184 m 0,0,1
 16 307.5 16 307.5 74 408.5 c 0,2,3
 103 459 103 459 155.5 489.5 c 128,-1,4
 208 520 208 520 276 520 c 0,5,6
 382 520 382 520 425 443 c 1,7,-1
 510 511 l 1,8,-1
 580 511 l 1,9,-1
 483 -180 l 1,10,-1
 285 -180 l 1,11,-1
 318 52 l 1,12,13
 255 -11 255 -11 179.5 -11 c 128,-1,14
 104 -11 104 -11 60 39 c 128,-1,15
 16 89 16 89 16 184 c 0,0,1
211 173 m 0,16,17
 211 147 211 147 226 130.5 c 128,-1,18
 241 114 241 114 268 114 c 128,-1,19
 295 114 295 114 313.5 133.5 c 128,-1,20
 332 153 332 153 336 184 c 2,21,-1
 346 256 l 2,22,23
 357 337 357 337 357 341 c 0,24,25
 357 369 357 369 342.5 384 c 128,-1,26
 328 399 328 399 302.5 399 c 128,-1,27
 277 399 277 399 256.5 379 c 128,-1,28
 236 359 236 359 232 329 c 0,29,30
 211 181 211 181 211 173 c 0,16,17
EndSplineSet
EndChar

StartChar: r
Encoding: 114 114 85
Width: 504
Flags: HMW
HStem: 0 21G<8 201 8 8> 304 217<345.5 426 345.5 491 329 426> 378 143<283 426> 491 20G<80 228 228 228>
VStem: 332 176<334 444>
LayerCount: 2
Fore
SplineSet
329 304 m 1,0,-1
 332 336 l 1,1,2
 332 378 332 378 297 378 c 0,3,4
 277 378 277 378 263.5 364 c 128,-1,5
 250 350 250 350 247 328 c 2,6,-1
 201 0 l 1,7,-1
 8 0 l 1,8,-1
 80 511 l 1,9,-1
 228 511 l 1,10,-1
 239 437 l 1,11,12
 251 459 251 459 292.5 490 c 128,-1,13
 334 521 334 521 389.5 521 c 128,-1,14
 445 521 445 521 476.5 491.5 c 128,-1,15
 508 462 508 462 508 410 c 0,16,17
 508 389 508 389 491 304 c 1,18,-1
 329 304 l 1,0,-1
EndSplineSet
EndChar

StartChar: s
Encoding: 115 115 86
Width: 559
Flags: HMW
HStem: -10 121<229 230 230 240> -10 177<158.5 167 5 230 5 240> 358 163<364 373.5 313 528 364 364> 403 118<313 314>
VStem: 1 165<79.5 156> 44 122<138 393.5> 44 178<338.5 387 338.5 393.5> 335 181<141 178.5>
LayerCount: 2
Fore
SplineSet
535 397 m 0,0,1
 535 379 535 379 528 358 c 1,2,-1
 364 358 l 1,3,-1
 364 363 l 2,4,5
 364 403 364 403 300 403 c 0,6,7
 222 403 222 403 222 371 c 0,8,9
 222 354 222 354 252.5 346.5 c 128,-1,10
 283 339 283 339 326 334.5 c 128,-1,11
 369 330 369 330 412 320.5 c 128,-1,12
 455 311 455 311 485.5 280.5 c 128,-1,13
 516 250 516 250 516 199 c 0,14,15
 516 105 516 105 449 47.5 c 128,-1,16
 382 -10 382 -10 240 -10 c 2,17,-1
 230 -10 l 2,18,19
 1 -10 1 -10 1 127 c 0,20,21
 1 151 1 151 5 167 c 1,22,-1
 167 167 l 1,23,24
 166 166 166 166 166 163 c 2,25,-1
 166 156 l 2,26,27
 166 132 166 132 190.5 121.5 c 128,-1,28
 215 111 215 111 245 111 c 0,29,30
 335 111 335 111 335 145 c 0,31,32
 335 163 335 163 305 171.5 c 128,-1,33
 275 180 275 180 232.5 185.5 c 128,-1,34
 190 191 190 191 147 201.5 c 128,-1,35
 104 212 104 212 74 242 c 128,-1,36
 44 272 44 272 44 322.5 c 128,-1,37
 44 373 44 373 68.5 413 c 128,-1,38
 93 453 93 453 133.5 475.5 c 0,39,40
 215.4 521 215.4 521 313 521 c 2,41,-1
 321 521 l 2,42,43
 408 521 408 521 471.5 489 c 128,-1,44
 535 457 535 457 535 397 c 0,0,1
EndSplineSet
EndChar

StartChar: t
Encoding: 116 116 87
Width: 419
Flags: HMW
HStem: -11 122<169.5 316.5> 369 142<54 90 34 110 308 408> 654 20G<133 342 342 342>
VStem: 54 205<59 164>
LayerCount: 2
Fore
SplineSet
90 369 m 1,0,-1
 34 369 l 1,1,-1
 54 511 l 1,2,-1
 110 511 l 1,3,-1
 133 674 l 1,4,-1
 342 674 l 1,5,-1
 308 511 l 1,6,-1
 428 511 l 1,7,-1
 408 369 l 1,8,-1
 288 369 l 1,9,10
 259 173 259 173 259 152 c 0,11,12
 259 111 259 111 309 111 c 0,13,14
 343 111 343 111 372 123 c 1,15,-1
 356 11 l 1,16,17
 298 -11 298 -11 218.5 -11 c 128,-1,18
 139 -11 139 -11 96.5 15 c 128,-1,19
 54 41 54 41 54 102 c 0,20,21
 54 113 54 113 90 369 c 1,0,-1
EndSplineSet
EndChar

StartChar: u
Encoding: 117 117 88
Width: 627
Flags: HMW
HStem: -10 141<120 292.5 259.5 487> 491 20G<77 275 275 275 381 579 579 579>
VStem: 24 205<82.5 184.5>
LayerCount: 2
Fore
SplineSet
579 511 m 1,0,1
 527 152.473684211 527 152.473684211 527 139.236842105 c 128,-1,2
 527 126 527 126 535 118.5 c 128,-1,3
 543 111 543 111 555.5 111 c 0,4,5
 568.4 111 568.4 111 590 120 c 1,6,-1
 575 13 l 1,7,8
 563 5 563 5 547 1 c 1,9,10
 517 -10 517 -10 471 -10 c 0,11,12
 352 -10 352 -10 335 71 c 1,13,14
 272 -10 272 -10 168 -10 c 0,15,16
 99 -10 99 -10 61.5 26 c 128,-1,17
 24 62 24 62 24 119 c 0,18,19
 24 138 24 138 42.5 274.5 c 128,-1,20
 61 411 61 411 77 511 c 1,21,-1
 275 511 l 1,22,-1
 252 352 l 1,23,24
 229 210 229 210 229 184.5 c 128,-1,25
 229 159 229 159 241 145 c 128,-1,26
 253 131 253 131 276.5 131 c 128,-1,27
 300 131 300 131 316 148 c 128,-1,28
 332 165 332 165 336 191 c 2,29,-1
 381 511 l 1,30,-1
 579 511 l 1,0,1
EndSplineSet
EndChar

StartChar: v
Encoding: 118 118 89
Width: 558
Flags: HMW
HStem: 0 21G<121 121 121 350> 491 20G<27 238 238 238 395 588 588 588>
LayerCount: 2
Fore
SplineSet
121 0 m 1,0,-1
 27 511 l 1,1,-1
 238 511 l 1,2,-1
 272 219 l 1,3,-1
 279 219 l 1,4,-1
 395 511 l 1,5,-1
 588 511 l 1,6,-1
 350 0 l 1,7,-1
 121 0 l 1,0,-1
EndSplineSet
EndChar

StartChar: w
Encoding: 119 119 90
Width: 855
Flags: HMW
HStem: 0 21G<107 107 107 335 440 440 440 664> 491 20G<33 239 239 239 364 564 564 564 689 881 881 881>
LayerCount: 2
Fore
SplineSet
107 0 m 1,0,-1
 33 511 l 1,1,-1
 239 511 l 1,2,-1
 260 253 l 1,3,-1
 267 253 l 1,4,-1
 364 511 l 1,5,-1
 564 511 l 1,6,-1
 588 253 l 1,7,-1
 596 253 l 1,8,-1
 689 511 l 1,9,-1
 881 511 l 1,10,-1
 664 0 l 1,11,-1
 440 0 l 1,12,-1
 421 213 l 1,13,-1
 413 213 l 1,14,-1
 335 0 l 1,15,-1
 107 0 l 1,0,-1
EndSplineSet
EndChar

StartChar: x
Encoding: 120 120 91
Width: 583
Flags: HMW
HStem: 0 21G<-48 164 -48 -48 321 321 321 548> 491 20G<40 267 267 267 395 608 608 608>
LayerCount: 2
Fore
SplineSet
164 0 m 1,0,-1
 -48 0 l 1,1,-1
 159 270 l 1,2,-1
 40 511 l 1,3,-1
 267 511 l 1,4,-1
 313 393 l 1,5,-1
 317 393 l 1,6,-1
 395 511 l 1,7,-1
 608 511 l 1,8,-1
 418 265 l 1,9,-1
 548 0 l 1,10,-1
 321 0 l 1,11,-1
 265 143 l 1,12,-1
 261 143 l 1,13,-1
 164 0 l 1,0,-1
EndSplineSet
EndChar

StartChar: y
Encoding: 121 121 92
Width: 552
Flags: HMW
HStem: -187 130<42 86.5 42 122> 491 20G<26 237 237 237 391 586 586 586>
LayerCount: 2
Fore
SplineSet
-34 -172 m 1,0,-1
 -17 -43 l 1,1,2
 9 -57 9 -57 56 -57 c 0,3,4
 121 -57 121 -57 144 15 c 1,5,-1
 26 511 l 1,6,-1
 237 511 l 1,7,-1
 278 246 l 1,8,-1
 286 246 l 1,9,-1
 391 511 l 1,10,-1
 586 511 l 1,11,-1
 347 36 l 2,12,13
 296 -65 296 -65 222 -126 c 128,-1,14
 148 -187 148 -187 61 -187 c 0,15,16
 -8 -187 -8 -187 -34 -172 c 1,0,-1
EndSplineSet
EndChar

StartChar: z
Encoding: 122 122 93
Width: 497
Flags: HMW
HStem: 0 124<253 433> 387 124<63 223 46 496>
LayerCount: 2
Fore
SplineSet
433 0 m 1,0,-1
 -18 0 l 1,1,-1
 -10 63 l 1,2,-1
 223 387 l 1,3,-1
 46 387 l 1,4,-1
 63 511 l 1,5,-1
 496 511 l 1,6,-1
 488 451 l 1,7,-1
 253 124 l 1,8,-1
 450 124 l 1,9,-1
 433 0 l 1,0,-1
EndSplineSet
EndChar

StartChar: braceleft
Encoding: 123 123 94
Width: 342
Flags: HMW
HStem: -159 21G<143.5 175 175 256> 666 20G<294 375 375 375>
VStem: 49 147<-70.5 -46> 81 134<163.5 194.5>
LayerCount: 2
Fore
SplineSet
11 224 m 1,0,-1
 22 303 l 1,1,2
 51 303 51 303 77.5 317.5 c 128,-1,3
 104 332 104 332 107 360 c 2,4,-1
 137 574 l 2,5,6
 145 628 145 628 191 657 c 128,-1,7
 237 686 237 686 294 686 c 2,8,-1
 375 686 l 1,9,-1
 365 618 l 1,10,11
 293 618 293 618 284 577 c 1,12,-1
 245 371 l 2,13,14
 226 268 226 268 129 268 c 1,15,-1
 128 259 l 1,16,17
 215 259 215 259 215 175 c 0,18,19
 215 152 215 152 205.5 56 c 128,-1,20
 196 -40 196 -40 196 -54 c 0,21,22
 196 -91 196 -91 266 -91 c 1,23,-1
 256 -159 l 1,24,-1
 175 -159 l 2,25,26
 123 -159 123 -159 86 -134.5 c 128,-1,27
 49 -110 49 -110 49 -63 c 0,28,29
 49 -45 49 -45 65 59.5 c 128,-1,30
 81 164 81 164 81 182.5 c 0,31,32
 81 201 81 201 61 212.5 c 128,-1,33
 41 224 41 224 11 224 c 1,0,-1
EndSplineSet
EndChar

StartChar: bar
Encoding: 124 124 95
Width: 291
Flags: HMW
HStem: -199 21G<81 201 81 81> 700 20G<81 201 201 201>
VStem: 81 120<-199 720>
LayerCount: 2
Fore
SplineSet
201 -199 m 1,0,-1
 81 -199 l 1,1,-1
 81 720 l 1,2,-1
 201 720 l 1,3,-1
 201 -199 l 1,0,-1
EndSplineSet
EndChar

StartChar: braceright
Encoding: 125 125 96
Width: 341
Flags: HMW
HStem: -159 21G<-41 39 -41 -41> 666 20G<77 158 158 189.5>
VStem: 118 134<334.5 355.5 334.5 365> 138 146<586 597.5>
LayerCount: 2
Fore
SplineSet
118 351 m 1,0,-1
 138 580 l 1,1,2
 138 618 138 618 67 618 c 1,3,-1
 77 686 l 1,4,-1
 158 686 l 2,5,6
 210 686 210 686 247 661.5 c 128,-1,7
 284 637 284 637 284 590 c 0,8,9
 284 588 284 588 276 522 c 1,10,-1
 260 418 l 1,11,-1
 252 352 l 1,12,13
 252 328 252 328 272.5 315.5 c 128,-1,14
 293 303 293 303 322 303 c 1,15,-1
 310 224 l 1,16,17
 280 224 280 224 254.5 210.5 c 128,-1,18
 229 197 229 197 226 169 c 2,19,-1
 196 -47 l 2,20,21
 188 -101 188 -101 142 -130 c 128,-1,22
 96 -159 96 -159 39 -159 c 2,23,-1
 -41 -159 l 1,24,-1
 -31 -91 l 1,25,26
 41 -91 41 -91 50 -49 c 1,27,-1
 88 156 l 2,28,29
 107 259 107 259 204 259 c 1,30,-1
 205 268 l 1,31,32
 118 268 118 268 118 351 c 1,0,-1
EndSplineSet
EndChar

StartChar: asciitilde
Encoding: 126 126 97
Width: 649
Flags: HMW
HStem: 190 21G<29 29> 202 126<406 455.5> 268 60 268 126<197 247> 386 20G<624 624>
LayerCount: 2
Fore
SplineSet
29 190 m 1,0,-1
 47 316 l 1,1,2
 69.5 337 69.5 337 98 355 c 0,3,4
 164 394 164 394 214 394 c 0,5,6
 264 394 264 394 335 361 c 128,-1,7
 406 328 406 328 458.5 328 c 0,8,9
 511 328 511 328 573 367 c 1,10,11
 601.5 383.5 601.5 383.5 624 406 c 1,12,-1
 606 280 l 1,13,14
 583.5 257.5 583.5 257.5 555 241 c 1,15,16
 493 202 493 202 441 202 c 0,17,18
 389 202 389 202 318 235 c 128,-1,19
 247 268 247 268 196.5 268 c 0,20,21
 146 268 146 268 80 229 c 0,22,23
 51.5 211 51.5 211 29 190 c 1,0,-1
EndSplineSet
EndChar

StartChar: exclamdown
Encoding: 161 161 99
Width: 303
Flags: HMW
HStem: -177 21G<-37 210 -37 -37> 328 183<83 248 57 274>
LayerCount: 2
Fore
SplineSet
210 -177 m 1,0,-1
 -37 -177 l 1,1,-1
 83 278 l 1,2,-1
 210 278 l 1,3,-1
 210 -177 l 1,0,-1
248 328 m 1,4,-1
 57 328 l 1,5,-1
 83 511 l 1,6,-1
 274 511 l 1,7,-1
 248 328 l 1,4,-1
EndSplineSet
EndChar

StartChar: cent
Encoding: 162 162 100
Width: 580
Flags: HMW
HStem: -10 207<285.5 322 191 325> 486 208<317.5 358.5>
VStem: 35 205<239.5 261 239.5 363.5> 400 168<423.5 442.5>
LayerCount: 2
Fore
SplineSet
397 390 m 1,0,-1
 400 425 l 1,1,2
 400 451 400 451 383.5 468.5 c 128,-1,3
 367 486 367 486 337 486 c 128,-1,4
 307 486 307 486 286.5 466.5 c 128,-1,5
 266 447 266 447 262.5 422 c 128,-1,6
 259 397 259 397 251 342 c 1,7,8
 240 281 240 281 240 255.5 c 128,-1,9
 240 230 240 230 257.5 213.5 c 128,-1,10
 275 197 275 197 307 197 c 0,11,12
 354 197 354 197 376 232 c 0,13,14
 387 248 387 248 390 267 c 2,15,-1
 394 293 l 1,16,-1
 552 293 l 1,17,18
 538 199 538 199 477 143.5 c 128,-1,19
 416 88 416 88 322 78 c 1,20,-1
 322 -10 l 1,21,-1
 191 -10 l 1,22,-1
 218 81 l 1,23,24
 129 96 129 96 82 153 c 128,-1,25
 35 210 35 210 35 284 c 0,26,27
 35 408 35 408 101.5 497 c 128,-1,28
 168 586 168 586 290 603 c 1,29,-1
 290 694 l 1,30,-1
 419 694 l 1,31,-1
 395 604 l 1,32,33
 491 591 491 591 529.5 539.5 c 128,-1,34
 568 488 568 488 568 426 c 0,35,36
 568 408 568 408 565 390 c 1,37,-1
 397 390 l 1,0,-1
EndSplineSet
EndChar

StartChar: sterling
Encoding: 163 163 101
Width: 668
Flags: HMW
HStem: 0 147<44 108 285 546 24 108> 266 147<51 125 32 145 343 419> 466 234<467 508 362 666 467 467> 552 148<401 435.5>
VStem: 471 201<511.5 515.5>
LayerCount: 2
Fore
SplineSet
546 0 m 1,0,-1
 24 0 l 1,1,-1
 44 147 l 1,2,-1
 108 147 l 1,3,-1
 125 266 l 1,4,-1
 32 266 l 1,5,-1
 51 413 l 1,6,-1
 145 413 l 1,7,-1
 157 493 l 1,8,9
 169 582 169 582 247 641 c 128,-1,10
 325 700 325 700 433 700 c 0,11,12
 541 700 541 700 606.5 647.5 c 128,-1,13
 672 595 672 595 672 517 c 1,14,-1
 669 484 l 1,15,-1
 666 466 l 1,16,-1
 467 466 l 1,17,-1
 469 478 l 2,18,19
 471 492 471 492 471 507.5 c 0,20,21
 471 523 471 523 457 537.5 c 128,-1,22
 443 552 443 552 417.5 552 c 0,23,24
 392 552 392 552 375.5 536 c 128,-1,25
 359 520 359 520 355 494 c 2,26,-1
 343 413 l 1,27,-1
 439 413 l 1,28,-1
 419 266 l 1,29,-1
 322 266 l 1,30,-1
 285 147 l 1,31,-1
 567 147 l 1,32,-1
 546 0 l 1,0,-1
EndSplineSet
EndChar

StartChar: currency
Encoding: 164 164 102
Width: 607
Flags: HMW
HStem: 80 21G<75 75> 91 110<257.5 303.5> 477 110<318.5 364.5> 583 20G<541 541>
VStem: 59 121<283.5 333.5> 440 121<347 394>
LayerCount: 2
Fore
SplineSet
75 80 m 1,0,-1
 22 141 l 1,1,-1
 88 199 l 1,2,3
 59 237 59 237 59 294 c 128,-1,4
 59 351 59 351 78 401 c 128,-1,5
 97 451 97 451 128 479 c 1,6,-1
 78 537 l 1,7,-1
 150 600 l 1,8,-1
 199 543 l 1,9,10
 253 587 253 587 345 587 c 0,11,12
 386 587 386 587 421.5 575 c 128,-1,13
 457 563 457 563 475 545 c 1,14,-1
 541 603 l 1,15,-1
 600 535 l 1,16,-1
 536 479 l 1,17,18
 561 446 561 446 561 387.5 c 128,-1,19
 561 329 561 329 543.5 279 c 128,-1,20
 526 229 526 229 494 197 c 1,21,-1
 542 141 l 1,22,-1
 474 81 l 1,23,-1
 424 139 l 1,24,25
 370 91 370 91 277 91 c 128,-1,26
 184 91 184 91 140 137 c 1,27,-1
 75 80 l 1,0,-1
224.5 429 m 128,-1,29
 180 381 180 381 180 323.5 c 128,-1,30
 180 266 180 266 210.5 233.5 c 128,-1,31
 241 201 241 201 297 201 c 128,-1,32
 353 201 353 201 396.5 249.5 c 128,-1,33
 440 298 440 298 440 354.5 c 128,-1,34
 440 411 440 411 410 444 c 128,-1,35
 380 477 380 477 324.5 477 c 128,-1,28
 269 477 269 477 224.5 429 c 128,-1,29
EndSplineSet
EndChar

StartChar: yen
Encoding: 165 165 103
Width: 712
Flags: HMW
HStem: 0 21G<208 417 208 208> 224 93<71 224 71 240 58 224 491 637> 364 93<91 168 91 204 77 168 586 656> 666 20G<77 313 313 313 526 741 741 741>
LayerCount: 2
Fore
SplineSet
240 224 m 1,0,-1
 58 224 l 1,1,-1
 71 317 l 1,2,-1
 224 317 l 1,3,-1
 204 364 l 1,4,-1
 77 364 l 1,5,-1
 91 457 l 1,6,-1
 168 457 l 1,7,-1
 77 686 l 1,8,-1
 313 686 l 1,9,-1
 384 461 l 1,10,-1
 389 461 l 1,11,-1
 526 686 l 1,12,-1
 741 686 l 1,13,-1
 586 457 l 1,14,-1
 670 457 l 1,15,-1
 656 364 l 1,16,-1
 523 364 l 1,17,-1
 491 317 l 1,18,-1
 650 317 l 1,19,-1
 637 224 l 1,20,-1
 449 224 l 1,21,-1
 417 0 l 1,22,-1
 208 0 l 1,23,-1
 240 224 l 1,0,-1
EndSplineSet
EndChar

StartChar: brokenbar
Encoding: 166 166 104
Width: 270
Flags: HMW
HStem: 0 21G<19 169 19 19> 666 20G<116 266 266 266>
LayerCount: 2
Fore
SplineSet
169 0 m 1,0,-1
 19 0 l 1,1,-1
 58 274 l 1,2,-1
 208 274 l 1,3,-1
 169 0 l 1,0,-1
227 412 m 1,4,-1
 77 412 l 1,5,-1
 116 686 l 1,6,-1
 266 686 l 1,7,-1
 227 412 l 1,4,-1
EndSplineSet
EndChar

StartChar: section
Encoding: 167 167 105
Width: 568
Flags: HMW
HStem: -185 118<223.5 254 223.5 275.5> -185 160<8 275.5> 533 163<283.5 551 283.5 387> 578 118<309.5 339.5>
VStem: 6 177 24 159<254.5 275.5> 77 177<497 555 497 578> 304 177<-44.5 14> 380 155<209.5 364.5> 380 173
LayerCount: 2
Fore
SplineSet
6 -51 m 2,0,-1
 6 -41 l 2,1,2
 6 -39 6 -39 8 -25 c 1,3,-1
 172 -25 l 1,4,5
 172 -67 172 -67 238 -67 c 128,-1,6
 304 -67 304 -67 304 -26 c 0,7,8
 304 -4 304 -4 275 14.5 c 128,-1,9
 246 33 246 33 205 50.5 c 128,-1,10
 164 68 164 68 123 89.5 c 128,-1,11
 82 111 82 111 53 148 c 128,-1,12
 24 185 24 185 24 239 c 0,13,14
 24 339.551020408 24 339.551020408 126 402 c 1,15,16
 103 417 103 417 90 446 c 128,-1,17
 77 475 77 475 77 516.5 c 128,-1,18
 77 558 77 558 102 596 c 128,-1,19
 127 634 127 634 167.5 655 c 0,20,21
 246.571428571 696 246.571428571 696 337 696 c 0,22,23
 415.965517241 696 415.965517241 696 479.5 668.5 c 0,24,25
 513 654 513 654 533 627 c 128,-1,26
 553 600 553 600 553 563 c 2,27,-1
 553 552 l 2,28,29
 553 551 553 551 551 533 c 1,30,-1
 387 533 l 1,31,32
 387 555 387 555 368.5 566.5 c 128,-1,33
 350 578 350 578 322 578 c 0,34,35
 254 578 254 578 254 537 c 0,36,37
 254 515 254 515 283 496 c 128,-1,38
 312 477 312 477 353 460 c 128,-1,39
 394 443 394 443 435.5 421.5 c 128,-1,40
 477 400 477 400 506 363.5 c 128,-1,41
 535 327 535 327 535 280 c 0,42,43
 535 211 535 211 484 152 c 0,44,45
 460 124 460 124 433 109 c 1,46,47
 481 77 481 77 481 4 c 0,48,49
 481 -47 481 -47 456 -85 c 128,-1,50
 431 -123 431 -123 391 -144 c 0,51,52
 312.904761905 -185 312.904761905 -185 222 -185 c 0,53,54
 169 -185 169 -185 123.5 -174 c 128,-1,55
 78 -163 78 -163 42 -131.5 c 128,-1,56
 6 -100 6 -100 6 -51 c 2,0,-1
183 286 m 128,-1,58
 183 268 183 268 194 252 c 128,-1,59
 205 236 205 236 226.5 222 c 128,-1,60
 248 208 248 208 265.5 199 c 128,-1,61
 283 190 283 190 309.5 179 c 128,-1,62
 336 168 336 168 343 164 c 1,63,64
 353.5 168.5 353.5 168.5 361 176 c 0,65,66
 380 195 380 195 380 218.5 c 128,-1,67
 380 242 380 242 360 263.5 c 128,-1,68
 340 285 340 285 319 296 c 128,-1,69
 298 307 298 307 263 323 c 128,-1,70
 228 339 228 339 221 343 c 1,71,72
 204 336 204 336 193.5 320 c 128,-1,57
 183 304 183 304 183 286 c 128,-1,58
EndSplineSet
EndChar

StartChar: dieresis
Encoding: 168 168 106
Width: 440
Flags: HMW
HStem: 603 147<47 178 26 199 47 246 267 398>
LayerCount: 2
Fore
SplineSet
178 603 m 1,0,-1
 26 603 l 1,1,-1
 47 750 l 1,2,-1
 199 750 l 1,3,-1
 178 603 l 1,0,-1
398 603 m 1,4,-1
 246 603 l 1,5,-1
 267 750 l 1,6,-1
 419 750 l 1,7,-1
 398 603 l 1,4,-1
EndSplineSet
EndChar

StartChar: copyright
Encoding: 169 169 107
Width: 775
Flags: HMW
HStem: -10 65<309.5 479 309.5 492.5> 131 94<339.5 406 397 406 406 409> 131 174<339.5 578 392 578> 380 175<388 578 388 460> 461 94<388 404 404 415> 632 64<309.5 479>
VStem: 41 76<256 431 256 441.5> 202 135<311 375 375 401 268.5 429> 460 118<380 401 401 419.5> 673 76<256 431>
LayerCount: 2
Fore
SplineSet
144 93 m 128,-1,1
 41 196 41 196 41 343 c 128,-1,2
 41 490 41 490 144 593 c 128,-1,3
 247 696 247 696 394 696 c 128,-1,4
 541 696 541 696 645 593 c 128,-1,5
 749 490 749 490 749 343.5 c 128,-1,6
 749 197 749 197 645.5 93.5 c 128,-1,7
 542 -10 542 -10 394.5 -10 c 128,-1,0
 247 -10 247 -10 144 93 c 128,-1,1
192 553.5 m 128,-1,9
 117 475 117 475 117 343.5 c 128,-1,10
 117 212 117 212 192 133.5 c 128,-1,11
 267 55 267 55 394 55 c 128,-1,12
 521 55 521 55 597 133.5 c 128,-1,13
 673 212 673 212 673 343.5 c 128,-1,14
 673 475 673 475 597 553.5 c 128,-1,15
 521 632 521 632 394 632 c 128,-1,8
 267 632 267 632 192 553.5 c 128,-1,9
202 311 m 2,16,-1
 202 375 l 2,17,18
 202 454 202 454 256.5 504.5 c 128,-1,19
 311 555 311 555 388 555 c 2,20,-1
 404 555 l 2,21,22
 481 555 481 555 529.5 510 c 128,-1,23
 578 465 578 465 578 380 c 1,24,-1
 460 380 l 1,25,-1
 460 401 l 2,26,27
 460 428 460 428 442.5 444.5 c 128,-1,28
 425 461 425 461 398.5 461 c 128,-1,29
 372 461 372 461 354.5 443.5 c 128,-1,30
 337 426 337 426 337 401 c 2,31,-1
 337 285 l 2,32,33
 337 260 337 260 354.5 242.5 c 128,-1,34
 372 225 372 225 397 225 c 2,35,-1
 406 225 l 2,36,37
 432 225 432 225 449 241 c 128,-1,38
 466 257 466 257 466 285 c 2,39,-1
 466 305 l 1,40,-1
 578 305 l 1,41,42
 578 226 578 226 530.5 178.5 c 128,-1,43
 483 131 483 131 409 131 c 2,44,-1
 392 131 l 2,45,46
 310 131 310 131 256 179 c 128,-1,47
 202 227 202 227 202 311 c 2,16,-1
EndSplineSet
EndChar

StartChar: ordfeminine
Encoding: 170 170 108
Width: 418
Flags: HMW
HStem: 376 73<128.5 226.5> 621 75<156 246.5> 670 20G<313 403 403 403>
LayerCount: 2
Fore
SplineSet
88 409.5 m 128,-1,1
 63 443 63 443 63 494.5 c 128,-1,2
 63 546 63 546 77 589 c 128,-1,3
 91 632 91 632 125 664 c 128,-1,4
 159 696 159 696 209.5 696 c 128,-1,5
 260 696 260 696 289 653 c 1,6,-1
 293 653 l 1,7,-1
 313 690 l 1,8,-1
 403 690 l 1,9,-1
 381 543 l 2,10,11
 371 478 371 478 371 465 c 0,12,13
 371 448 371 448 387 448 c 0,14,15
 395 448 395 448 409 456 c 1,16,-1
 400 390 l 1,17,18
 370 376 370 376 337.5 376 c 128,-1,19
 305 376 305 376 284.5 385.5 c 128,-1,20
 264 395 264 395 256 423 c 1,21,22
 219 376 219 376 166 376 c 128,-1,0
 113 376 113 376 88 409.5 c 128,-1,1
181 488 m 2,23,-1
 181 484 l 2,24,25
 181 469 181 469 190 459 c 128,-1,26
 199 449 199 449 213 449 c 0,27,28
 251 449 251 449 256 491 c 2,29,-1
 262 534 l 2,30,31
 263 543 263 543 265 555.5 c 0,32,33
 269 580.5 269 580.5 269 586 c 0,34,35
 269 621 269 621 237 621 c 0,36,37
 220 621 220 621 208 608.5 c 128,-1,38
 196 596 196 596 194 578 c 0,39,40
 181 492 181 492 181 488 c 2,23,-1
EndSplineSet
EndChar

StartChar: guillemotleft
Encoding: 171 171 109
Width: 442
Flags: HMW
HStem: 163 21G<132 132 132 206 313 387 313 313> 491 20G<181 255 255 255 362 436 436 436>
LayerCount: 2
Fore
SplineSet
132 163 m 1,0,-1
 37 337 l 1,1,-1
 181 511 l 1,2,-1
 255 511 l 1,3,-1
 146 337 l 1,4,-1
 206 163 l 1,5,-1
 132 163 l 1,0,-1
313 163 m 1,6,-1
 218 337 l 1,7,-1
 362 511 l 1,8,-1
 436 511 l 1,9,-1
 327 337 l 1,10,-1
 387 163 l 1,11,-1
 313 163 l 1,6,-1
EndSplineSet
EndChar

StartChar: logicalnot
Encoding: 172 172 110
Width: 621
Flags: HMW
HStem: 158 21G<401 551 401 401> 334 150<58 425 37 596>
LayerCount: 2
Fore
SplineSet
425 334 m 1,0,-1
 37 334 l 1,1,-1
 58 484 l 1,2,-1
 596 484 l 1,3,-1
 551 158 l 1,4,-1
 401 158 l 1,5,-1
 425 334 l 1,0,-1
EndSplineSet
EndChar

StartChar: uni00AD
Encoding: 173 173 111
Width: 351
Flags: HMW
HStem: 196 158<57 288 35 311>
LayerCount: 2
Fore
SplineSet
288 196 m 1,0,-1
 35 196 l 1,1,-1
 57 354 l 1,2,-1
 311 354 l 1,3,-1
 288 196 l 1,0,-1
EndSplineSet
EndChar

StartChar: registered
Encoding: 174 174 112
Width: 775
Flags: HMW
HStem: -10 65<309.5 479 309.5 492.5> 303 86<353 387 353 416> 459 88<353 353 353 416> 632 64<309.5 479>
VStem: 41 76<256 431 256 441.5> 230 123<135 303 389 459> 441 134 673 76<256 431>
LayerCount: 2
Fore
SplineSet
144 93 m 128,-1,1
 41 196 41 196 41 343 c 128,-1,2
 41 490 41 490 144 593 c 128,-1,3
 247 696 247 696 394 696 c 128,-1,4
 541 696 541 696 645 593 c 128,-1,5
 749 490 749 490 749 343.5 c 128,-1,6
 749 197 749 197 645.5 93.5 c 128,-1,7
 542 -10 542 -10 394.5 -10 c 128,-1,0
 247 -10 247 -10 144 93 c 128,-1,1
192 553.5 m 128,-1,9
 117 475 117 475 117 343.5 c 128,-1,10
 117 212 117 212 192 133.5 c 128,-1,11
 267 55 267 55 394 55 c 128,-1,12
 521 55 521 55 597 133.5 c 128,-1,13
 673 212 673 212 673 343.5 c 128,-1,14
 673 475 673 475 597 553.5 c 128,-1,15
 521 632 521 632 394 632 c 128,-1,8
 267 632 267 632 192 553.5 c 128,-1,9
353 135 m 1,16,-1
 230 135 l 1,17,-1
 230 547 l 1,18,-1
 461 547 l 2,19,20
 507 547 507 547 541 518.5 c 128,-1,21
 575 490 575 490 575 451 c 128,-1,22
 575 412 575 412 554 386 c 128,-1,23
 533 360 533 360 501 354 c 1,24,-1
 500 351 l 1,25,26
 534 340 534 340 550.5 310 c 128,-1,27
 567 280 567 280 567 239 c 0,28,29
 567 173 567 173 597 165 c 1,30,-1
 597 141 l 1,31,32
 569 129 569 129 526 129 c 128,-1,33
 483 129 483 129 462 147 c 128,-1,34
 441 165 441 165 441 207 c 0,35,36
 441 276 441 276 417 294 c 0,37,38
 405 303 405 303 387 303 c 2,39,-1
 353 303 l 1,40,-1
 353 135 l 1,16,-1
353 459 m 1,41,-1
 353 389 l 1,42,-1
 416 389 l 2,43,44
 429 389 429 389 437.5 397.5 c 128,-1,45
 446 406 446 406 446 419 c 2,46,-1
 446 429 l 2,47,48
 446 442 446 442 437.5 450.5 c 128,-1,49
 429 459 429 459 416 459 c 2,50,-1
 353 459 l 1,41,-1
EndSplineSet
EndChar

StartChar: overscore
Encoding: 175 175 113
Width: 460
Flags: HMW
HStem: 662 74<71 389 71 389>
LayerCount: 2
Fore
SplineSet
389 662 m 1,0,-1
 71 662 l 1,1,-1
 71 736 l 1,2,-1
 389 736 l 1,3,-1
 389 662 l 1,0,-1
EndSplineSet
EndChar

StartChar: degree
Encoding: 176 176 114
Width: 354
Flags: HMW
HStem: 396 87<187 221.5 187 237.5> 607 89<202 235>
VStem: 61 87<522.5 556.5 522.5 570.5> 274 90<534.5 569.5>
LayerCount: 2
Fore
SplineSet
97.5 433 m 128,-1,1
 61 470 61 470 61 531.5 c 128,-1,2
 61 593 61 593 113.5 644.5 c 128,-1,3
 166 696 166 696 228 696 c 128,-1,4
 290 696 290 696 327 658.5 c 128,-1,5
 364 621 364 621 364 561 c 128,-1,6
 364 501 364 501 312 448.5 c 128,-1,7
 260 396 260 396 197 396 c 128,-1,0
 134 396 134 396 97.5 433 c 128,-1,1
170.5 586 m 128,-1,9
 148 565 148 565 148 540 c 128,-1,10
 148 515 148 515 163.5 499 c 128,-1,11
 179 483 179 483 205 483 c 128,-1,12
 231 483 231 483 252.5 504 c 128,-1,13
 274 525 274 525 274 551 c 128,-1,14
 274 577 274 577 258.5 592 c 128,-1,15
 243 607 243 607 218 607 c 128,-1,8
 193 607 193 607 170.5 586 c 128,-1,9
EndSplineSet
EndChar

StartChar: plusminus
Encoding: 177 177 115
Width: 615
Flags: HMW
HStem: 0 128<29 523 11 541> 160 240<225 259 67 353 225 225> 272 128<67 241 49 259 67 369 387 561> 272 240<49 402 49 402 369 369 369 402 274 561>
LayerCount: 2
Fore
SplineSet
523 0 m 1,0,-1
 11 0 l 1,1,-1
 29 128 l 1,2,-1
 541 128 l 1,3,-1
 523 0 l 1,0,-1
241 272 m 1,4,-1
 49 272 l 1,5,-1
 67 400 l 1,6,-1
 259 400 l 1,7,-1
 274 512 l 1,8,-1
 402 512 l 1,9,-1
 387 400 l 1,10,-1
 579 400 l 1,11,-1
 561 272 l 1,12,-1
 369 272 l 1,13,-1
 353 160 l 1,14,-1
 225 160 l 1,15,-1
 241 272 l 1,4,-1
EndSplineSet
EndChar

StartChar: uni00B2
Encoding: 178 178 116
Width: 369
Flags: HMW
HStem: 422 90<214 343> 668 136<91 264>
VStem: 270 111<677.5 698.5>
LayerCount: 2
Fore
SplineSet
343 422 m 1,0,-1
 56 422 l 1,1,-1
 58 441 l 2,2,3
 63 495 63 495 114 534 c 2,4,-1
 233 626 l 2,5,6
 270 654 270 654 270 687 c 128,-1,7
 270 720 270 720 239 720 c 2,8,-1
 232 720 l 2,9,10
 216 720 216 720 203 709.5 c 128,-1,11
 190 699 190 699 188 683 c 2,12,-1
 186 668 l 1,13,-1
 91 668 l 1,14,15
 91 710.666666667 91 710.666666667 123.5 754 c 0,16,17
 140 776 140 776 172.5 790 c 128,-1,18
 205 804 205 804 247 804 c 2,19,-1
 264 804 l 2,20,21
 318 804 318 804 349.5 776 c 128,-1,22
 381 748 381 748 381 702 c 0,23,24
 381 623.571428571 381 623.571428571 291 562.5 c 0,25,26
 277 553 277 553 251.5 536.5 c 128,-1,27
 226 520 226 520 214 512 c 1,28,-1
 355 512 l 1,29,-1
 343 422 l 1,0,-1
EndSplineSet
EndChar

StartChar: uni00B3
Encoding: 179 179 117
Width: 354
Flags: HMW
HStem: 413 80<136 201 187 200> 413 118<136 150 55 178 55 200> 578 66<173 218 163 220> 687 114<89 255> 721 80<210.5 255 221 255>
VStem: 262 94 262 109<690.5 698.5>
LayerCount: 2
Fore
SplineSet
52 506 m 0,0,1
 52 515 52 515 55 531 c 1,2,-1
 150 531 l 1,3,4
 150 519 150 519 152 512 c 0,5,6
 157.428571429 493 157.428571429 493 187 493 c 2,7,-1
 201 493 l 2,8,9
 225 493 225 493 238 507.5 c 128,-1,10
 251 522 251 522 251 546 c 0,11,12
 251 578 251 578 218 578 c 2,13,-1
 163 578 l 1,14,-1
 173 644 l 1,15,-1
 220 644 l 2,16,17
 237 644 237 644 249.5 655 c 128,-1,18
 262 666 262 666 262 684.5 c 0,19,20
 262 721 262 721 231 721 c 2,21,-1
 221 721 l 2,22,23
 205 721 205 721 193 711 c 128,-1,24
 181 701 181 701 179 687 c 1,25,-1
 89 687 l 1,26,27
 89 738 89 738 132.5 769.5 c 128,-1,28
 176 801 176 801 239 801 c 2,29,-1
 255 801 l 2,30,31
 308 801 308 801 339.5 776 c 128,-1,32
 371 751 371 751 371 716 c 128,-1,33
 371 681 371 681 352.5 654.5 c 128,-1,34
 334 628 334 628 307 616 c 1,35,36
 356 597 356 597 356 537 c 128,-1,37
 356 477 356 477 309.5 445 c 128,-1,38
 263 413 263 413 200 413 c 2,39,-1
 178 413 l 2,40,41
 117 413 117 413 84.5 439 c 128,-1,42
 52 465 52 465 52 506 c 0,0,1
EndSplineSet
EndChar

StartChar: acute
Encoding: 180 180 118
Width: 333
Flags: HMW
HStem: 575 145<143 149 31 294>
LayerCount: 2
Fore
SplineSet
149 575 m 1,0,-1
 31 575 l 1,1,-1
 143 720 l 1,2,-1
 294 720 l 1,3,-1
 295 717 l 1,4,-1
 149 575 l 1,0,-1
EndSplineSet
EndChar

StartChar: mu
Encoding: 181 181 119
AltUni2: 0003bc.ffffffff.0
Width: 650
Flags: HMW
HStem: -161 21G<-8 190 -8 -8> -10 141<269.5 497> 491 20G<87 285 285 285 391 589 589 589>
LayerCount: 2
Fore
SplineSet
589 511 m 1,0,1
 537 152.473684211 537 152.473684211 537 139.236842105 c 128,-1,2
 537 126 537 126 545 118.5 c 128,-1,3
 553 111 553 111 565.5 111 c 0,4,5
 578.4 111 578.4 111 600 120 c 1,6,-1
 585 13 l 1,7,8
 573 5 573 5 557 1 c 1,9,10
 527 -10 527 -10 481 -10 c 0,11,12
 362 -10 362 -10 345 71 c 1,13,14
 292 1 292 1 205 -8 c 1,15,-1
 205 -18 l 2,16,17
 205 -56 205 -56 201 -83 c 2,18,-1
 190 -161 l 1,19,-1
 -8 -161 l 1,20,-1
 87 511 l 1,21,-1
 285 511 l 1,22,-1
 262 352 l 1,23,24
 239 210 239 210 239 184.5 c 128,-1,25
 239 159 239 159 251 145 c 128,-1,26
 263 131 263 131 286.5 131 c 128,-1,27
 310 131 310 131 326 148 c 128,-1,28
 342 165 342 165 346 191 c 2,29,-1
 391 511 l 1,30,-1
 589 511 l 1,0,1
EndSplineSet
EndChar

StartChar: paragraph
Encoding: 182 182 120
Width: 582
Flags: HMW
HStem: -161 21G<166 254 166 166 330 418 330 330> 607 79<362 438 362 362 526 592 526 526>
LayerCount: 2
Fore
SplineSet
46 437 m 0,0,1
 46 537 46 537 120.5 611.5 c 128,-1,2
 195 686 195 686 294 686 c 2,3,-1
 603 686 l 1,4,-1
 592 607 l 1,5,-1
 526 607 l 1,6,-1
 418 -161 l 1,7,-1
 330 -161 l 1,8,-1
 438 607 l 1,9,-1
 362 607 l 1,10,-1
 254 -161 l 1,11,-1
 166 -161 l 1,12,-1
 224 253 l 1,13,14
 146 255 146 255 96 308 c 128,-1,15
 46 361 46 361 46 437 c 0,0,1
EndSplineSet
EndChar

StartChar: middot
Encoding: 183 183 121
Width: 287
Flags: HMW
HStem: 197 183<60 226 35 251>
LayerCount: 2
Fore
SplineSet
226 197 m 1,0,-1
 35 197 l 1,1,-1
 60 380 l 1,2,-1
 251 380 l 1,3,-1
 226 197 l 1,0,-1
EndSplineSet
EndChar

StartChar: cedilla
Encoding: 184 184 122
Width: 334
Flags: HMW
HStem: -197 58<145.5 172.5 145.5 183> -197 180<160 181 181 183>
VStem: 204 87<-101 -100 -100 -92.5>
LayerCount: 2
Fore
SplineSet
39 -161 m 1,0,-1
 79 -107 l 1,1,2
 85 -114 85 -114 105 -126.5 c 128,-1,3
 125 -139 125 -139 159 -139 c 0,4,5
 204 -139 204 -139 204 -100 c 0,6,7
 204 -76 204 -76 170 -76 c 2,8,-1
 152 -76 l 1,9,-1
 160 -17 l 1,10,-1
 181 -17 l 2,11,12
 291 -17 291 -17 291 -92 c 2,13,-1
 291 -100 l 2,14,15
 291 -105 291 -105 290 -108 c 0,16,17
 285 -142 285 -142 261 -163 c 0,18,19
 222.142857143 -197 222.142857143 -197 151.071428571 -197 c 128,-1,20
 80 -197 80 -197 39 -161 c 1,0,-1
EndSplineSet
EndChar

StartChar: uni00B9
Encoding: 185 185 123
Width: 335
Flags: HMW
HStem: 422 82<69 151 256 322 57 151> 676 62<102 102 102 175 93 102> 776 20G<261 297 297 297>
LayerCount: 2
Fore
SplineSet
322 422 m 1,0,-1
 57 422 l 1,1,-1
 69 504 l 1,2,-1
 151 504 l 1,3,-1
 175 676 l 1,4,-1
 93 676 l 1,5,-1
 102 738 l 1,6,7
 171 742 171 742 261 796 c 1,8,-1
 297 796 l 1,9,-1
 256 504 l 1,10,-1
 334 504 l 1,11,-1
 322 422 l 1,0,-1
EndSplineSet
EndChar

StartChar: ordmasculine
Encoding: 186 186 124
Width: 395
Flags: HMW
HStem: 378 72<208.5 209 209 218> 624 72<244 254 254 254.5>
LayerCount: 2
Fore
SplineSet
99 413 m 128,-1,1
 60 448 60 448 60 515 c 128,-1,2
 60 582 60 582 107.5 639 c 128,-1,3
 155 696 155 696 244 696 c 2,4,-1
 254 696 l 2,5,6
 325 696 325 696 363.5 661 c 128,-1,7
 402 626 402 626 402 567 c 0,8,9
 402 485 402 485 350.5 431.5 c 128,-1,10
 299 378 299 378 218 378 c 2,11,-1
 209 378 l 2,12,0
 138 378 138 378 99 413 c 128,-1,1
189 536 m 2,13,14
 183 490 183 490 183 480.5 c 128,-1,15
 183 471 183 471 193 460.5 c 128,-1,16
 203 450 203 450 220.5 450 c 128,-1,17
 238 450 238 450 250.5 462 c 128,-1,18
 263 474 263 474 266 492 c 2,19,-1
 272 536 l 2,20,21
 273 545 273 545 275 557.5 c 0,22,23
 279 582.5 279 582.5 279 592.25 c 128,-1,24
 279 602 279 602 269 613 c 128,-1,25
 259 624 259 624 242 624 c 128,-1,26
 225 624 225 624 211.5 611.5 c 128,-1,27
 198 599 198 599 196 582 c 2,28,-1
 189 536 l 2,13,14
EndSplineSet
EndChar

StartChar: guillemotright
Encoding: 187 187 125
Width: 443
Flags: HMW
HStem: 163 21G<19 93 19 19 200 200 200 274> 491 20G<68 142 142 142 249 323 323 323>
LayerCount: 2
Fore
SplineSet
93 163 m 1,0,-1
 19 163 l 1,1,-1
 129 337 l 1,2,-1
 68 511 l 1,3,-1
 142 511 l 1,4,-1
 238 337 l 1,5,-1
 93 163 l 1,0,-1
274 163 m 1,6,-1
 200 163 l 1,7,-1
 310 337 l 1,8,-1
 249 511 l 1,9,-1
 323 511 l 1,10,-1
 419 337 l 1,11,-1
 274 163 l 1,6,-1
EndSplineSet
EndChar

StartChar: onequarter
Encoding: 188 188 126
Width: 765
Flags: HMW
HStem: 0 161<543 543 543 566 485 644> 81 80<485 555 667 709> 311 82<51 133 238 304 39 133> 565 62<83 83 83 157 75 83> 665 20G<243 279 279 279> 666 20G<620 706 706 706>
LayerCount: 2
Fore
SplineSet
304 311 m 1,0,-1
 39 311 l 1,1,-1
 51 393 l 1,2,-1
 133 393 l 1,3,-1
 157 565 l 1,4,-1
 75 565 l 1,5,-1
 83 627 l 1,6,7
 153 631 153 631 243 685 c 1,8,-1
 279 685 l 1,9,-1
 238 393 l 1,10,-1
 316 393 l 1,11,-1
 304 311 l 1,0,-1
192 0 m 1,12,-1
 103 0 l 1,13,-1
 620 686 l 1,14,-1
 706 686 l 1,15,-1
 192 0 l 1,12,-1
555 81 m 1,16,-1
 404 81 l 1,17,-1
 415 162 l 1,18,19
 441 198 441 198 478 267 c 128,-1,20
 515 336 515 336 529 375 c 1,21,-1
 624 375 l 1,22,23
 613 335 613 335 567.5 267.5 c 128,-1,24
 522 200 522 200 485 161 c 1,25,-1
 566 161 l 1,26,-1
 574 216 l 1,27,28
 591 236 591 236 615 276.5 c 128,-1,29
 639 317 639 317 647 339 c 1,30,-1
 692 339 l 1,31,-1
 667 161 l 1,32,-1
 720 161 l 1,33,-1
 709 81 l 1,34,-1
 656 81 l 1,35,-1
 644 0 l 1,36,-1
 543 0 l 1,37,-1
 555 81 l 1,16,-1
EndSplineSet
EndChar

StartChar: onehalf
Encoding: 189 189 127
Width: 765
Flags: HMW
HStem: 0 90<567 696> 246 136<444 617> 312 82<48 130 235 301 36 130> 566 62<81 81 81 154 72 81> 666 20G<240 276 276 276 617 703 703 703>
VStem: 623 111<255.5 276.5>
LayerCount: 2
Fore
SplineSet
301 312 m 1,0,-1
 36 312 l 1,1,-1
 48 394 l 1,2,-1
 130 394 l 1,3,-1
 154 566 l 1,4,-1
 72 566 l 1,5,-1
 81 628 l 1,6,7
 150 632 150 632 240 686 c 1,8,-1
 276 686 l 1,9,-1
 235 394 l 1,10,-1
 313 394 l 1,11,-1
 301 312 l 1,0,-1
189 0 m 1,12,-1
 100 0 l 1,13,-1
 617 686 l 1,14,-1
 703 686 l 1,15,-1
 189 0 l 1,12,-1
696 0 m 1,16,-1
 409 0 l 1,17,-1
 411 19 l 2,18,19
 416 73 416 73 467 112 c 2,20,-1
 586 204 l 2,21,22
 623 232 623 232 623 265 c 128,-1,23
 623 298 623 298 592 298 c 2,24,-1
 585 298 l 2,25,26
 569 298 569 298 556 287.5 c 128,-1,27
 543 277 543 277 541 261 c 2,28,-1
 539 246 l 1,29,-1
 444 246 l 1,30,31
 444 288.666666667 444 288.666666667 476.5 332 c 0,32,33
 493 354 493 354 525.5 368 c 128,-1,34
 558 382 558 382 600 382 c 2,35,-1
 617 382 l 2,36,37
 671 382 671 382 702.5 354 c 128,-1,38
 734 326 734 326 734 280 c 0,39,40
 734 201.571428571 734 201.571428571 644 140.5 c 0,41,42
 630 131 630 131 604.5 114.5 c 128,-1,43
 579 98 579 98 567 90 c 1,44,-1
 708 90 l 1,45,-1
 696 0 l 1,16,-1
EndSplineSet
EndChar

StartChar: threequarters
Encoding: 190 190 128
Width: 757
Flags: HMW
HStem: 0 161<536 536 536 558 477 637> 81 80<477 547 659 701> 305 80<127 192 178 191> 305 118<127 141 46 169 46 191> 470 66<164 209 154 211> 579 114<80 246> 613 80<201.5 246 212 246> 666 20G<612 698 698 698>
VStem: 253 94 253 109<582.5 590.5>
LayerCount: 2
Fore
SplineSet
43 398 m 0,0,1
 43 407 43 407 46 423 c 1,2,-1
 141 423 l 1,3,4
 141 411 141 411 143 404 c 0,5,6
 148.428571429 385 148.428571429 385 178 385 c 2,7,-1
 192 385 l 2,8,9
 216 385 216 385 229 399.5 c 128,-1,10
 242 414 242 414 242 438 c 0,11,12
 242 470 242 470 209 470 c 2,13,-1
 154 470 l 1,14,-1
 164 536 l 1,15,-1
 211 536 l 2,16,17
 228 536 228 536 240.5 547 c 128,-1,18
 253 558 253 558 253 576.5 c 0,19,20
 253 613 253 613 222 613 c 2,21,-1
 212 613 l 2,22,23
 196 613 196 613 184 603 c 128,-1,24
 172 593 172 593 170 579 c 1,25,-1
 80 579 l 1,26,27
 80 630 80 630 123.5 661.5 c 128,-1,28
 167 693 167 693 230 693 c 2,29,-1
 246 693 l 2,30,31
 299 693 299 693 330.5 668 c 128,-1,32
 362 643 362 643 362 608 c 128,-1,33
 362 573 362 573 343.5 546.5 c 128,-1,34
 325 520 325 520 298 508 c 1,35,36
 347 489 347 489 347 429 c 128,-1,37
 347 369 347 369 300.5 337 c 128,-1,38
 254 305 254 305 191 305 c 2,39,-1
 169 305 l 2,40,41
 108 305 108 305 75.5 331 c 128,-1,42
 43 357 43 357 43 398 c 0,0,1
185 0 m 1,43,-1
 96 0 l 1,44,-1
 612 686 l 1,45,-1
 698 686 l 1,46,-1
 185 0 l 1,43,-1
547 81 m 1,47,-1
 396 81 l 1,48,-1
 408 162 l 1,49,50
 491 290 491 290 522 375 c 1,51,-1
 617 375 l 1,52,53
 606 335 606 335 560 266.5 c 128,-1,54
 514 198 514 198 477 161 c 1,55,-1
 558 161 l 1,56,-1
 566 216 l 1,57,58
 583 236 583 236 607 276.5 c 128,-1,59
 631 317 631 317 639 339 c 1,60,-1
 684 339 l 1,61,-1
 659 161 l 1,62,-1
 712 161 l 1,63,-1
 701 81 l 1,64,-1
 648 81 l 1,65,-1
 637 0 l 1,66,-1
 536 0 l 1,67,-1
 547 81 l 1,47,-1
EndSplineSet
EndChar

StartChar: questiondown
Encoding: 191 191 129
Width: 578
Flags: HMW
HStem: -186 138<142.5 290.5 200 290.5> -186 249<142.5 521 200 521> 328 183<216 382 191 407>
VStem: -12 212<-4.5 60> 200 137<39 60>
LayerCount: 2
Fore
SplineSet
-12 2 m 0,0,1
 -12 53 -12 53 8.5 93.5 c 128,-1,2
 29 134 29 134 59 159 c 128,-1,3
 89 184 89 184 118.5 202.5 c 128,-1,4
 148 221 148 221 170.5 238 c 128,-1,5
 193 255 193 255 195 270 c 2,6,-1
 198 292 l 1,7,-1
 369 292 l 1,8,-1
 360 233 l 2,9,10
 356 206 356 206 330 177 c 128,-1,11
 304 148 304 148 275.5 127 c 128,-1,12
 247 106 247 106 223.5 75 c 128,-1,13
 200 44 200 44 200 15.5 c 0,14,15
 200 -13 200 -13 215.5 -30.5 c 128,-1,16
 231 -48 231 -48 257 -48 c 0,17,18
 337 -48 337 -48 337 63 c 1,19,-1
 521 63 l 1,20,21
 518 26 518 26 518 25 c 0,22,23
 504 -72 504 -72 426.5 -129 c 128,-1,24
 349 -186 349 -186 238 -186 c 2,25,-1
 200 -186 l 2,26,27
 111 -186 111 -186 49.5 -133.5 c 128,-1,28
 -12 -81 -12 -81 -12 2 c 0,0,1
382 328 m 1,29,-1
 191 328 l 1,30,-1
 216 511 l 1,31,-1
 407 511 l 1,32,-1
 382 328 l 1,29,-1
EndSplineSet
EndChar

StartChar: Agrave
Encoding: 192 192 130
Width: 709
Flags: HMW
HStem: 0 21G<-44 157 -44 -44 456 456 456 674> 122 145<283 405 283 432 214 405> 666 20G<281 542 542 542> 750 145<354 354 354 402 251 472>
LayerCount: 2
Fore
SplineSet
157 0 m 1,0,-1
 -44 0 l 1,1,-1
 281 686 l 1,2,-1
 542 686 l 1,3,-1
 674 0 l 1,4,-1
 456 0 l 1,5,-1
 432 122 l 1,6,-1
 214 122 l 1,7,-1
 157 0 l 1,0,-1
354 750 m 1,8,-1
 248 892 l 1,9,-1
 251 895 l 1,10,-1
 402 895 l 1,11,-1
 472 750 l 1,12,-1
 354 750 l 1,8,-1
371 475 m 1,13,-1
 283 267 l 1,14,-1
 405 267 l 1,15,-1
 376 475 l 1,16,-1
 371 475 l 1,13,-1
EndSplineSet
EndChar

StartChar: Aacute
Encoding: 193 193 131
Width: 709
Flags: HMW
HStem: 0 21G<-44 157 -44 -44 456 456 456 674> 122 145<283 405 283 432 214 405> 666 20G<281 542 542 542> 750 145<468 474 356 619>
LayerCount: 2
Fore
SplineSet
157 0 m 1,0,-1
 -44 0 l 1,1,-1
 281 686 l 1,2,-1
 542 686 l 1,3,-1
 674 0 l 1,4,-1
 456 0 l 1,5,-1
 432 122 l 1,6,-1
 214 122 l 1,7,-1
 157 0 l 1,0,-1
371 475 m 1,8,-1
 283 267 l 1,9,-1
 405 267 l 1,10,-1
 376 475 l 1,11,-1
 371 475 l 1,8,-1
474 750 m 1,12,-1
 356 750 l 1,13,-1
 468 895 l 1,14,-1
 619 895 l 1,15,-1
 620 892 l 1,16,-1
 474 750 l 1,12,-1
EndSplineSet
EndChar

StartChar: Acircumflex
Encoding: 194 194 132
Width: 709
Flags: HMW
HStem: 0 21G<-44 157 -44 -44 456 456 456 674> 122 145<283 405 283 432 214 405> 666 20G<281 542 542 542> 751 145<211 499 487 487 487 499 371 617>
LayerCount: 2
Fore
SplineSet
157 0 m 1,0,-1
 -44 0 l 1,1,-1
 281 686 l 1,2,-1
 542 686 l 1,3,-1
 674 0 l 1,4,-1
 456 0 l 1,5,-1
 432 122 l 1,6,-1
 214 122 l 1,7,-1
 157 0 l 1,0,-1
339 751 m 1,8,-1
 211 751 l 1,9,-1
 371 896 l 1,10,-1
 499 896 l 1,11,-1
 617 751 l 1,12,-1
 487 751 l 1,13,-1
 424 828 l 1,14,-1
 339 751 l 1,8,-1
371 475 m 1,15,-1
 283 267 l 1,16,-1
 405 267 l 1,17,-1
 376 475 l 1,18,-1
 371 475 l 1,15,-1
EndSplineSet
EndChar

StartChar: Atilde
Encoding: 195 195 133
Width: 709
Flags: HMW
HStem: 0 21G<-44 157 -44 -44 456 456 456 674> 122 145<283 405 283 432 214 405> 666 20G<281 542 542 542> 746 103<489 528.5 489 535.5> 786 103<312.5 351.5>
LayerCount: 2
Fore
SplineSet
157 0 m 1,0,-1
 -44 0 l 1,1,-1
 281 686 l 1,2,-1
 542 686 l 1,3,-1
 674 0 l 1,4,-1
 456 0 l 1,5,-1
 432 122 l 1,6,-1
 214 122 l 1,7,-1
 157 0 l 1,0,-1
269 746 m 1,8,-1
 189 746 l 1,9,10
 198 803 198 803 243 846 c 128,-1,11
 288 889 288 889 349 889 c 0,12,13
 382 889 382 889 436 869 c 128,-1,14
 490 849 490 849 516 849 c 0,15,16
 553 849 553 849 572 889 c 1,17,-1
 653 889 l 1,18,19
 644 832 644 832 599 789 c 128,-1,20
 554 746 554 746 492 746 c 0,21,22
 459 746 459 746 404.5 766 c 128,-1,23
 350 786 350 786 325 786 c 0,24,25
 288 786 288 786 269 746 c 1,8,-1
371 475 m 1,26,-1
 283 267 l 1,27,-1
 405 267 l 1,28,-1
 376 475 l 1,29,-1
 371 475 l 1,26,-1
EndSplineSet
EndChar

StartChar: Adieresis
Encoding: 196 196 134
Width: 709
Flags: HMW
HStem: 0 21G<-44 157 -44 -44 456 456 456 674> 122 145<283 405 283 432 214 405> 666 20G<281 542 542 542> 750 147<249 380 228 401 249 448 469 600>
LayerCount: 2
Fore
SplineSet
157 0 m 1,0,-1
 -44 0 l 1,1,-1
 281 686 l 1,2,-1
 542 686 l 1,3,-1
 674 0 l 1,4,-1
 456 0 l 1,5,-1
 432 122 l 1,6,-1
 214 122 l 1,7,-1
 157 0 l 1,0,-1
380 750 m 1,8,-1
 228 750 l 1,9,-1
 249 897 l 1,10,-1
 401 897 l 1,11,-1
 380 750 l 1,8,-1
371 475 m 1,12,-1
 283 267 l 1,13,-1
 405 267 l 1,14,-1
 376 475 l 1,15,-1
 371 475 l 1,12,-1
600 750 m 1,16,-1
 448 750 l 1,17,-1
 469 897 l 1,18,-1
 621 897 l 1,19,-1
 600 750 l 1,16,-1
EndSplineSet
EndChar

StartChar: Aring
Encoding: 197 197 135
Width: 709
Flags: HMW
HStem: 0 21G<-44 157 -44 -44 456 456 456 674> 122 145<283 405 283 432 214 405> 666 20G<281 542 542 542> 736 65<410.5 429.5 410.5 442> 871 66<417.5 438.5>
VStem: 322 67<822.5 842.5 822.5 854> 460 66<826.5 849.5>
LayerCount: 2
Fore
SplineSet
157 0 m 1,0,-1
 -44 0 l 1,1,-1
 281 686 l 1,2,-1
 542 686 l 1,3,-1
 674 0 l 1,4,-1
 456 0 l 1,5,-1
 432 122 l 1,6,-1
 214 122 l 1,7,-1
 157 0 l 1,0,-1
371 475 m 1,8,-1
 283 267 l 1,9,-1
 405 267 l 1,10,-1
 376 475 l 1,11,-1
 371 475 l 1,8,-1
347 760.5 m 128,-1,13
 322 785 322 785 322 827 c 128,-1,14
 322 869 322 869 357 903 c 128,-1,15
 392 937 392 937 434.5 937 c 128,-1,16
 477 937 477 937 501.5 912.5 c 128,-1,17
 526 888 526 888 526 845.5 c 128,-1,18
 526 803 526 803 492 769.5 c 128,-1,19
 458 736 458 736 415 736 c 128,-1,12
 372 736 372 736 347 760.5 c 128,-1,13
400.5 859.5 m 128,-1,21
 389 848 389 848 389 833 c 128,-1,22
 389 818 389 818 397.5 809.5 c 128,-1,23
 406 801 406 801 421 801 c 128,-1,24
 436 801 436 801 448 811 c 128,-1,25
 460 821 460 821 460 840 c 0,26,27
 460 871 460 871 429 871 c 0,28,20
 412 871 412 871 400.5 859.5 c 128,-1,21
EndSplineSet
EndChar

StartChar: AE
Encoding: 198 198 136
Width: 1011
Flags: HMW
HStem: 0 164<656 942 656 942> 122 145<311 433 311 439 221 433> 275 153<650 950 650 650> 528 158<637 997 637 637>
VStem: 433 206
LayerCount: 2
Fore
SplineSet
146 0 m 1,0,-1
 -53 0 l 1,1,-1
 368 686 l 1,2,-1
 1039 686 l 1,3,-1
 997 528 l 1,4,-1
 637 528 l 1,5,-1
 642 428 l 1,6,-1
 971 428 l 1,7,-1
 950 275 l 1,8,-1
 650 275 l 1,9,-1
 656 164 l 1,10,-1
 942 164 l 1,11,-1
 942 0 l 1,12,-1
 446 0 l 1,13,-1
 439 122 l 1,14,-1
 221 122 l 1,15,-1
 146 0 l 1,0,-1
428 475 m 1,16,-1
 311 267 l 1,17,-1
 433 267 l 1,18,-1
 433 475 l 1,19,-1
 428 475 l 1,16,-1
EndSplineSet
EndChar

StartChar: Ccedilla
Encoding: 199 199 137
Width: 684
Flags: HMW
HStem: -197 58<261.5 288.5 261.5 299> -197 180<276 297 297 299> -10 157<226.5 351 307 351> 540 156<358 426 392 426>
VStem: 27 223<208.5 233 233 240 208.5 250> 320 87<-101 -100 -100 -92.5> 484 195<450.5 457 457 483>
LayerCount: 2
Fore
SplineSet
27 242 m 0,0,1
 27 257 27 257 45.5 393.5 c 128,-1,2
 64 530 64 530 162.5 613 c 128,-1,3
 261 696 261 696 398 696 c 2,4,-1
 426 696 l 2,5,6
 540 696 540 696 609.5 635 c 128,-1,7
 679 574 679 574 679 460 c 0,8,9
 679 430 679 430 675 405 c 1,10,-1
 478 405 l 1,11,-1
 483 440 l 2,12,13
 484 443 484 443 484 448 c 2,14,-1
 484 457 l 2,15,16
 484 495 484 495 460 517.5 c 128,-1,17
 436 540 436 540 397 540 c 2,18,-1
 392 540 l 2,19,20
 343 540 343 540 313.5 512 c 128,-1,21
 284 484 284 484 278 440 c 2,22,-1
 251 247 l 2,23,24
 250 244 250 244 250 240 c 2,25,-1
 250 233 l 2,26,27
 250 196 250 196 274.5 171.5 c 128,-1,28
 299 147 299 147 337 147 c 2,29,-1
 351 147 l 2,30,31
 448 147 448 147 465 247 c 1,32,-1
 470 280 l 1,33,-1
 658 280 l 1,34,35
 638 144 638 144 553.5 67 c 128,-1,36
 469 -10 469 -10 335 -10 c 2,37,-1
 307 -10 l 2,38,39
 183 -10 183 -10 105 57 c 128,-1,40
 27 124 27 124 27 242 c 0,0,1
155 -161 m 1,41,-1
 195 -107 l 1,42,43
 201 -114 201 -114 221 -126.5 c 128,-1,44
 241 -139 241 -139 275 -139 c 0,45,46
 320 -139 320 -139 320 -100 c 0,47,48
 320 -76 320 -76 286 -76 c 2,49,-1
 268 -76 l 1,50,-1
 276 -17 l 1,51,-1
 297 -17 l 2,52,53
 407 -17 407 -17 407 -92 c 2,54,-1
 407 -100 l 2,55,56
 407 -105 407 -105 406 -108 c 0,57,58
 401 -142 401 -142 377 -163 c 0,59,60
 338.142857143 -197 338.142857143 -197 267.071428571 -197 c 128,-1,61
 196 -197 196 -197 155 -161 c 1,41,-1
EndSplineSet
EndChar

StartChar: Egrave
Encoding: 200 200 138
Width: 600
Flags: HMW
HStem: 0 164<245 531 245 531> 275 153<282 539 261 560> 528 158<297 586 297 297> 751 145<322 322 322 370 219 440>
LayerCount: 2
Fore
SplineSet
531 0 m 1,0,-1
 16 0 l 1,1,-1
 113 686 l 1,2,-1
 628 686 l 1,3,-1
 586 528 l 1,4,-1
 297 528 l 1,5,-1
 282 428 l 1,6,-1
 560 428 l 1,7,-1
 539 275 l 1,8,-1
 261 275 l 1,9,-1
 245 164 l 1,10,-1
 531 164 l 1,11,-1
 531 0 l 1,0,-1
322 751 m 1,12,-1
 216 893 l 1,13,-1
 219 896 l 1,14,-1
 370 896 l 1,15,-1
 440 751 l 1,16,-1
 322 751 l 1,12,-1
EndSplineSet
EndChar

StartChar: Eacute
Encoding: 201 201 139
Width: 600
Flags: HMW
HStem: 0 164<245 531 245 531> 275 153<282 539 261 560> 528 158<297 586 297 297> 750 145<420 426 308 571>
LayerCount: 2
Fore
SplineSet
531 0 m 1,0,-1
 16 0 l 1,1,-1
 113 686 l 1,2,-1
 628 686 l 1,3,-1
 586 528 l 1,4,-1
 297 528 l 1,5,-1
 282 428 l 1,6,-1
 560 428 l 1,7,-1
 539 275 l 1,8,-1
 261 275 l 1,9,-1
 245 164 l 1,10,-1
 531 164 l 1,11,-1
 531 0 l 1,0,-1
426 750 m 1,12,-1
 308 750 l 1,13,-1
 420 895 l 1,14,-1
 571 895 l 1,15,-1
 572 892 l 1,16,-1
 426 750 l 1,12,-1
EndSplineSet
EndChar

StartChar: Ecircumflex
Encoding: 202 202 140
Width: 600
Flags: HMW
HStem: 0 164<245 531 245 531> 275 153<282 539 261 560> 528 158<297 586 297 297> 751 145<176 464 452 452 452 464 336 582>
LayerCount: 2
Fore
SplineSet
531 0 m 1,0,-1
 16 0 l 1,1,-1
 113 686 l 1,2,-1
 628 686 l 1,3,-1
 586 528 l 1,4,-1
 297 528 l 1,5,-1
 282 428 l 1,6,-1
 560 428 l 1,7,-1
 539 275 l 1,8,-1
 261 275 l 1,9,-1
 245 164 l 1,10,-1
 531 164 l 1,11,-1
 531 0 l 1,0,-1
304 751 m 1,12,-1
 176 751 l 1,13,-1
 336 896 l 1,14,-1
 464 896 l 1,15,-1
 582 751 l 1,16,-1
 452 751 l 1,17,-1
 389 828 l 1,18,-1
 304 751 l 1,12,-1
EndSplineSet
EndChar

StartChar: Edieresis
Encoding: 203 203 141
Width: 600
Flags: HMW
HStem: 0 164<245 531 245 531> 275 153<282 539 261 560> 528 158<297 586 297 297> 751 147<204 335 183 356 204 403 424 555>
LayerCount: 2
Fore
SplineSet
531 0 m 1,0,-1
 16 0 l 1,1,-1
 113 686 l 1,2,-1
 628 686 l 1,3,-1
 586 528 l 1,4,-1
 297 528 l 1,5,-1
 282 428 l 1,6,-1
 560 428 l 1,7,-1
 539 275 l 1,8,-1
 261 275 l 1,9,-1
 245 164 l 1,10,-1
 531 164 l 1,11,-1
 531 0 l 1,0,-1
335 751 m 1,12,-1
 183 751 l 1,13,-1
 204 898 l 1,14,-1
 356 898 l 1,15,-1
 335 751 l 1,12,-1
555 751 m 1,16,-1
 403 751 l 1,17,-1
 424 898 l 1,18,-1
 576 898 l 1,19,-1
 555 751 l 1,16,-1
EndSplineSet
EndChar

StartChar: Igrave
Encoding: 204 204 142
Width: 446
Flags: HMW
HStem: 0 148<16 97 309 369 -5 97> 539 147<92 152 71 466 364 364 364 445> 750 145<220 220 220 268 117 338>
LayerCount: 2
Fore
SplineSet
369 0 m 1,0,-1
 -5 0 l 1,1,-1
 16 148 l 1,2,-1
 97 148 l 1,3,-1
 152 539 l 1,4,-1
 71 539 l 1,5,-1
 92 686 l 1,6,-1
 466 686 l 1,7,-1
 445 539 l 1,8,-1
 364 539 l 1,9,-1
 309 148 l 1,10,-1
 390 148 l 1,11,-1
 369 0 l 1,0,-1
220 750 m 1,12,-1
 114 892 l 1,13,-1
 117 895 l 1,14,-1
 268 895 l 1,15,-1
 338 750 l 1,16,-1
 220 750 l 1,12,-1
EndSplineSet
EndChar

StartChar: Iacute
Encoding: 205 205 143
Width: 446
Flags: HMW
HStem: 0 148<16 97 309 369 -5 97> 539 147<92 152 71 466 364 364 364 445> 750 145<336 342 224 487>
LayerCount: 2
Fore
SplineSet
369 0 m 1,0,-1
 -5 0 l 1,1,-1
 16 148 l 1,2,-1
 97 148 l 1,3,-1
 152 539 l 1,4,-1
 71 539 l 1,5,-1
 92 686 l 1,6,-1
 466 686 l 1,7,-1
 445 539 l 1,8,-1
 364 539 l 1,9,-1
 309 148 l 1,10,-1
 390 148 l 1,11,-1
 369 0 l 1,0,-1
342 750 m 1,12,-1
 224 750 l 1,13,-1
 336 895 l 1,14,-1
 487 895 l 1,15,-1
 488 892 l 1,16,-1
 342 750 l 1,12,-1
EndSplineSet
EndChar

StartChar: Icircumflex
Encoding: 206 206 144
Width: 446
Flags: HMW
HStem: 0 148<16 97 309 369 -5 97> 539 147<92 152 71 466 364 364 364 445> 750 145<81 369 357 357 357 369 241 487>
LayerCount: 2
Fore
SplineSet
369 0 m 1,0,-1
 -5 0 l 1,1,-1
 16 148 l 1,2,-1
 97 148 l 1,3,-1
 152 539 l 1,4,-1
 71 539 l 1,5,-1
 92 686 l 1,6,-1
 466 686 l 1,7,-1
 445 539 l 1,8,-1
 364 539 l 1,9,-1
 309 148 l 1,10,-1
 390 148 l 1,11,-1
 369 0 l 1,0,-1
209 750 m 1,12,-1
 81 750 l 1,13,-1
 241 895 l 1,14,-1
 369 895 l 1,15,-1
 487 750 l 1,16,-1
 357 750 l 1,17,-1
 294 827 l 1,18,-1
 209 750 l 1,12,-1
EndSplineSet
EndChar

StartChar: Idieresis
Encoding: 207 207 145
Width: 446
Flags: HMW
HStem: 0 148<16 97 309 369 -5 97> 539 147<92 152 71 466 364 364 364 445> 750 147<119 250 98 271 119 318 339 470>
LayerCount: 2
Fore
SplineSet
369 0 m 1,0,-1
 -5 0 l 1,1,-1
 16 148 l 1,2,-1
 97 148 l 1,3,-1
 152 539 l 1,4,-1
 71 539 l 1,5,-1
 92 686 l 1,6,-1
 466 686 l 1,7,-1
 445 539 l 1,8,-1
 364 539 l 1,9,-1
 309 148 l 1,10,-1
 390 148 l 1,11,-1
 369 0 l 1,0,-1
250 750 m 1,12,-1
 98 750 l 1,13,-1
 119 897 l 1,14,-1
 271 897 l 1,15,-1
 250 750 l 1,12,-1
470 750 m 1,16,-1
 318 750 l 1,17,-1
 339 897 l 1,18,-1
 491 897 l 1,19,-1
 470 750 l 1,16,-1
EndSplineSet
EndChar

StartChar: Eth
Encoding: 208 208 146
Width: 718
Flags: HMW
HStem: 0 159<272 346> 297 94<18 79 5 92 304 368> 530 156<324 401 324 324>
VStem: 488 216<443 467.5>
LayerCount: 2
Fore
SplineSet
79 297 m 1,0,-1
 5 297 l 1,1,-1
 18 391 l 1,2,-1
 92 391 l 1,3,-1
 134 686 l 1,4,-1
 443 686 l 2,5,6
 556 686 556 686 630 612 c 128,-1,7
 704 538 704 538 704 428 c 0,8,9
 704 407 704 407 701 386 c 2,10,-1
 688 300 l 2,11,12
 669 170 669 170 578 85 c 128,-1,13
 487 0 487 0 346 0 c 2,14,-1
 37 0 l 1,15,-1
 79 297 l 1,0,-1
291 297 m 1,16,-1
 272 159 l 1,17,-1
 349 159 l 2,18,19
 398 159 398 159 427.5 187 c 128,-1,20
 457 215 457 215 463 259 c 2,21,-1
 487 430 l 1,22,-1
 488 443 l 1,23,24
 488 480 488 480 463.5 505 c 128,-1,25
 439 530 439 530 401 530 c 2,26,-1
 324 530 l 1,27,-1
 304 391 l 1,28,-1
 381 391 l 1,29,-1
 368 297 l 1,30,-1
 291 297 l 1,16,-1
EndSplineSet
EndChar

StartChar: Ntilde
Encoding: 209 209 147
Width: 696
Flags: HMW
HStem: 0 21G<16 209 16 16 418 418 418 598> 666 20G<113 289 289 289 501 695 695 695> 746 103<493 532.5 493 539.5> 786 103<316.5 355.5>
LayerCount: 2
Fore
SplineSet
209 0 m 1,0,-1
 16 0 l 1,1,-1
 113 686 l 1,2,-1
 289 686 l 1,3,-1
 429 431 l 1,4,-1
 457 375 l 1,5,-1
 501 686 l 1,6,-1
 695 686 l 1,7,-1
 598 0 l 1,8,-1
 418 0 l 1,9,-1
 282 246 l 1,10,11
 271 268 271 268 265 278 c 2,12,-1
 252 304 l 1,13,-1
 209 0 l 1,0,-1
273 746 m 1,14,-1
 193 746 l 1,15,16
 202 803 202 803 247 846 c 128,-1,17
 292 889 292 889 353 889 c 0,18,19
 386 889 386 889 440 869 c 128,-1,20
 494 849 494 849 520 849 c 0,21,22
 557 849 557 849 576 889 c 1,23,-1
 657 889 l 1,24,25
 648 832 648 832 603 789 c 128,-1,26
 558 746 558 746 496 746 c 0,27,28
 463 746 463 746 408.5 766 c 128,-1,29
 354 786 354 786 329 786 c 0,30,31
 292 786 292 786 273 746 c 1,14,-1
EndSplineSet
EndChar

StartChar: Ograve
Encoding: 210 210 148
Width: 719
Flags: HMW
HStem: -10 157<213 342 337 342 342 345> 540 154<388 392 392 397> 750 145<357 357 357 405 254 475>
VStem: 28 222<208.5 233 233 240 208.5 262.5> 484 221<451 478>
LayerCount: 2
Fore
SplineSet
28 248 m 0,0,1
 28 261 28 261 46.5 391.5 c 0,2,3
 65 522 65 522 158.5 608 c 128,-1,4
 252 694 252 694 388 694 c 2,5,-1
 444 694 l 2,6,7
 557 694 557 694 631 620 c 128,-1,8
 705 546 705 546 705 436 c 0,9,10
 705 423 705 423 686.5 292 c 0,11,12
 668 161 668 161 575 75.5 c 128,-1,13
 482 -10 482 -10 345 -10 c 2,14,-1
 289 -10 l 2,15,16
 176 -10 176 -10 102 64 c 128,-1,17
 28 138 28 138 28 248 c 0,0,1
250 240 m 2,18,-1
 250 233 l 2,19,20
 250 196 250 196 274.5 171.5 c 128,-1,21
 299 147 299 147 337 147 c 2,22,-1
 342 147 l 2,23,24
 391 147 391 147 420.5 175 c 128,-1,25
 450 203 450 203 456 247 c 2,26,-1
 483 440 l 2,27,28
 484 443 484 443 484 454 c 0,29,30
 484 490 484 490 459.5 515 c 128,-1,31
 435 540 435 540 397 540 c 2,32,-1
 392 540 l 2,33,34
 343 540 343 540 313.5 512 c 128,-1,35
 284 484 284 484 278 440 c 2,36,-1
 251 247 l 2,37,38
 250 244 250 244 250 240 c 2,18,-1
357 750 m 1,39,-1
 251 892 l 1,40,-1
 254 895 l 1,41,-1
 405 895 l 1,42,-1
 475 750 l 1,43,-1
 357 750 l 1,39,-1
EndSplineSet
EndChar

StartChar: Oacute
Encoding: 211 211 149
Width: 719
Flags: HMW
HStem: -10 157<213 342 337 342 342 345> 540 154<388 392 392 397> 750 145<482 488 370 633>
VStem: 28 222<208.5 233 233 240 208.5 262.5> 484 221<451 478>
LayerCount: 2
Fore
SplineSet
28 248 m 0,0,1
 28 261 28 261 46.5 391.5 c 0,2,3
 65 522 65 522 158.5 608 c 128,-1,4
 252 694 252 694 388 694 c 2,5,-1
 444 694 l 2,6,7
 557 694 557 694 631 620 c 128,-1,8
 705 546 705 546 705 436 c 0,9,10
 705 423 705 423 686.5 292 c 0,11,12
 668 161 668 161 575 75.5 c 128,-1,13
 482 -10 482 -10 345 -10 c 2,14,-1
 289 -10 l 2,15,16
 176 -10 176 -10 102 64 c 128,-1,17
 28 138 28 138 28 248 c 0,0,1
250 240 m 2,18,-1
 250 233 l 2,19,20
 250 196 250 196 274.5 171.5 c 128,-1,21
 299 147 299 147 337 147 c 2,22,-1
 342 147 l 2,23,24
 391 147 391 147 420.5 175 c 128,-1,25
 450 203 450 203 456 247 c 2,26,-1
 483 440 l 2,27,28
 484 443 484 443 484 454 c 0,29,30
 484 490 484 490 459.5 515 c 128,-1,31
 435 540 435 540 397 540 c 2,32,-1
 392 540 l 2,33,34
 343 540 343 540 313.5 512 c 128,-1,35
 284 484 284 484 278 440 c 2,36,-1
 251 247 l 2,37,38
 250 244 250 244 250 240 c 2,18,-1
488 750 m 1,39,-1
 370 750 l 1,40,-1
 482 895 l 1,41,-1
 633 895 l 1,42,-1
 634 892 l 1,43,-1
 488 750 l 1,39,-1
EndSplineSet
EndChar

StartChar: Ocircumflex
Encoding: 212 212 150
Width: 719
Flags: HMW
HStem: -10 157<213 342 337 342 342 345> 540 154<388 392 392 397> 750 145<222 510 498 498 498 510 382 628>
VStem: 28 222<208.5 233 233 240 208.5 262.5> 484 221<451 478>
LayerCount: 2
Fore
SplineSet
28 248 m 0,0,1
 28 261 28 261 46.5 391.5 c 0,2,3
 65 522 65 522 158.5 608 c 128,-1,4
 252 694 252 694 388 694 c 2,5,-1
 444 694 l 2,6,7
 557 694 557 694 631 620 c 128,-1,8
 705 546 705 546 705 436 c 0,9,10
 705 423 705 423 686.5 292 c 0,11,12
 668 161 668 161 575 75.5 c 128,-1,13
 482 -10 482 -10 345 -10 c 2,14,-1
 289 -10 l 2,15,16
 176 -10 176 -10 102 64 c 128,-1,17
 28 138 28 138 28 248 c 0,0,1
350 750 m 1,18,-1
 222 750 l 1,19,-1
 382 895 l 1,20,-1
 510 895 l 1,21,-1
 628 750 l 1,22,-1
 498 750 l 1,23,-1
 435 827 l 1,24,-1
 350 750 l 1,18,-1
250 240 m 2,25,-1
 250 233 l 2,26,27
 250 196 250 196 274.5 171.5 c 128,-1,28
 299 147 299 147 337 147 c 2,29,-1
 342 147 l 2,30,31
 391 147 391 147 420.5 175 c 128,-1,32
 450 203 450 203 456 247 c 2,33,-1
 483 440 l 2,34,35
 484 443 484 443 484 454 c 0,36,37
 484 490 484 490 459.5 515 c 128,-1,38
 435 540 435 540 397 540 c 2,39,-1
 392 540 l 2,40,41
 343 540 343 540 313.5 512 c 128,-1,42
 284 484 284 484 278 440 c 2,43,-1
 251 247 l 2,44,45
 250 244 250 244 250 240 c 2,25,-1
EndSplineSet
EndChar

StartChar: Otilde
Encoding: 213 213 151
Width: 719
Flags: HMW
HStem: -10 157<213 342 337 342 342 345> 540 154<388 392 392 397> 745 103<510 549.5 510 556.5> 785 103<333.5 372.5>
VStem: 28 222<208.5 233 233 240 208.5 262.5> 484 221<451 478>
LayerCount: 2
Fore
SplineSet
28 248 m 0,0,1
 28 261 28 261 46.5 391.5 c 0,2,3
 65 522 65 522 158.5 608 c 128,-1,4
 252 694 252 694 388 694 c 2,5,-1
 444 694 l 2,6,7
 557 694 557 694 631 620 c 128,-1,8
 705 546 705 546 705 436 c 0,9,10
 705 423 705 423 686.5 292 c 0,11,12
 668 161 668 161 575 75.5 c 128,-1,13
 482 -10 482 -10 345 -10 c 2,14,-1
 289 -10 l 2,15,16
 176 -10 176 -10 102 64 c 128,-1,17
 28 138 28 138 28 248 c 0,0,1
290 745 m 1,18,-1
 210 745 l 1,19,20
 219 802 219 802 264 845 c 128,-1,21
 309 888 309 888 370 888 c 0,22,23
 403 888 403 888 457 868 c 128,-1,24
 511 848 511 848 537 848 c 0,25,26
 574 848 574 848 593 888 c 1,27,-1
 674 888 l 1,28,29
 665 831 665 831 620 788 c 128,-1,30
 575 745 575 745 513 745 c 0,31,32
 480 745 480 745 425.5 765 c 128,-1,33
 371 785 371 785 346 785 c 0,34,35
 309 785 309 785 290 745 c 1,18,-1
250 240 m 2,36,-1
 250 233 l 2,37,38
 250 196 250 196 274.5 171.5 c 128,-1,39
 299 147 299 147 337 147 c 2,40,-1
 342 147 l 2,41,42
 391 147 391 147 420.5 175 c 128,-1,43
 450 203 450 203 456 247 c 2,44,-1
 483 440 l 2,45,46
 484 443 484 443 484 454 c 0,47,48
 484 490 484 490 459.5 515 c 128,-1,49
 435 540 435 540 397 540 c 2,50,-1
 392 540 l 2,51,52
 343 540 343 540 313.5 512 c 128,-1,53
 284 484 284 484 278 440 c 2,54,-1
 251 247 l 2,55,56
 250 244 250 244 250 240 c 2,36,-1
EndSplineSet
EndChar

StartChar: Odieresis
Encoding: 214 214 152
Width: 719
Flags: HMW
HStem: -10 157<213 342 337 342 342 345> 540 154<388 392 392 397> 750 147<264 395 243 416 264 463 484 615>
VStem: 28 222<208.5 233 233 240 208.5 262.5> 484 221<451 478>
LayerCount: 2
Fore
SplineSet
28 248 m 0,0,1
 28 261 28 261 46.5 391.5 c 0,2,3
 65 522 65 522 158.5 608 c 128,-1,4
 252 694 252 694 388 694 c 2,5,-1
 444 694 l 2,6,7
 557 694 557 694 631 620 c 128,-1,8
 705 546 705 546 705 436 c 0,9,10
 705 423 705 423 686.5 292 c 0,11,12
 668 161 668 161 575 75.5 c 128,-1,13
 482 -10 482 -10 345 -10 c 2,14,-1
 289 -10 l 2,15,16
 176 -10 176 -10 102 64 c 128,-1,17
 28 138 28 138 28 248 c 0,0,1
395 750 m 1,18,-1
 243 750 l 1,19,-1
 264 897 l 1,20,-1
 416 897 l 1,21,-1
 395 750 l 1,18,-1
250 240 m 2,22,-1
 250 233 l 2,23,24
 250 196 250 196 274.5 171.5 c 128,-1,25
 299 147 299 147 337 147 c 2,26,-1
 342 147 l 2,27,28
 391 147 391 147 420.5 175 c 128,-1,29
 450 203 450 203 456 247 c 2,30,-1
 483 440 l 2,31,32
 484 443 484 443 484 454 c 0,33,34
 484 490 484 490 459.5 515 c 128,-1,35
 435 540 435 540 397 540 c 2,36,-1
 392 540 l 2,37,38
 343 540 343 540 313.5 512 c 128,-1,39
 284 484 284 484 278 440 c 2,40,-1
 251 247 l 2,41,42
 250 244 250 244 250 240 c 2,22,-1
615 750 m 1,43,-1
 463 750 l 1,44,-1
 484 897 l 1,45,-1
 636 897 l 1,46,-1
 615 750 l 1,43,-1
EndSplineSet
EndChar

StartChar: multiply
Encoding: 215 215 153
Width: 615
Flags: HMW
HStem: 30 21G<134 134 406 406> 462 20G<197 197 469 469>
LayerCount: 2
Fore
SplineSet
134 30 m 1,0,-1
 56 120 l 1,1,-1
 211 256 l 1,2,-1
 95 392 l 1,3,-1
 197 482 l 1,4,-1
 314 347 l 1,5,-1
 469 482 l 1,6,-1
 547 392 l 1,7,-1
 393 256 l 1,8,-1
 508 120 l 1,9,-1
 406 30 l 1,10,-1
 289 165 l 1,11,-1
 134 30 l 1,0,-1
EndSplineSet
EndChar

StartChar: Oslash
Encoding: 216 216 154
Width: 719
Flags: HMW
HStem: -65 21G<4 111 4 4> -10 21G<267.5 289 289 345> 674 20G<388 444 444 464.5> 734 20G<618 726 726 726>
LayerCount: 2
Fore
SplineSet
111 -65 m 1,0,-1
 4 -65 l 1,1,-1
 101 64 l 1,2,3
 28 137 28 137 28 248 c 0,4,5
 28 261 28 261 46.5 391.5 c 0,6,7
 65 522 65 522 158.5 608 c 128,-1,8
 252 694 252 694 388 694 c 2,9,-1
 444 694 l 2,10,11
 502 694 502 694 556 671 c 1,12,-1
 618 754 l 1,13,-1
 726 754 l 1,14,-1
 628 623 l 1,15,16
 705 548 705 548 705 436 c 0,17,18
 705 423 705 423 686.5 292 c 0,19,20
 668 161 668 161 575 75.5 c 128,-1,21
 482 -10 482 -10 345 -10 c 2,22,-1
 289 -10 l 2,23,24
 229 -10 229 -10 171 15 c 1,25,-1
 111 -65 l 1,0,-1
278 440 m 2,26,-1
 254 268 l 1,27,-1
 446 525 l 1,28,29
 423 540 423 540 397 540 c 2,30,-1
 392 540 l 2,31,32
 343 540 343 540 313.5 512 c 128,-1,33
 284 484 284 484 278 440 c 2,26,-1
481 428 m 1,34,-1
 283 164 l 1,35,36
 306 147 306 147 337 147 c 2,37,-1
 342 147 l 2,38,39
 391 147 391 147 420.5 175 c 128,-1,40
 450 203 450 203 456 247 c 2,41,-1
 481 428 l 1,34,-1
EndSplineSet
EndChar

StartChar: Ugrave
Encoding: 217 217 155
Width: 687
Flags: HMW
HStem: -10 156<205.5 352 303.5 323> 666 20G<107 318 318 318 480 690 690 690> 750 145<345 345 345 393 242 463>
VStem: 39 213<123.5 212.5>
LayerCount: 2
Fore
SplineSet
39 182 m 0,0,1
 39 200 39 200 42 218 c 2,2,-1
 107 686 l 1,3,-1
 318 686 l 1,4,-1
 253 221 l 2,5,6
 252 218 252 218 252 210 c 0,7,8
 252 181 252 181 272.5 163.5 c 128,-1,9
 293 146 293 146 324 146 c 0,10,11
 403 146 403 146 415 221 c 1,12,-1
 480 686 l 1,13,-1
 690 686 l 1,14,-1
 625 218 l 1,15,16
 609 111 609 111 532 50.5 c 128,-1,17
 455 -10 455 -10 323 -10 c 2,18,-1
 280 -10 l 2,19,20
 169 -10 169 -10 104 42 c 128,-1,21
 39 94 39 94 39 182 c 0,0,1
345 750 m 1,22,-1
 239 892 l 1,23,-1
 242 895 l 1,24,-1
 393 895 l 1,25,-1
 463 750 l 1,26,-1
 345 750 l 1,22,-1
EndSplineSet
EndChar

StartChar: Uacute
Encoding: 218 218 156
Width: 687
Flags: HMW
HStem: -10 156<205.5 352 303.5 323> 666 20G<107 318 318 318 480 690 690 690> 750 145<457 463 345 608>
VStem: 39 213<123.5 212.5>
LayerCount: 2
Fore
SplineSet
39 182 m 0,0,1
 39 200 39 200 42 218 c 2,2,-1
 107 686 l 1,3,-1
 318 686 l 1,4,-1
 253 221 l 2,5,6
 252 218 252 218 252 210 c 0,7,8
 252 181 252 181 272.5 163.5 c 128,-1,9
 293 146 293 146 324 146 c 0,10,11
 403 146 403 146 415 221 c 1,12,-1
 480 686 l 1,13,-1
 690 686 l 1,14,-1
 625 218 l 1,15,16
 609 111 609 111 532 50.5 c 128,-1,17
 455 -10 455 -10 323 -10 c 2,18,-1
 280 -10 l 2,19,20
 169 -10 169 -10 104 42 c 128,-1,21
 39 94 39 94 39 182 c 0,0,1
463 750 m 1,22,-1
 345 750 l 1,23,-1
 457 895 l 1,24,-1
 608 895 l 1,25,-1
 609 892 l 1,26,-1
 463 750 l 1,22,-1
EndSplineSet
EndChar

StartChar: Ucircumflex
Encoding: 219 219 157
Width: 687
Flags: HMW
HStem: -10 156<205.5 352 303.5 323> 666 20G<107 318 318 318 480 690 690 690> 750 145<203 491 479 479 479 491 363 609>
VStem: 39 213<123.5 212.5>
LayerCount: 2
Fore
SplineSet
39 182 m 0,0,1
 39 200 39 200 42 218 c 2,2,-1
 107 686 l 1,3,-1
 318 686 l 1,4,-1
 253 221 l 2,5,6
 252 218 252 218 252 210 c 0,7,8
 252 181 252 181 272.5 163.5 c 128,-1,9
 293 146 293 146 324 146 c 0,10,11
 403 146 403 146 415 221 c 1,12,-1
 480 686 l 1,13,-1
 690 686 l 1,14,-1
 625 218 l 1,15,16
 609 111 609 111 532 50.5 c 128,-1,17
 455 -10 455 -10 323 -10 c 2,18,-1
 280 -10 l 2,19,20
 169 -10 169 -10 104 42 c 128,-1,21
 39 94 39 94 39 182 c 0,0,1
331 750 m 1,22,-1
 203 750 l 1,23,-1
 363 895 l 1,24,-1
 491 895 l 1,25,-1
 609 750 l 1,26,-1
 479 750 l 1,27,-1
 416 827 l 1,28,-1
 331 750 l 1,22,-1
EndSplineSet
EndChar

StartChar: Udieresis
Encoding: 220 220 158
Width: 687
Flags: HMW
HStem: -10 156<205.5 352 303.5 323> 666 20G<107 318 318 318 480 690 690 690> 750 147<239 370 218 391 239 438 459 590>
VStem: 39 213<123.5 212.5>
LayerCount: 2
Fore
SplineSet
39 182 m 0,0,1
 39 200 39 200 42 218 c 2,2,-1
 107 686 l 1,3,-1
 318 686 l 1,4,-1
 253 221 l 2,5,6
 252 218 252 218 252 210 c 0,7,8
 252 181 252 181 272.5 163.5 c 128,-1,9
 293 146 293 146 324 146 c 0,10,11
 403 146 403 146 415 221 c 1,12,-1
 480 686 l 1,13,-1
 690 686 l 1,14,-1
 625 218 l 1,15,16
 609 111 609 111 532 50.5 c 128,-1,17
 455 -10 455 -10 323 -10 c 2,18,-1
 280 -10 l 2,19,20
 169 -10 169 -10 104 42 c 128,-1,21
 39 94 39 94 39 182 c 0,0,1
370 750 m 1,22,-1
 218 750 l 1,23,-1
 239 897 l 1,24,-1
 391 897 l 1,25,-1
 370 750 l 1,22,-1
590 750 m 1,26,-1
 438 750 l 1,27,-1
 459 897 l 1,28,-1
 611 897 l 1,29,-1
 590 750 l 1,26,-1
EndSplineSet
EndChar

StartChar: Yacute
Encoding: 221 221 159
Width: 644
Flags: HMW
HStem: 0 21G<175 384 175 175> 666 20G<44 280 280 280 493 708 708 708> 750 145<447 453 335 598>
LayerCount: 2
Fore
SplineSet
212 262 m 1,0,-1
 44 686 l 1,1,-1
 280 686 l 1,2,-1
 351 461 l 1,3,-1
 356 461 l 1,4,-1
 493 686 l 1,5,-1
 708 686 l 1,6,-1
 421 262 l 1,7,-1
 384 0 l 1,8,-1
 175 0 l 1,9,-1
 212 262 l 1,0,-1
453 750 m 1,10,-1
 335 750 l 1,11,-1
 447 895 l 1,12,-1
 598 895 l 1,13,-1
 599 892 l 1,14,-1
 453 750 l 1,10,-1
EndSplineSet
EndChar

StartChar: Thorn
Encoding: 222 222 160
Width: 646
Flags: HMW
HStem: 0 21G<16 225 16 16> 146 148<267 370 370 383.5 267 402 246 370> 427 156<285 463 307 388> 666 20G<113 322 322 322>
LayerCount: 2
Fore
SplineSet
225 0 m 1,0,-1
 16 0 l 1,1,-1
 113 686 l 1,2,-1
 322 686 l 1,3,-1
 307 583 l 1,4,-1
 463 583 l 2,5,6
 542 583 542 583 594 531 c 128,-1,7
 646 479 646 479 646 402 c 0,8,9
 646 296 646 296 576 221 c 128,-1,10
 506 146 506 146 402 146 c 2,11,-1
 246 146 l 1,12,-1
 225 0 l 1,0,-1
285 427 m 1,13,-1
 267 294 l 1,14,-1
 370 294 l 2,15,16
 390 294 390 294 407 308.5 c 128,-1,17
 424 323 424 323 427.5 351 c 0,18,19
 431 379 431 379 431 391 c 0,20,21
 431 403 431 403 419 415 c 128,-1,22
 407 427 407 427 388 427 c 2,23,-1
 285 427 l 1,13,-1
EndSplineSet
EndChar

StartChar: germandbls
Encoding: 223 223 161
Width: 652
Flags: HMW
HStem: -66 21G<37 235 37 37> 0 148<301 329 329 343 280 329> 321 122<342 353 325 369> 369 142<56 98 36 118> 579 149<371 405>
VStem: 423 195<221 268.5> 444 194<532.5 537.5>
LayerCount: 2
Fore
SplineSet
98 369 m 1,0,-1
 36 369 l 1,1,-1
 56 511 l 1,2,-1
 118 511 l 1,3,4
 137 618 137 618 221 673 c 128,-1,5
 305 728 305 728 410 728 c 0,6,7
 539.546666667 728 539.546666667 728 602.5 661.5 c 0,8,9
 638 624 638 624 638 568.5 c 128,-1,10
 638 513 638 513 606 464 c 128,-1,11
 574 415 574 415 521 395 c 1,12,-1
 521 390 l 1,13,14
 566 373 566 373 592 333 c 128,-1,15
 618 293 618 293 618 242 c 0,16,17
 618 134 618 134 542 67 c 128,-1,18
 466 0 466 0 343 0 c 2,19,-1
 280 0 l 1,20,-1
 301 148 l 1,21,-1
 329 148 l 2,22,23
 365 148 365 148 394 178 c 128,-1,24
 423 208 423 208 423 243.5 c 128,-1,25
 423 279 423 279 403.5 300 c 128,-1,26
 384 321 384 321 353 321 c 2,27,-1
 325 321 l 1,28,-1
 342 443 l 1,29,-1
 369 443 l 2,30,31
 398 443 398 443 421 466 c 128,-1,32
 444 489 444 489 444 517.5 c 128,-1,33
 444 546 444 546 428.5 562.5 c 128,-1,34
 413 579 413 579 387.5 579 c 128,-1,35
 362 579 362 579 341 559.5 c 128,-1,36
 320 540 320 540 316 511 c 2,37,-1
 235 -66 l 1,38,-1
 37 -66 l 1,39,-1
 98 369 l 1,0,-1
EndSplineSet
EndChar

StartChar: agrave
Encoding: 224 224 162
Width: 628
Flags: HMW
HStem: -10 121<126 287.5> 396 125<171.5 321.5> 491 20G<432 581 581 581> 575 145<291 291 291 339 188 409>
VStem: 17 196<152.5 172 152.5 265>
LayerCount: 2
Fore
SplineSet
17 193 m 0,0,1
 17 310.6 17 310.6 72.5 410.5 c 0,2,3
 100 460 100 460 148 490.5 c 128,-1,4
 196 521 196 521 247 521 c 0,5,6
 349.147058824 521 349.147058824 521 393 450 c 1,7,-1
 398 450 l 1,8,-1
 432 511 l 1,9,-1
 581 511 l 1,10,11
 564 410 564 410 546 281.5 c 128,-1,12
 528 153 528 153 528 137 c 0,13,14
 528 110 528 110 554 110 c 0,15,16
 571 110 571 110 591 123 c 1,17,-1
 576 13 l 1,18,19
 532 -10 532 -10 475.5 -10 c 128,-1,20
 419 -10 419 -10 383.5 6 c 128,-1,21
 348 22 348 22 337 68 c 1,22,23
 310 34 310 34 269.5 12 c 128,-1,24
 229 -10 229 -10 188 -10 c 0,25,26
 100 -10 100 -10 58.5 46 c 128,-1,27
 17 102 17 102 17 193 c 0,0,1
291 575 m 1,28,-1
 185 717 l 1,29,-1
 188 720 l 1,30,-1
 339 720 l 1,31,-1
 409 575 l 1,32,-1
 291 575 l 1,28,-1
213 170 m 0,33,34
 213 144 213 144 228 127.5 c 128,-1,35
 243 111 243 111 270 111 c 128,-1,36
 297 111 297 111 315.5 130.5 c 128,-1,37
 334 150 334 150 338 181 c 2,38,-1
 348 253 l 2,39,40
 359 334 359 334 359 338 c 0,41,42
 359 366 359 366 344.5 381 c 128,-1,43
 330 396 330 396 304.5 396 c 128,-1,44
 279 396 279 396 258.5 376 c 128,-1,45
 238 356 238 356 234 326 c 0,46,47
 213 178 213 178 213 170 c 0,33,34
EndSplineSet
EndChar

StartChar: aacute
Encoding: 225 225 163
Width: 628
Flags: HMW
HStem: -10 121<126 287.5> 396 125<171.5 321.5> 491 20G<432 581 581 581> 575 145<376 382 264 527>
VStem: 17 196<152.5 172 152.5 265>
LayerCount: 2
Fore
SplineSet
17 193 m 0,0,1
 17 310.6 17 310.6 72.5 410.5 c 0,2,3
 100 460 100 460 148 490.5 c 128,-1,4
 196 521 196 521 247 521 c 0,5,6
 349.147058824 521 349.147058824 521 393 450 c 1,7,-1
 398 450 l 1,8,-1
 432 511 l 1,9,-1
 581 511 l 1,10,11
 564 410 564 410 546 281.5 c 128,-1,12
 528 153 528 153 528 137 c 0,13,14
 528 110 528 110 554 110 c 0,15,16
 571 110 571 110 591 123 c 1,17,-1
 576 13 l 1,18,19
 532 -10 532 -10 475.5 -10 c 128,-1,20
 419 -10 419 -10 383.5 6 c 128,-1,21
 348 22 348 22 337 68 c 1,22,23
 310 34 310 34 269.5 12 c 128,-1,24
 229 -10 229 -10 188 -10 c 0,25,26
 100 -10 100 -10 58.5 46 c 128,-1,27
 17 102 17 102 17 193 c 0,0,1
213 170 m 0,28,29
 213 144 213 144 228 127.5 c 128,-1,30
 243 111 243 111 270 111 c 128,-1,31
 297 111 297 111 315.5 130.5 c 128,-1,32
 334 150 334 150 338 181 c 2,33,-1
 348 253 l 2,34,35
 359 334 359 334 359 338 c 0,36,37
 359 366 359 366 344.5 381 c 128,-1,38
 330 396 330 396 304.5 396 c 128,-1,39
 279 396 279 396 258.5 376 c 128,-1,40
 238 356 238 356 234 326 c 0,41,42
 213 178 213 178 213 170 c 0,28,29
382 575 m 1,43,-1
 264 575 l 1,44,-1
 376 720 l 1,45,-1
 527 720 l 1,46,-1
 528 717 l 1,47,-1
 382 575 l 1,43,-1
EndSplineSet
EndChar

StartChar: acircumflex
Encoding: 226 226 164
Width: 628
Flags: HMW
HStem: -10 121<126 287.5> 396 125<171.5 321.5> 491 20G<432 581 581 581> 575 145<148 436 424 424 424 436 308 554>
VStem: 17 196<152.5 172 152.5 265>
LayerCount: 2
Fore
SplineSet
17 193 m 0,0,1
 17 310.6 17 310.6 72.5 410.5 c 0,2,3
 100 460 100 460 148 490.5 c 128,-1,4
 196 521 196 521 247 521 c 0,5,6
 349.147058824 521 349.147058824 521 393 450 c 1,7,-1
 398 450 l 1,8,-1
 432 511 l 1,9,-1
 581 511 l 1,10,11
 564 410 564 410 546 281.5 c 128,-1,12
 528 153 528 153 528 137 c 0,13,14
 528 110 528 110 554 110 c 0,15,16
 571 110 571 110 591 123 c 1,17,-1
 576 13 l 1,18,19
 532 -10 532 -10 475.5 -10 c 128,-1,20
 419 -10 419 -10 383.5 6 c 128,-1,21
 348 22 348 22 337 68 c 1,22,23
 310 34 310 34 269.5 12 c 128,-1,24
 229 -10 229 -10 188 -10 c 0,25,26
 100 -10 100 -10 58.5 46 c 128,-1,27
 17 102 17 102 17 193 c 0,0,1
276 575 m 1,28,-1
 148 575 l 1,29,-1
 308 720 l 1,30,-1
 436 720 l 1,31,-1
 554 575 l 1,32,-1
 424 575 l 1,33,-1
 361 652 l 1,34,-1
 276 575 l 1,28,-1
213 170 m 0,35,36
 213 144 213 144 228 127.5 c 128,-1,37
 243 111 243 111 270 111 c 128,-1,38
 297 111 297 111 315.5 130.5 c 128,-1,39
 334 150 334 150 338 181 c 2,40,-1
 348 253 l 2,41,42
 359 334 359 334 359 338 c 0,43,44
 359 366 359 366 344.5 381 c 128,-1,45
 330 396 330 396 304.5 396 c 128,-1,46
 279 396 279 396 258.5 376 c 128,-1,47
 238 356 238 356 234 326 c 0,48,49
 213 178 213 178 213 170 c 0,35,36
EndSplineSet
EndChar

StartChar: atilde
Encoding: 227 227 165
Width: 628
Flags: HMW
HStem: -10 121<126 287.5> 396 125<171.5 321.5> 491 20G<432 581 581 581> 577 103<422 461.5 422 468.5> 617 103<245.5 284.5>
VStem: 17 196<152.5 172 152.5 265>
LayerCount: 2
Fore
SplineSet
17 193 m 0,0,1
 17 310.6 17 310.6 72.5 410.5 c 0,2,3
 100 460 100 460 148 490.5 c 128,-1,4
 196 521 196 521 247 521 c 0,5,6
 349.147058824 521 349.147058824 521 393 450 c 1,7,-1
 398 450 l 1,8,-1
 432 511 l 1,9,-1
 581 511 l 1,10,11
 564 410 564 410 546 281.5 c 128,-1,12
 528 153 528 153 528 137 c 0,13,14
 528 110 528 110 554 110 c 0,15,16
 571 110 571 110 591 123 c 1,17,-1
 576 13 l 1,18,19
 532 -10 532 -10 475.5 -10 c 128,-1,20
 419 -10 419 -10 383.5 6 c 128,-1,21
 348 22 348 22 337 68 c 1,22,23
 310 34 310 34 269.5 12 c 128,-1,24
 229 -10 229 -10 188 -10 c 0,25,26
 100 -10 100 -10 58.5 46 c 128,-1,27
 17 102 17 102 17 193 c 0,0,1
202 577 m 1,28,-1
 122 577 l 1,29,30
 131 634 131 634 176 677 c 128,-1,31
 221 720 221 720 282 720 c 0,32,33
 315 720 315 720 369 700 c 128,-1,34
 423 680 423 680 449 680 c 0,35,36
 486 680 486 680 505 720 c 1,37,-1
 586 720 l 1,38,39
 577 663 577 663 532 620 c 128,-1,40
 487 577 487 577 425 577 c 0,41,42
 392 577 392 577 337.5 597 c 128,-1,43
 283 617 283 617 258 617 c 0,44,45
 221 617 221 617 202 577 c 1,28,-1
213 170 m 0,46,47
 213 144 213 144 228 127.5 c 128,-1,48
 243 111 243 111 270 111 c 128,-1,49
 297 111 297 111 315.5 130.5 c 128,-1,50
 334 150 334 150 338 181 c 2,51,-1
 348 253 l 2,52,53
 359 334 359 334 359 338 c 0,54,55
 359 366 359 366 344.5 381 c 128,-1,56
 330 396 330 396 304.5 396 c 128,-1,57
 279 396 279 396 258.5 376 c 128,-1,58
 238 356 238 356 234 326 c 0,59,60
 213 178 213 178 213 170 c 0,46,47
EndSplineSet
EndChar

StartChar: adieresis
Encoding: 228 228 166
Width: 628
Flags: HMW
HStem: -10 121<126 287.5> 396 125<171.5 321.5> 491 20G<432 581 581 581> 573 147<197 328 176 349 197 396 417 548>
VStem: 17 196<152.5 172 152.5 265>
LayerCount: 2
Fore
SplineSet
17 193 m 0,0,1
 17 310.6 17 310.6 72.5 410.5 c 0,2,3
 100 460 100 460 148 490.5 c 128,-1,4
 196 521 196 521 247 521 c 0,5,6
 349.147058824 521 349.147058824 521 393 450 c 1,7,-1
 398 450 l 1,8,-1
 432 511 l 1,9,-1
 581 511 l 1,10,11
 564 410 564 410 546 281.5 c 128,-1,12
 528 153 528 153 528 137 c 0,13,14
 528 110 528 110 554 110 c 0,15,16
 571 110 571 110 591 123 c 1,17,-1
 576 13 l 1,18,19
 532 -10 532 -10 475.5 -10 c 128,-1,20
 419 -10 419 -10 383.5 6 c 128,-1,21
 348 22 348 22 337 68 c 1,22,23
 310 34 310 34 269.5 12 c 128,-1,24
 229 -10 229 -10 188 -10 c 0,25,26
 100 -10 100 -10 58.5 46 c 128,-1,27
 17 102 17 102 17 193 c 0,0,1
328 573 m 1,28,-1
 176 573 l 1,29,-1
 197 720 l 1,30,-1
 349 720 l 1,31,-1
 328 573 l 1,28,-1
213 170 m 0,32,33
 213 144 213 144 228 127.5 c 128,-1,34
 243 111 243 111 270 111 c 128,-1,35
 297 111 297 111 315.5 130.5 c 128,-1,36
 334 150 334 150 338 181 c 2,37,-1
 348 253 l 2,38,39
 359 334 359 334 359 338 c 0,40,41
 359 366 359 366 344.5 381 c 128,-1,42
 330 396 330 396 304.5 396 c 128,-1,43
 279 396 279 396 258.5 376 c 128,-1,44
 238 356 238 356 234 326 c 0,45,46
 213 178 213 178 213 170 c 0,32,33
548 573 m 1,47,-1
 396 573 l 1,48,-1
 417 720 l 1,49,-1
 569 720 l 1,50,-1
 548 573 l 1,47,-1
EndSplineSet
EndChar

StartChar: aring
Encoding: 229 229 167
Width: 628
Flags: HMW
HStem: -10 121<126 287.5> 396 125<171.5 321.5> 491 20G<432 581 581 581> 559 65<356.5 375.5 356.5 388> 694 66<363.5 384.5>
VStem: 17 196<152.5 172 152.5 265> 268 67<645.5 665.5 645.5 677> 406 66<649.5 672.5>
LayerCount: 2
Fore
SplineSet
17 193 m 0,0,1
 17 310.6 17 310.6 72.5 410.5 c 0,2,3
 100 460 100 460 148 490.5 c 128,-1,4
 196 521 196 521 247 521 c 0,5,6
 349.147058824 521 349.147058824 521 393 450 c 1,7,-1
 398 450 l 1,8,-1
 432 511 l 1,9,-1
 581 511 l 1,10,11
 564 410 564 410 546 281.5 c 128,-1,12
 528 153 528 153 528 137 c 0,13,14
 528 110 528 110 554 110 c 0,15,16
 571 110 571 110 591 123 c 1,17,-1
 576 13 l 1,18,19
 532 -10 532 -10 475.5 -10 c 128,-1,20
 419 -10 419 -10 383.5 6 c 128,-1,21
 348 22 348 22 337 68 c 1,22,23
 310 34 310 34 269.5 12 c 128,-1,24
 229 -10 229 -10 188 -10 c 0,25,26
 100 -10 100 -10 58.5 46 c 128,-1,27
 17 102 17 102 17 193 c 0,0,1
213 170 m 0,28,29
 213 144 213 144 228 127.5 c 128,-1,30
 243 111 243 111 270 111 c 128,-1,31
 297 111 297 111 315.5 130.5 c 128,-1,32
 334 150 334 150 338 181 c 2,33,-1
 348 253 l 2,34,35
 359 334 359 334 359 338 c 0,36,37
 359 366 359 366 344.5 381 c 128,-1,38
 330 396 330 396 304.5 396 c 128,-1,39
 279 396 279 396 258.5 376 c 128,-1,40
 238 356 238 356 234 326 c 0,41,42
 213 178 213 178 213 170 c 0,28,29
293 583.5 m 128,-1,44
 268 608 268 608 268 650 c 128,-1,45
 268 692 268 692 303 726 c 128,-1,46
 338 760 338 760 380.5 760 c 128,-1,47
 423 760 423 760 447.5 735.5 c 128,-1,48
 472 711 472 711 472 668.5 c 128,-1,49
 472 626 472 626 438 592.5 c 128,-1,50
 404 559 404 559 361 559 c 128,-1,43
 318 559 318 559 293 583.5 c 128,-1,44
346.5 682.5 m 128,-1,52
 335 671 335 671 335 656 c 128,-1,53
 335 641 335 641 343.5 632.5 c 128,-1,54
 352 624 352 624 367 624 c 128,-1,55
 382 624 382 624 394 634 c 128,-1,56
 406 644 406 644 406 663 c 0,57,58
 406 694 406 694 375 694 c 0,59,51
 358 694 358 694 346.5 682.5 c 128,-1,52
EndSplineSet
EndChar

StartChar: ae
Encoding: 230 230 168
Width: 924
Flags: HMW
HStem: -10 121<137 283 594.5 603> -10 202<547.5 881 588 881> 229 87<566 704> 354 167<48 344> 405 116<311 326>
VStem: 1 210<133.5 170.5 133.5 197.5> 706 192<320 356.5>
LayerCount: 2
Fore
SplineSet
362 316 m 1,0,-1
 367 356 l 1,1,2
 367 379 367 379 351 392 c 128,-1,3
 335 405 335 405 310.5 405 c 128,-1,4
 286 405 286 405 263.5 391.5 c 128,-1,5
 241 378 241 378 239 358 c 1,6,-1
 238 354 l 1,7,-1
 48 354 l 1,8,9
 48 424 48 424 122.5 472.5 c 128,-1,10
 197 521 197 521 311 521 c 2,11,-1
 344 521 l 2,12,13
 442 521 442 521 500 487 c 1,14,15
 569 521 569 521 656 521 c 2,16,-1
 681 521 l 2,17,18
 786 521 786 521 842 469 c 128,-1,19
 898 417 898 417 898 330 c 2,20,-1
 898 320 l 1,21,-1
 896 303 l 2,22,23
 895 288 895 288 887 229 c 1,24,-1
 554 229 l 1,25,-1
 547 181 l 2,26,27
 546 178 546 178 546 170 c 0,28,29
 546 142 546 142 565 126.5 c 128,-1,30
 584 111 584 111 616.5 111 c 128,-1,31
 649 111 649 111 671 132.5 c 128,-1,32
 693 154 693 154 698 192 c 1,33,-1
 881 192 l 1,34,35
 869 105 869 105 793.5 47.5 c 128,-1,36
 718 -10 718 -10 603 -10 c 2,37,-1
 588 -10 l 2,38,39
 463 -10 463 -10 395 58 c 1,40,41
 308 -10 308 -10 175 -10 c 0,42,43
 1 -10 1 -10 1 114 c 0,44,45
 1 254 1 254 142 293 c 0,46,47
 225.153846154 316 225.153846154 316 362 316 c 1,0,-1
211 149 m 0,48,49
 211 111 211 111 265 111 c 0,50,51
 293 111 293 111 315.5 130.5 c 128,-1,52
 338 150 338 150 343 181 c 2,53,-1
 349 225 l 1,54,55
 211 225 211 225 211 149 c 0,48,49
705 326 m 2,56,-1
 706 339 l 1,57,58
 706 365 706 365 689.5 382.5 c 128,-1,59
 673 400 673 400 645 400 c 128,-1,60
 617 400 617 400 594.5 380 c 128,-1,61
 572 360 572 360 568 330 c 2,62,-1
 566 316 l 1,63,-1
 704 316 l 1,64,65
 704 323 704 323 705 326 c 2,56,-1
EndSplineSet
EndChar

StartChar: ccedilla
Encoding: 231 231 169
Width: 568
Flags: HMW
HStem: -197 58<213.5 240.5 213.5 251> -197 180<228 249 249 251> -10 121<266.5 306 266.5 336.5> -10 217<179 533> 304 217<378 419.5 224.5 546 378 378> 400 121<298.5 339.5>
VStem: 16 205<153.5 175 153.5 286> 272 87<-101 -100 -100 -92.5> 381 168<337.5 356.5>
LayerCount: 2
Fore
SplineSet
378 304 m 1,0,-1
 381 339 l 1,1,2
 381 365 381 365 364.5 382.5 c 128,-1,3
 348 400 348 400 318 400 c 128,-1,4
 288 400 288 400 267.5 380.5 c 128,-1,5
 247 361 247 361 243.5 336 c 128,-1,6
 240 311 240 311 232 256 c 1,7,8
 221 195 221 195 221 169.5 c 128,-1,9
 221 144 221 144 238.5 127.5 c 128,-1,10
 256 111 256 111 288 111 c 0,11,12
 335 111 335 111 357 146 c 0,13,14
 368 162 368 162 371 181 c 2,15,-1
 375 207 l 1,16,-1
 533 207 l 1,17,18
 517 104 517 104 445.5 47 c 128,-1,19
 374 -10 374 -10 258.5 -10 c 128,-1,20
 143 -10 143 -10 79.5 50 c 128,-1,21
 16 110 16 110 16 198 c 0,22,23
 16 337 16 337 98 429 c 128,-1,24
 180 521 180 521 326 521 c 0,25,26
 392 521 392 521 439 503.5 c 128,-1,27
 486 486 486 486 508.5 456.5 c 0,28,29
 549 403.4 549 403.4 549 340 c 0,30,31
 549 322 549 322 546 304 c 1,32,-1
 378 304 l 1,0,-1
107 -161 m 1,33,-1
 147 -107 l 1,34,35
 153 -114 153 -114 173 -126.5 c 128,-1,36
 193 -139 193 -139 227 -139 c 0,37,38
 272 -139 272 -139 272 -100 c 0,39,40
 272 -76 272 -76 238 -76 c 2,41,-1
 220 -76 l 1,42,-1
 228 -17 l 1,43,-1
 249 -17 l 2,44,45
 359 -17 359 -17 359 -92 c 2,46,-1
 359 -100 l 2,47,48
 359 -105 359 -105 358 -108 c 0,49,50
 353 -142 353 -142 329 -163 c 0,51,52
 290.142857143 -197 290.142857143 -197 218.571428571 -197 c 128,-1,53
 147 -197 147 -197 107 -161 c 1,33,-1
EndSplineSet
EndChar

StartChar: egrave
Encoding: 232 232 170
Width: 600
Flags: HMW
HStem: -10 121<192 314 270.5 279> -10 202<192 557 264 557> 229 87<242 380 242 563 230 380> 400 121<332 340.5> 575 145<289 289 289 337 186 407>
VStem: 16 206<150.5 172.5 150.5 300.5> 382 192<320 356.5>
LayerCount: 2
Fore
SplineSet
16 200 m 0,0,1
 16 348 16 348 103.5 434.5 c 128,-1,2
 191 521 191 521 332 521 c 2,3,-1
 357 521 l 2,4,5
 462 521 462 521 518 469 c 128,-1,6
 574 417 574 417 574 330 c 2,7,-1
 574 320 l 1,8,-1
 572 303 l 2,9,10
 571 288 571 288 563 229 c 1,11,-1
 230 229 l 1,12,-1
 226 204 l 1,13,14
 222 187 222 187 222 164.5 c 128,-1,15
 222 142 222 142 241 126.5 c 128,-1,16
 260 111 260 111 292.5 111 c 128,-1,17
 325 111 325 111 347 132.5 c 128,-1,18
 369 154 369 154 374 192 c 1,19,-1
 557 192 l 1,20,21
 545 105 545 105 469.5 47.5 c 128,-1,22
 394 -10 394 -10 279 -10 c 2,23,-1
 264 -10 l 2,24,25
 154 -10 154 -10 85 46 c 128,-1,26
 16 102 16 102 16 200 c 0,0,1
289 575 m 1,27,-1
 183 717 l 1,28,-1
 186 720 l 1,29,-1
 337 720 l 1,30,-1
 407 575 l 1,31,-1
 289 575 l 1,27,-1
381 323 m 2,32,-1
 382 339 l 1,33,34
 382 365 382 365 365.5 382.5 c 128,-1,35
 349 400 349 400 321.5 400 c 128,-1,36
 294 400 294 400 271 379.5 c 128,-1,37
 248 359 248 359 244 330 c 2,38,-1
 242 316 l 1,39,-1
 380 316 l 1,40,41
 380 320 380 320 381 323 c 2,32,-1
EndSplineSet
EndChar

StartChar: eacute
Encoding: 233 233 171
Width: 600
Flags: HMW
HStem: -10 121<192 314 270.5 279> -10 202<192 557 264 557> 229 87<242 380 242 563 230 380> 400 121<332 340.5> 575 145<397 403 285 548>
VStem: 16 206<150.5 172.5 150.5 300.5> 382 192<320 356.5>
LayerCount: 2
Fore
SplineSet
16 200 m 0,0,1
 16 348 16 348 103.5 434.5 c 128,-1,2
 191 521 191 521 332 521 c 2,3,-1
 357 521 l 2,4,5
 462 521 462 521 518 469 c 128,-1,6
 574 417 574 417 574 330 c 2,7,-1
 574 320 l 1,8,-1
 572 303 l 2,9,10
 571 288 571 288 563 229 c 1,11,-1
 230 229 l 1,12,-1
 226 204 l 1,13,14
 222 187 222 187 222 164.5 c 128,-1,15
 222 142 222 142 241 126.5 c 128,-1,16
 260 111 260 111 292.5 111 c 128,-1,17
 325 111 325 111 347 132.5 c 128,-1,18
 369 154 369 154 374 192 c 1,19,-1
 557 192 l 1,20,21
 545 105 545 105 469.5 47.5 c 128,-1,22
 394 -10 394 -10 279 -10 c 2,23,-1
 264 -10 l 2,24,25
 154 -10 154 -10 85 46 c 128,-1,26
 16 102 16 102 16 200 c 0,0,1
381 323 m 2,27,-1
 382 339 l 1,28,29
 382 365 382 365 365.5 382.5 c 128,-1,30
 349 400 349 400 321.5 400 c 128,-1,31
 294 400 294 400 271 379.5 c 128,-1,32
 248 359 248 359 244 330 c 2,33,-1
 242 316 l 1,34,-1
 380 316 l 1,35,36
 380 320 380 320 381 323 c 2,27,-1
403 575 m 1,37,-1
 285 575 l 1,38,-1
 397 720 l 1,39,-1
 548 720 l 1,40,-1
 549 717 l 1,41,-1
 403 575 l 1,37,-1
EndSplineSet
EndChar

StartChar: ecircumflex
Encoding: 234 234 172
Width: 600
Flags: HMW
HStem: -10 121<192 314 270.5 279> -10 202<192 557 264 557> 229 87<242 380 242 563 230 380> 400 121<332 340.5> 575 145<158 446 434 434 434 446 318 564>
VStem: 16 206<150.5 172.5 150.5 300.5> 382 192<320 356.5>
LayerCount: 2
Fore
SplineSet
16 200 m 0,0,1
 16 348 16 348 103.5 434.5 c 128,-1,2
 191 521 191 521 332 521 c 2,3,-1
 357 521 l 2,4,5
 462 521 462 521 518 469 c 128,-1,6
 574 417 574 417 574 330 c 2,7,-1
 574 320 l 1,8,-1
 572 303 l 2,9,10
 571 288 571 288 563 229 c 1,11,-1
 230 229 l 1,12,-1
 226 204 l 1,13,14
 222 187 222 187 222 164.5 c 128,-1,15
 222 142 222 142 241 126.5 c 128,-1,16
 260 111 260 111 292.5 111 c 128,-1,17
 325 111 325 111 347 132.5 c 128,-1,18
 369 154 369 154 374 192 c 1,19,-1
 557 192 l 1,20,21
 545 105 545 105 469.5 47.5 c 128,-1,22
 394 -10 394 -10 279 -10 c 2,23,-1
 264 -10 l 2,24,25
 154 -10 154 -10 85 46 c 128,-1,26
 16 102 16 102 16 200 c 0,0,1
286 575 m 1,27,-1
 158 575 l 1,28,-1
 318 720 l 1,29,-1
 446 720 l 1,30,-1
 564 575 l 1,31,-1
 434 575 l 1,32,-1
 371 652 l 1,33,-1
 286 575 l 1,27,-1
381 323 m 2,34,-1
 382 339 l 1,35,36
 382 365 382 365 365.5 382.5 c 128,-1,37
 349 400 349 400 321.5 400 c 128,-1,38
 294 400 294 400 271 379.5 c 128,-1,39
 248 359 248 359 244 330 c 2,40,-1
 242 316 l 1,41,-1
 380 316 l 1,42,43
 380 320 380 320 381 323 c 2,34,-1
EndSplineSet
EndChar

StartChar: edieresis
Encoding: 235 235 173
Width: 600
Flags: HMW
HStem: -10 121<192 314 270.5 279> -10 202<192 557 264 557> 229 87<242 380 242 563 230 380> 400 121<332 340.5> 573 147<185 316 164 337 185 384 405 536>
VStem: 16 206<150.5 172.5 150.5 300.5> 382 192<320 356.5>
LayerCount: 2
Fore
SplineSet
16 200 m 0,0,1
 16 348 16 348 103.5 434.5 c 128,-1,2
 191 521 191 521 332 521 c 2,3,-1
 357 521 l 2,4,5
 462 521 462 521 518 469 c 128,-1,6
 574 417 574 417 574 330 c 2,7,-1
 574 320 l 1,8,-1
 572 303 l 2,9,10
 571 288 571 288 563 229 c 1,11,-1
 230 229 l 1,12,-1
 226 204 l 1,13,14
 222 187 222 187 222 164.5 c 128,-1,15
 222 142 222 142 241 126.5 c 128,-1,16
 260 111 260 111 292.5 111 c 128,-1,17
 325 111 325 111 347 132.5 c 128,-1,18
 369 154 369 154 374 192 c 1,19,-1
 557 192 l 1,20,21
 545 105 545 105 469.5 47.5 c 128,-1,22
 394 -10 394 -10 279 -10 c 2,23,-1
 264 -10 l 2,24,25
 154 -10 154 -10 85 46 c 128,-1,26
 16 102 16 102 16 200 c 0,0,1
316 573 m 1,27,-1
 164 573 l 1,28,-1
 185 720 l 1,29,-1
 337 720 l 1,30,-1
 316 573 l 1,27,-1
381 323 m 2,31,-1
 382 339 l 1,32,33
 382 365 382 365 365.5 382.5 c 128,-1,34
 349 400 349 400 321.5 400 c 128,-1,35
 294 400 294 400 271 379.5 c 128,-1,36
 248 359 248 359 244 330 c 2,37,-1
 242 316 l 1,38,-1
 380 316 l 1,39,40
 380 320 380 320 381 323 c 2,31,-1
536 573 m 1,41,-1
 384 573 l 1,42,-1
 405 720 l 1,43,-1
 557 720 l 1,44,-1
 536 573 l 1,41,-1
EndSplineSet
EndChar

StartChar: igrave
Encoding: 236 236 174
Width: 296
Flags: HMW
HStem: 0 21G<9 206 9 9> 491 20G<80 277 277 277> 575 145<154 154 154 202 51 272>
LayerCount: 2
Fore
SplineSet
206 0 m 1,0,-1
 9 0 l 1,1,-1
 80 511 l 1,2,-1
 277 511 l 1,3,-1
 206 0 l 1,0,-1
154 575 m 1,4,-1
 48 717 l 1,5,-1
 51 720 l 1,6,-1
 202 720 l 1,7,-1
 272 575 l 1,8,-1
 154 575 l 1,4,-1
EndSplineSet
EndChar

StartChar: iacute
Encoding: 237 237 175
Width: 296
Flags: HMW
HStem: 0 21G<9 206 9 9> 491 20G<80 277 277 277> 575 145<204 210 92 355>
LayerCount: 2
Fore
SplineSet
206 0 m 1,0,-1
 9 0 l 1,1,-1
 80 511 l 1,2,-1
 277 511 l 1,3,-1
 206 0 l 1,0,-1
210 575 m 1,4,-1
 92 575 l 1,5,-1
 204 720 l 1,6,-1
 355 720 l 1,7,-1
 356 717 l 1,8,-1
 210 575 l 1,4,-1
EndSplineSet
EndChar

StartChar: icircumflex
Encoding: 238 238 176
Width: 296
Flags: HMW
HStem: 0 21G<9 206 9 9> 491 20G<80 277 277 277> 575 145<-18 270 258 258 258 270 142 388>
LayerCount: 2
Fore
SplineSet
110 575 m 1,0,-1
 -18 575 l 1,1,-1
 142 720 l 1,2,-1
 270 720 l 1,3,-1
 388 575 l 1,4,-1
 258 575 l 1,5,-1
 195 652 l 1,6,-1
 110 575 l 1,0,-1
206 0 m 1,7,-1
 9 0 l 1,8,-1
 80 511 l 1,9,-1
 277 511 l 1,10,-1
 206 0 l 1,7,-1
EndSplineSet
EndChar

StartChar: idieresis
Encoding: 239 239 177
Width: 296
Flags: HMW
HStem: 0 21G<9 206 9 9> 491 20G<80 277 277 277> 573 147<22 153 1 174 22 221 242 373>
LayerCount: 2
Fore
SplineSet
153 573 m 1,0,-1
 1 573 l 1,1,-1
 22 720 l 1,2,-1
 174 720 l 1,3,-1
 153 573 l 1,0,-1
206 0 m 1,4,-1
 9 0 l 1,5,-1
 80 511 l 1,6,-1
 277 511 l 1,7,-1
 206 0 l 1,4,-1
373 573 m 1,8,-1
 221 573 l 1,9,-1
 242 720 l 1,10,-1
 394 720 l 1,11,-1
 373 573 l 1,8,-1
EndSplineSet
EndChar

StartChar: eth
Encoding: 240 240 178
Width: 613
Flags: HMW
HStem: -10 121<177 298 262.5 279> 719 20G<270 270>
VStem: 15 205<152.5 172.5 152.5 213> 380 206<330 339 339 356.5>
LayerCount: 2
Fore
SplineSet
15 207 m 0,0,1
 15 226 15 226 18 245 c 2,2,-1
 21 266 l 2,3,4
 35 366 35 366 111.5 432 c 128,-1,5
 188 498 188 498 292 510 c 1,6,7
 290 539 290 539 265 580 c 1,8,-1
 194 549 l 1,9,-1
 143 600 l 1,10,-1
 223 635 l 1,11,12
 188 670 188 670 148 685 c 1,13,-1
 150 689 l 1,14,-1
 270 739 l 1,15,16
 319 722 319 722 358 695 c 1,17,-1
 434 728 l 1,18,-1
 481 677 l 1,19,-1
 418 649 l 1,20,21
 495 581 495 581 540.5 492 c 128,-1,22
 586 403 586 403 586 311 c 0,23,24
 586 288.5 586 288.5 583 266 c 2,25,-1
 580 245 l 2,26,27
 564 132 564 132 479 61 c 128,-1,28
 394 -10 394 -10 279 -10 c 2,29,-1
 247 -10 l 2,30,31
 142 -10 142 -10 78.5 49.5 c 128,-1,32
 15 109 15 109 15 207 c 0,0,1
220 170 m 0,33,34
 220 144 220 144 237 127.5 c 128,-1,35
 254 111 254 111 280.5 111 c 0,36,37
 307 111 307 111 330.5 131.5 c 128,-1,38
 354 152 354 152 359 181 c 2,39,-1
 380 330 l 1,40,-1
 380 339 l 2,41,42
 380 365 380 365 363 382.5 c 128,-1,43
 346 400 346 400 318 400 c 0,44,45
 290 400 290 400 268 380 c 128,-1,46
 246 360 246 360 242 330 c 2,47,-1
 221 181 l 2,48,49
 220 178 220 178 220 170 c 0,33,34
EndSplineSet
EndChar

StartChar: ntilde
Encoding: 241 241 179
Width: 597
Flags: HMW
HStem: 0 21G<8 206 8 8 312 312 312 510> 380 141<294.5 467> 491 20G<80 229 229 229> 577 103<411 450.5 411 457.5> 617 103<234.5 273.5>
VStem: 358 205<326.5 428.5>
LayerCount: 2
Fore
SplineSet
312 0 m 1,0,-1
 358 330 l 1,1,2
 358 352 358 352 346 366 c 128,-1,3
 334 380 334 380 310.5 380 c 128,-1,4
 287 380 287 380 271 363 c 128,-1,5
 255 346 255 346 251 320 c 2,6,-1
 206 0 l 1,7,-1
 8 0 l 1,8,-1
 80 511 l 1,9,-1
 229 511 l 1,10,-1
 238 437 l 1,11,12
 302 521 302 521 419 521 c 0,13,14
 488 521 488 521 525.5 485 c 128,-1,15
 563 449 563 449 563 392 c 0,16,17
 563 372 563 372 546 255 c 2,18,-1
 536 185 l 2,19,20
 528 124 528 124 510 0 c 1,21,-1
 312 0 l 1,0,-1
191 577 m 1,22,-1
 111 577 l 1,23,24
 120 634 120 634 165 677 c 128,-1,25
 210 720 210 720 271 720 c 0,26,27
 304 720 304 720 358 700 c 128,-1,28
 412 680 412 680 438 680 c 0,29,30
 475 680 475 680 494 720 c 1,31,-1
 575 720 l 1,32,33
 566 663 566 663 521 620 c 128,-1,34
 476 577 476 577 414 577 c 0,35,36
 381 577 381 577 326.5 597 c 128,-1,37
 272 617 272 617 247 617 c 0,38,39
 210 617 210 617 191 577 c 1,22,-1
EndSplineSet
EndChar

StartChar: ograve
Encoding: 242 242 180
Width: 613
Flags: HMW
HStem: -10 121<263.5 265 265 280> 400 121<323 340 340 340.5> 575 145<281 281 281 329 178 399>
VStem: 16 205<153.5 172.5 153.5 279.5> 382 205<335 354.5>
LayerCount: 2
Fore
SplineSet
16 205 m 0,0,1
 16 324.208333333 16 324.208333333 89 418.5 c 0,2,3
 125 465 125 465 186 493 c 128,-1,4
 247 521 247 521 323 521 c 2,5,-1
 340 521 l 2,6,7
 458 521 458 521 522.5 462.5 c 128,-1,8
 587 404 587 404 587 305 c 0,9,10
 587 168 587 168 501 79 c 128,-1,11
 415 -10 415 -10 280 -10 c 2,12,-1
 265 -10 l 2,13,14
 145 -10 145 -10 80.5 48.5 c 128,-1,15
 16 107 16 107 16 205 c 0,0,1
281 575 m 1,16,-1
 175 717 l 1,17,-1
 178 720 l 1,18,-1
 329 720 l 1,19,-1
 399 575 l 1,20,-1
 281 575 l 1,16,-1
232 253 m 1,21,22
 221 192 221 192 221 168.5 c 128,-1,23
 221 145 221 145 238 128 c 128,-1,24
 255 111 255 111 284 111 c 128,-1,25
 313 111 313 111 334 130.5 c 128,-1,26
 355 150 355 150 360 181 c 2,27,-1
 371 254 l 1,28,29
 382 335 382 335 382 339 c 0,30,31
 382 363 382 363 365.5 381.5 c 128,-1,32
 349 400 349 400 320.5 400 c 128,-1,33
 292 400 292 400 269.5 379.5 c 128,-1,34
 247 359 247 359 243 333 c 128,-1,35
 239 307 239 307 232 253 c 1,21,22
EndSplineSet
EndChar

StartChar: oacute
Encoding: 243 243 181
Width: 613
Flags: HMW
HStem: -10 121<263.5 265 265 280> 400 121<323 340 340 340.5> 575 145<399 405 287 550>
VStem: 16 205<153.5 172.5 153.5 279.5> 382 205<335 354.5>
LayerCount: 2
Fore
SplineSet
16 205 m 0,0,1
 16 324.208333333 16 324.208333333 89 418.5 c 0,2,3
 125 465 125 465 186 493 c 128,-1,4
 247 521 247 521 323 521 c 2,5,-1
 340 521 l 2,6,7
 458 521 458 521 522.5 462.5 c 128,-1,8
 587 404 587 404 587 305 c 0,9,10
 587 168 587 168 501 79 c 128,-1,11
 415 -10 415 -10 280 -10 c 2,12,-1
 265 -10 l 2,13,14
 145 -10 145 -10 80.5 48.5 c 128,-1,15
 16 107 16 107 16 205 c 0,0,1
232 253 m 1,16,17
 221 192 221 192 221 168.5 c 128,-1,18
 221 145 221 145 238 128 c 128,-1,19
 255 111 255 111 284 111 c 128,-1,20
 313 111 313 111 334 130.5 c 128,-1,21
 355 150 355 150 360 181 c 2,22,-1
 371 254 l 1,23,24
 382 335 382 335 382 339 c 0,25,26
 382 363 382 363 365.5 381.5 c 128,-1,27
 349 400 349 400 320.5 400 c 128,-1,28
 292 400 292 400 269.5 379.5 c 128,-1,29
 247 359 247 359 243 333 c 128,-1,30
 239 307 239 307 232 253 c 1,16,17
405 575 m 1,31,-1
 287 575 l 1,32,-1
 399 720 l 1,33,-1
 550 720 l 1,34,-1
 551 717 l 1,35,-1
 405 575 l 1,31,-1
EndSplineSet
EndChar

StartChar: ocircumflex
Encoding: 244 244 182
Width: 613
Flags: HMW
HStem: -10 121<263.5 265 265 280> 400 121<323 340 340 340.5> 575 145<148 436 424 424 424 436 308 554>
VStem: 16 205<153.5 172.5 153.5 279.5> 382 205<335 354.5>
LayerCount: 2
Fore
SplineSet
16 205 m 0,0,1
 16 324.208333333 16 324.208333333 89 418.5 c 0,2,3
 125 465 125 465 186 493 c 128,-1,4
 247 521 247 521 323 521 c 2,5,-1
 340 521 l 2,6,7
 458 521 458 521 522.5 462.5 c 128,-1,8
 587 404 587 404 587 305 c 0,9,10
 587 168 587 168 501 79 c 128,-1,11
 415 -10 415 -10 280 -10 c 2,12,-1
 265 -10 l 2,13,14
 145 -10 145 -10 80.5 48.5 c 128,-1,15
 16 107 16 107 16 205 c 0,0,1
276 575 m 1,16,-1
 148 575 l 1,17,-1
 308 720 l 1,18,-1
 436 720 l 1,19,-1
 554 575 l 1,20,-1
 424 575 l 1,21,-1
 361 652 l 1,22,-1
 276 575 l 1,16,-1
232 253 m 1,23,24
 221 192 221 192 221 168.5 c 128,-1,25
 221 145 221 145 238 128 c 128,-1,26
 255 111 255 111 284 111 c 128,-1,27
 313 111 313 111 334 130.5 c 128,-1,28
 355 150 355 150 360 181 c 2,29,-1
 371 254 l 1,30,31
 382 335 382 335 382 339 c 0,32,33
 382 363 382 363 365.5 381.5 c 128,-1,34
 349 400 349 400 320.5 400 c 128,-1,35
 292 400 292 400 269.5 379.5 c 128,-1,36
 247 359 247 359 243 333 c 128,-1,37
 239 307 239 307 232 253 c 1,23,24
EndSplineSet
EndChar

StartChar: otilde
Encoding: 245 245 183
Width: 613
Flags: HMW
HStem: -10 121<263.5 265 265 280> 400 121<323 340 340 340.5> 577 103<426 465.5 426 472.5> 617 103<249.5 288.5>
VStem: 16 205<153.5 172.5 153.5 279.5> 382 205<335 354.5>
LayerCount: 2
Fore
SplineSet
16 205 m 0,0,1
 16 324.208333333 16 324.208333333 89 418.5 c 0,2,3
 125 465 125 465 186 493 c 128,-1,4
 247 521 247 521 323 521 c 2,5,-1
 340 521 l 2,6,7
 458 521 458 521 522.5 462.5 c 128,-1,8
 587 404 587 404 587 305 c 0,9,10
 587 168 587 168 501 79 c 128,-1,11
 415 -10 415 -10 280 -10 c 2,12,-1
 265 -10 l 2,13,14
 145 -10 145 -10 80.5 48.5 c 128,-1,15
 16 107 16 107 16 205 c 0,0,1
206 577 m 1,16,-1
 126 577 l 1,17,18
 135 634 135 634 180 677 c 128,-1,19
 225 720 225 720 286 720 c 0,20,21
 319 720 319 720 373 700 c 128,-1,22
 427 680 427 680 453 680 c 0,23,24
 490 680 490 680 509 720 c 1,25,-1
 590 720 l 1,26,27
 581 663 581 663 536 620 c 128,-1,28
 491 577 491 577 429 577 c 0,29,30
 396 577 396 577 341.5 597 c 128,-1,31
 287 617 287 617 262 617 c 0,32,33
 225 617 225 617 206 577 c 1,16,-1
232 253 m 1,34,35
 221 192 221 192 221 168.5 c 128,-1,36
 221 145 221 145 238 128 c 128,-1,37
 255 111 255 111 284 111 c 128,-1,38
 313 111 313 111 334 130.5 c 128,-1,39
 355 150 355 150 360 181 c 2,40,-1
 371 254 l 1,41,42
 382 335 382 335 382 339 c 0,43,44
 382 363 382 363 365.5 381.5 c 128,-1,45
 349 400 349 400 320.5 400 c 128,-1,46
 292 400 292 400 269.5 379.5 c 128,-1,47
 247 359 247 359 243 333 c 128,-1,48
 239 307 239 307 232 253 c 1,34,35
EndSplineSet
EndChar

StartChar: odieresis
Encoding: 246 246 184
Width: 613
Flags: HMW
HStem: -10 121<263.5 265 265 280> 400 121<323 340 340 340.5> 573 147<183 314 162 335 183 382 403 534>
VStem: 16 205<153.5 172.5 153.5 279.5> 382 205<335 354.5 214 573>
LayerCount: 2
Fore
SplineSet
16 205 m 0,0,1
 16 324.208333333 16 324.208333333 89 418.5 c 0,2,3
 125 465 125 465 186 493 c 128,-1,4
 247 521 247 521 323 521 c 2,5,-1
 340 521 l 2,6,7
 458 521 458 521 522.5 462.5 c 128,-1,8
 587 404 587 404 587 305 c 0,9,10
 587 168 587 168 501 79 c 128,-1,11
 415 -10 415 -10 280 -10 c 2,12,-1
 265 -10 l 2,13,14
 145 -10 145 -10 80.5 48.5 c 128,-1,15
 16 107 16 107 16 205 c 0,0,1
314 573 m 1,16,-1
 162 573 l 1,17,-1
 183 720 l 1,18,-1
 335 720 l 1,19,-1
 314 573 l 1,16,-1
232 253 m 1,20,21
 221 192 221 192 221 168.5 c 128,-1,22
 221 145 221 145 238 128 c 128,-1,23
 255 111 255 111 284 111 c 128,-1,24
 313 111 313 111 334 130.5 c 128,-1,25
 355 150 355 150 360 181 c 2,26,-1
 371 254 l 1,27,28
 382 335 382 335 382 339 c 0,29,30
 382 363 382 363 365.5 381.5 c 128,-1,31
 349 400 349 400 320.5 400 c 128,-1,32
 292 400 292 400 269.5 379.5 c 128,-1,33
 247 359 247 359 243 333 c 128,-1,34
 239 307 239 307 232 253 c 1,20,21
534 573 m 1,35,-1
 382 573 l 1,36,-1
 403 720 l 1,37,-1
 555 720 l 1,38,-1
 534 573 l 1,35,-1
EndSplineSet
EndChar

StartChar: divide
Encoding: 247 247 185
Width: 615
Flags: HMW
HStem: 17 127<225 334 207 352> 193 128<56 550 38 568> 369 127<274 383 256 401>
LayerCount: 2
Fore
SplineSet
550 193 m 1,0,-1
 38 193 l 1,1,-1
 56 321 l 1,2,-1
 568 321 l 1,3,-1
 550 193 l 1,0,-1
334 17 m 1,4,-1
 207 17 l 1,5,-1
 225 144 l 1,6,-1
 352 144 l 1,7,-1
 334 17 l 1,4,-1
383 369 m 1,8,-1
 256 369 l 1,9,-1
 274 496 l 1,10,-1
 401 496 l 1,11,-1
 383 369 l 1,8,-1
EndSplineSet
EndChar

StartChar: oslash
Encoding: 248 248 186
Width: 613
Flags: HMW
HStem: -55 21G<14 106 14 14> -10 121<244.5 303 273.5 280> 400 121<323 329> 549 20G<498 590 590 590>
LayerCount: 2
Fore
SplineSet
106 -55 m 1,0,-1
 14 -55 l 1,1,-1
 89 41 l 1,2,3
 16 99 16 99 16 205 c 0,4,5
 16 324.208333333 16 324.208333333 89 418.5 c 0,6,7
 125 465 125 465 186 493 c 128,-1,8
 247 521 247 521 323 521 c 2,9,-1
 340 521 l 2,10,11
 399 521 399 521 448 504 c 1,12,-1
 498 569 l 1,13,-1
 590 569 l 1,14,-1
 513 470 l 1,15,16
 587 411 587 411 587 305 c 0,17,18
 587 168 587 168 501 79 c 128,-1,19
 415 -10 415 -10 280 -10 c 2,20,-1
 265 -10 l 2,21,22
 205 -10 205 -10 154 7 c 1,23,-1
 106 -55 l 1,0,-1
243 330 m 2,24,-1
 227 219 l 1,25,-1
 358 388 l 1,26,27
 343 400 343 400 317.5 400 c 128,-1,28
 292 400 292 400 269.5 379.5 c 128,-1,29
 247 359 247 359 243 330 c 2,24,-1
375 292 m 1,30,-1
 244 123 l 1,31,32
 259 111 259 111 286 111 c 128,-1,33
 313 111 313 111 334 130.5 c 128,-1,34
 355 150 355 150 358 171 c 128,-1,35
 361 192 361 192 367 235.5 c 128,-1,36
 373 279 373 279 375 292 c 1,30,-1
EndSplineSet
EndChar

StartChar: ugrave
Encoding: 249 249 187
Width: 627
Flags: HMW
HStem: -10 141<120 292.5 259.5 487> 491 20G<77 275 275 275 381 579 579 579> 575 145<275 275 275 323 172 393>
VStem: 24 205<82.5 184.5>
LayerCount: 2
Fore
SplineSet
579 511 m 1,0,1
 527 152.473684211 527 152.473684211 527 139.236842105 c 128,-1,2
 527 126 527 126 535 118.5 c 128,-1,3
 543 111 543 111 555.5 111 c 0,4,5
 568.4 111 568.4 111 590 120 c 1,6,-1
 575 13 l 1,7,8
 563 5 563 5 547 1 c 1,9,10
 517 -10 517 -10 471 -10 c 0,11,12
 352 -10 352 -10 335 71 c 1,13,14
 272 -10 272 -10 168 -10 c 0,15,16
 99 -10 99 -10 61.5 26 c 128,-1,17
 24 62 24 62 24 119 c 0,18,19
 24 138 24 138 42.5 274.5 c 128,-1,20
 61 411 61 411 77 511 c 1,21,-1
 275 511 l 1,22,-1
 252 352 l 1,23,24
 229 210 229 210 229 184.5 c 128,-1,25
 229 159 229 159 241 145 c 128,-1,26
 253 131 253 131 276.5 131 c 128,-1,27
 300 131 300 131 316 148 c 128,-1,28
 332 165 332 165 336 191 c 2,29,-1
 381 511 l 1,30,-1
 579 511 l 1,0,1
275 575 m 1,31,-1
 169 717 l 1,32,-1
 172 720 l 1,33,-1
 323 720 l 1,34,-1
 393 575 l 1,35,-1
 275 575 l 1,31,-1
EndSplineSet
EndChar

StartChar: uacute
Encoding: 250 250 188
Width: 627
Flags: HMW
HStem: -10 141<120 292.5 259.5 487> 491 20G<77 275 275 275 381 579 579 579> 575 145<379 385 267 530>
VStem: 24 205<82.5 184.5>
LayerCount: 2
Fore
SplineSet
579 511 m 1,0,1
 527 152.473684211 527 152.473684211 527 139.236842105 c 128,-1,2
 527 126 527 126 535 118.5 c 128,-1,3
 543 111 543 111 555.5 111 c 0,4,5
 568.4 111 568.4 111 590 120 c 1,6,-1
 575 13 l 1,7,8
 563 5 563 5 547 1 c 1,9,10
 517 -10 517 -10 471 -10 c 0,11,12
 352 -10 352 -10 335 71 c 1,13,14
 272 -10 272 -10 168 -10 c 0,15,16
 99 -10 99 -10 61.5 26 c 128,-1,17
 24 62 24 62 24 119 c 0,18,19
 24 138 24 138 42.5 274.5 c 128,-1,20
 61 411 61 411 77 511 c 1,21,-1
 275 511 l 1,22,-1
 252 352 l 1,23,24
 229 210 229 210 229 184.5 c 128,-1,25
 229 159 229 159 241 145 c 128,-1,26
 253 131 253 131 276.5 131 c 128,-1,27
 300 131 300 131 316 148 c 128,-1,28
 332 165 332 165 336 191 c 2,29,-1
 381 511 l 1,30,-1
 579 511 l 1,0,1
385 575 m 1,31,-1
 267 575 l 1,32,-1
 379 720 l 1,33,-1
 530 720 l 1,34,-1
 531 717 l 1,35,-1
 385 575 l 1,31,-1
EndSplineSet
EndChar

StartChar: ucircumflex
Encoding: 251 251 189
Width: 627
Flags: HMW
HStem: -10 141<120 292.5 259.5 487> 491 20G<77 275 275 275 381 579 579 579> 575 145<135 423 411 411 411 423 295 541>
VStem: 24 205<82.5 184.5>
LayerCount: 2
Fore
SplineSet
579 511 m 1,0,1
 527 152.473684211 527 152.473684211 527 139.236842105 c 128,-1,2
 527 126 527 126 535 118.5 c 128,-1,3
 543 111 543 111 555.5 111 c 0,4,5
 568.4 111 568.4 111 590 120 c 1,6,-1
 575 13 l 1,7,8
 563 5 563 5 547 1 c 1,9,10
 517 -10 517 -10 471 -10 c 0,11,12
 352 -10 352 -10 335 71 c 1,13,14
 272 -10 272 -10 168 -10 c 0,15,16
 99 -10 99 -10 61.5 26 c 128,-1,17
 24 62 24 62 24 119 c 0,18,19
 24 138 24 138 42.5 274.5 c 128,-1,20
 61 411 61 411 77 511 c 1,21,-1
 275 511 l 1,22,-1
 252 352 l 1,23,24
 229 210 229 210 229 184.5 c 128,-1,25
 229 159 229 159 241 145 c 128,-1,26
 253 131 253 131 276.5 131 c 128,-1,27
 300 131 300 131 316 148 c 128,-1,28
 332 165 332 165 336 191 c 2,29,-1
 381 511 l 1,30,-1
 579 511 l 1,0,1
263 575 m 1,31,-1
 135 575 l 1,32,-1
 295 720 l 1,33,-1
 423 720 l 1,34,-1
 541 575 l 1,35,-1
 411 575 l 1,36,-1
 348 652 l 1,37,-1
 263 575 l 1,31,-1
EndSplineSet
EndChar

StartChar: udieresis
Encoding: 252 252 190
Width: 627
Flags: HMW
HStem: -10 141<120 292.5 259.5 487> 491 20G<77 275 275 275 381 579 579 579> 573 147<170 301 149 322 170 369 390 521>
VStem: 24 205<82.5 184.5>
LayerCount: 2
Fore
SplineSet
579 511 m 1,0,1
 527 152.473684211 527 152.473684211 527 139.236842105 c 128,-1,2
 527 126 527 126 535 118.5 c 128,-1,3
 543 111 543 111 555.5 111 c 0,4,5
 568.4 111 568.4 111 590 120 c 1,6,-1
 575 13 l 1,7,8
 563 5 563 5 547 1 c 1,9,10
 517 -10 517 -10 471 -10 c 0,11,12
 352 -10 352 -10 335 71 c 1,13,14
 272 -10 272 -10 168 -10 c 0,15,16
 99 -10 99 -10 61.5 26 c 128,-1,17
 24 62 24 62 24 119 c 0,18,19
 24 138 24 138 42.5 274.5 c 128,-1,20
 61 411 61 411 77 511 c 1,21,-1
 275 511 l 1,22,-1
 252 352 l 1,23,24
 229 210 229 210 229 184.5 c 128,-1,25
 229 159 229 159 241 145 c 128,-1,26
 253 131 253 131 276.5 131 c 128,-1,27
 300 131 300 131 316 148 c 128,-1,28
 332 165 332 165 336 191 c 2,29,-1
 381 511 l 1,30,-1
 579 511 l 1,0,1
301 573 m 1,31,-1
 149 573 l 1,32,-1
 170 720 l 1,33,-1
 322 720 l 1,34,-1
 301 573 l 1,31,-1
521 573 m 1,35,-1
 369 573 l 1,36,-1
 390 720 l 1,37,-1
 542 720 l 1,38,-1
 521 573 l 1,35,-1
EndSplineSet
EndChar

StartChar: yacute
Encoding: 253 253 191
Width: 552
Flags: HMW
HStem: -187 130<42 86.5 42 122> 491 20G<26 237 237 237 391 586 586 586> 575 145<368 374 256 519>
LayerCount: 2
Fore
SplineSet
-34 -172 m 1,0,-1
 -17 -43 l 1,1,2
 9 -57 9 -57 56 -57 c 0,3,4
 121 -57 121 -57 144 15 c 1,5,-1
 26 511 l 1,6,-1
 237 511 l 1,7,-1
 278 246 l 1,8,-1
 286 246 l 1,9,-1
 391 511 l 1,10,-1
 586 511 l 1,11,-1
 347 36 l 2,12,13
 296 -65 296 -65 222 -126 c 128,-1,14
 148 -187 148 -187 61 -187 c 0,15,16
 -8 -187 -8 -187 -34 -172 c 1,0,-1
374 575 m 1,17,-1
 256 575 l 1,18,-1
 368 720 l 1,19,-1
 519 720 l 1,20,-1
 520 717 l 1,21,-1
 374 575 l 1,17,-1
EndSplineSet
EndChar

StartChar: thorn
Encoding: 254 254 192
Width: 599
Flags: HMW
HStem: -181 21G<-17 180 -17 -17> -10 125<268.5 389> 400 121<306.5 457.5> 700 20G<109 307 307 307>
VStem: 377 195<340 357.5>
LayerCount: 2
Fore
SplineSet
180 -181 m 1,0,-1
 -17 -181 l 1,1,-1
 109 720 l 1,2,-1
 307 720 l 1,3,-1
 270 458 l 1,4,5
 319 521 319 521 411 521 c 0,6,7
 484 521 484 521 528 471 c 128,-1,8
 572 421 572 421 572 326 c 0,9,10
 572 299 572 299 567 261 c 1,11,-1
 566 250 l 1,12,13
 549 124 549 124 484.5 57 c 128,-1,14
 420 -10 420 -10 331 -10 c 128,-1,15
 242 -10 242 -10 213 53 c 1,16,-1
 180 -181 l 1,0,-1
232 185 m 2,17,18
 231 182 231 182 231 165 c 128,-1,19
 231 148 231 148 246 131.5 c 128,-1,20
 261 115 261 115 285 115 c 128,-1,21
 309 115 309 115 330.5 135.5 c 128,-1,22
 352 156 352 156 356 185 c 2,23,-1
 377 340 l 1,24,25
 377 366 377 366 362 383 c 128,-1,26
 347 400 347 400 322.5 400 c 128,-1,27
 298 400 298 400 277 379.5 c 128,-1,28
 256 359 256 359 252 330 c 2,29,-1
 232 185 l 2,17,18
EndSplineSet
EndChar

StartChar: ydieresis
Encoding: 255 255 193
Width: 552
Flags: HMW
HStem: -187 130<42 86.5 42 122> 491 20G<26 237 237 237 391 586 586 586> 573 147<148 279 127 300 148 347 368 499>
LayerCount: 2
Fore
SplineSet
-34 -172 m 1,0,-1
 -17 -43 l 1,1,2
 9 -57 9 -57 56 -57 c 0,3,4
 121 -57 121 -57 144 15 c 1,5,-1
 26 511 l 1,6,-1
 237 511 l 1,7,-1
 278 246 l 1,8,-1
 286 246 l 1,9,-1
 391 511 l 1,10,-1
 586 511 l 1,11,-1
 347 36 l 2,12,13
 296 -65 296 -65 222 -126 c 128,-1,14
 148 -187 148 -187 61 -187 c 0,15,16
 -8 -187 -8 -187 -34 -172 c 1,0,-1
279 573 m 1,17,-1
 127 573 l 1,18,-1
 148 720 l 1,19,-1
 300 720 l 1,20,-1
 279 573 l 1,17,-1
499 573 m 1,21,-1
 347 573 l 1,22,-1
 368 720 l 1,23,-1
 520 720 l 1,24,-1
 499 573 l 1,21,-1
EndSplineSet
EndChar

StartChar: dotlessi
Encoding: 305 305 194
Width: 296
Flags: HMW
HStem: 0 21G<9 206 9 9> 491 20G<80 277 277 277>
LayerCount: 2
Fore
SplineSet
206 0 m 1,0,-1
 9 0 l 1,1,-1
 80 511 l 1,2,-1
 277 511 l 1,3,-1
 206 0 l 1,0,-1
EndSplineSet
EndChar

StartChar: Lslash
Encoding: 321 321 195
Width: 555
Flags: HMW
HStem: 0 168<267 506 267 506> 666 20G<128 340 340 340>
LayerCount: 2
Fore
SplineSet
72 288 m 1,0,-1
 2 255 l 1,1,-1
 17 360 l 1,2,-1
 87 393 l 1,3,-1
 128 686 l 1,4,-1
 340 686 l 1,5,-1
 313 499 l 1,6,-1
 411 544 l 1,7,-1
 396 439 l 1,8,-1
 299 394 l 1,9,-1
 267 168 l 1,10,-1
 506 168 l 1,11,-1
 506 0 l 1,12,-1
 31 0 l 1,13,-1
 72 288 l 1,0,-1
EndSplineSet
EndChar

StartChar: lslash
Encoding: 322 322 196
Width: 346
Flags: HMW
HStem: 0 21G<34 231 34 34> 700 20G<134 332 332 332>
LayerCount: 2
Fore
SplineSet
73 285 m 1,0,-1
 11 255 l 1,1,-1
 25 360 l 1,2,-1
 88 389 l 1,3,-1
 134 720 l 1,4,-1
 332 720 l 1,5,-1
 299 488 l 1,6,-1
 365 519 l 1,7,-1
 350 414 l 1,8,-1
 285 384 l 1,9,-1
 231 0 l 1,10,-1
 34 0 l 1,11,-1
 73 285 l 1,0,-1
EndSplineSet
EndChar

StartChar: OE
Encoding: 338 338 197
Width: 1004
Flags: HMW
HStem: 0 164<649 935 649 935> 275 153<686 943 665 964> 528 158<701 990 701 701>
VStem: 28 222<218.5 246 218.5 262.5>
LayerCount: 2
Fore
SplineSet
28 248 m 0,0,1
 28 261 28 261 46 394 c 1,2,3
 65 519 65 519 158.5 602.5 c 128,-1,4
 252 686 252 686 388 686 c 2,5,-1
 1032 686 l 1,6,-1
 990 528 l 1,7,-1
 701 528 l 1,8,-1
 686 428 l 1,9,-1
 964 428 l 1,10,-1
 943 275 l 1,11,-1
 665 275 l 1,12,-1
 649 164 l 1,13,-1
 935 164 l 1,14,-1
 935 0 l 1,15,-1
 289 0 l 2,16,17
 176 0 176 0 102 71 c 128,-1,18
 28 142 28 142 28 248 c 0,0,1
250 243 m 0,19,20
 250 206 250 206 274.5 181.5 c 128,-1,21
 299 157 299 157 337 157 c 2,22,-1
 342 157 l 2,23,24
 391 157 391 157 420.5 185 c 128,-1,25
 450 213 450 213 456 257 c 2,26,-1
 483 432 l 2,27,28
 484 435 484 435 484 446 c 0,29,30
 484 483 484 483 459.5 507.5 c 128,-1,31
 435 532 435 532 397 532 c 2,32,-1
 392 532 l 2,33,34
 343 532 343 532 313.5 504 c 128,-1,35
 284 476 284 476 278 432 c 2,36,-1
 251 257 l 2,37,38
 250 254 250 254 250 243 c 0,19,20
EndSplineSet
EndChar

StartChar: oe
Encoding: 339 339 198
Width: 943
Flags: HMW
HStem: -10 121<263.5 265 265 280 613.5 622> -10 202<574 900 607 900> 229 87<585 723 585 906 573 723> 400 121<323 340 340 340.5 675 683.5>
VStem: 16 205<153.5 172.5 153.5 279.5> 725 192<335.5 356.5>
LayerCount: 2
Fore
SplineSet
16 205 m 0,0,1
 16 324.208333333 16 324.208333333 89 418.5 c 0,2,3
 125 465 125 465 186 493 c 128,-1,4
 247 521 247 521 323 521 c 2,5,-1
 340 521 l 2,6,7
 437 521 437 521 502 478 c 1,8,9
 575 521 575 521 675 521 c 2,10,-1
 700 521 l 2,11,12
 805 521 805 521 861 469 c 128,-1,13
 917 417 917 417 917 330 c 0,14,15
 917 323 917 323 916 320 c 2,16,-1
 915 303 l 2,17,18
 914 288 914 288 906 229 c 1,19,-1
 573 229 l 1,20,-1
 569 204 l 1,21,22
 565 187 565 187 565 164.5 c 128,-1,23
 565 142 565 142 584 126.5 c 128,-1,24
 603 111 603 111 635.5 111 c 128,-1,25
 668 111 668 111 690 132.5 c 128,-1,26
 712 154 712 154 717 192 c 1,27,-1
 900 192 l 1,28,29
 888 105 888 105 812.5 47.5 c 128,-1,30
 737 -10 737 -10 622 -10 c 2,31,-1
 607 -10 l 2,32,33
 508 -10 508 -10 444 33 c 1,34,35
 369 -10 369 -10 280 -10 c 2,36,-1
 265 -10 l 2,37,38
 145 -10 145 -10 80.5 48.5 c 128,-1,39
 16 107 16 107 16 205 c 0,0,1
232 253 m 1,40,41
 221 192 221 192 221 168.5 c 128,-1,42
 221 145 221 145 238 128 c 128,-1,43
 255 111 255 111 284 111 c 128,-1,44
 313 111 313 111 334 130.5 c 128,-1,45
 355 150 355 150 360 181 c 2,46,-1
 371 254 l 1,47,48
 382 335 382 335 382 339 c 0,49,50
 382 363 382 363 365.5 381.5 c 128,-1,51
 349 400 349 400 320.5 400 c 128,-1,52
 292 400 292 400 269.5 379.5 c 128,-1,53
 247 359 247 359 243 333 c 128,-1,54
 239 307 239 307 232 253 c 1,40,41
724 323 m 2,55,-1
 725 339 l 1,56,57
 725 365 725 365 708.5 382.5 c 128,-1,58
 692 400 692 400 664.5 400 c 128,-1,59
 637 400 637 400 614 379.5 c 128,-1,60
 591 359 591 359 587 330 c 2,61,-1
 585 316 l 1,62,-1
 723 316 l 1,63,64
 723 320 723 320 724 323 c 2,55,-1
EndSplineSet
EndChar

StartChar: Scaron
Encoding: 352 352 199
Width: 651
Flags: HMW
HStem: -10 161<260.5 335 260.5 410> -10 244<205.5 212 18 410> 474 222<444 458.5 294 636 444 444> 544 152<340.5 396.5> 750 145<322 322 322 334 204 450>
VStem: 12 196<112 216> 63 145<196 527> 63 218<453 510.5 453 527> 394 222<196.5 241.5> 445 171<196.5 506.5> 445 195<493 579>
LayerCount: 2
Fore
SplineSet
12 177 m 0,0,1
 12 196 12 196 18 234 c 1,2,-1
 212 234 l 1,3,4
 208 225 208 225 208 212 c 0,5,6
 208 151 208 151 293 151 c 0,7,8
 394 151 394 151 394 199 c 0,9,10
 394 235.391891892 394 235.391891892 308 250.5 c 0,11,12
 225 265.081081081 225 265.081081081 149 300 c 0,13,14
 112 317 112 317 87.5 354 c 128,-1,15
 63 391 63 391 63 443 c 0,16,17
 63 565 63 565 152.5 630.5 c 128,-1,18
 242 696 242 696 388 696 c 0,19,20
 500 696 500 696 570 651 c 128,-1,21
 640 606 640 606 640 517 c 0,22,23
 640 494 640 494 636 474 c 1,24,-1
 444 474 l 1,25,-1
 445 493 l 1,26,27
 445 515 445 515 426 529.5 c 128,-1,28
 407 544 407 544 367 544 c 128,-1,29
 327 544 327 544 304 531 c 128,-1,30
 281 518 281 518 281 497.5 c 128,-1,31
 281 477 281 477 306 463.5 c 128,-1,32
 331 450 331 450 368 443 c 128,-1,33
 405 436 405 436 448.5 423.5 c 128,-1,34
 492 411 492 411 529 395 c 128,-1,35
 566 379 566 379 591 344.5 c 128,-1,36
 616 310 616 310 616 259.5 c 128,-1,37
 616 209 616 209 600 164 c 128,-1,38
 584 119 584 119 547.5 78 c 128,-1,39
 511 37 511 37 441.5 13.5 c 128,-1,40
 372 -10 372 -10 267 -10 c 128,-1,41
 162 -10 162 -10 87 37.5 c 128,-1,42
 12 85 12 85 12 177 c 0,0,1
322 750 m 1,43,-1
 204 895 l 1,44,-1
 334 895 l 1,45,-1
 397 818 l 1,46,-1
 482 895 l 1,47,-1
 610 895 l 1,48,-1
 450 750 l 1,49,-1
 322 750 l 1,43,-1
EndSplineSet
EndChar

StartChar: scaron
Encoding: 353 353 200
Width: 559
Flags: HMW
HStem: -10 121<229 230 230 240> -10 177<158.5 167 5 230 5 240> 358 163<364 373.5 313 528 364 364> 403 118<313 314> 575 145<261 261 261 273 143 389>
VStem: 1 165<79.5 156> 44 122<138 393.5> 44 178<338.5 387 338.5 393.5> 335 181<141 178.5>
LayerCount: 2
Fore
SplineSet
535 397 m 0,0,1
 535 379 535 379 528 358 c 1,2,-1
 364 358 l 1,3,-1
 364 363 l 2,4,5
 364 403 364 403 300 403 c 0,6,7
 222 403 222 403 222 371 c 0,8,9
 222 354 222 354 252.5 346.5 c 128,-1,10
 283 339 283 339 326 334.5 c 128,-1,11
 369 330 369 330 412 320.5 c 128,-1,12
 455 311 455 311 485.5 280.5 c 128,-1,13
 516 250 516 250 516 199 c 0,14,15
 516 105 516 105 449 47.5 c 128,-1,16
 382 -10 382 -10 240 -10 c 2,17,-1
 230 -10 l 2,18,19
 1 -10 1 -10 1 127 c 0,20,21
 1 151 1 151 5 167 c 1,22,-1
 167 167 l 1,23,24
 166 166 166 166 166 163 c 2,25,-1
 166 156 l 2,26,27
 166 132 166 132 190.5 121.5 c 128,-1,28
 215 111 215 111 245 111 c 0,29,30
 335 111 335 111 335 145 c 0,31,32
 335 163 335 163 305 171.5 c 128,-1,33
 275 180 275 180 232.5 185.5 c 128,-1,34
 190 191 190 191 147 201.5 c 128,-1,35
 104 212 104 212 74 242 c 128,-1,36
 44 272 44 272 44 322.5 c 128,-1,37
 44 373 44 373 68.5 413 c 128,-1,38
 93 453 93 453 133.5 475.5 c 0,39,40
 215.4 521 215.4 521 313 521 c 2,41,-1
 321 521 l 2,42,43
 408 521 408 521 471.5 489 c 128,-1,44
 535 457 535 457 535 397 c 0,0,1
261 575 m 1,45,-1
 143 720 l 1,46,-1
 273 720 l 1,47,-1
 336 643 l 1,48,-1
 421 720 l 1,49,-1
 549 720 l 1,50,-1
 389 575 l 1,51,-1
 261 575 l 1,45,-1
EndSplineSet
EndChar

StartChar: Ydieresis
Encoding: 376 376 201
Width: 644
Flags: HMW
HStem: 0 21G<175 384 175 175> 666 20G<44 280 280 280 493 708 708 708> 750 147<220 351 199 372 220 419 440 571>
LayerCount: 2
Fore
SplineSet
212 262 m 1,0,-1
 44 686 l 1,1,-1
 280 686 l 1,2,-1
 351 461 l 1,3,-1
 356 461 l 1,4,-1
 493 686 l 1,5,-1
 708 686 l 1,6,-1
 421 262 l 1,7,-1
 384 0 l 1,8,-1
 175 0 l 1,9,-1
 212 262 l 1,0,-1
351 750 m 1,10,-1
 199 750 l 1,11,-1
 220 897 l 1,12,-1
 372 897 l 1,13,-1
 351 750 l 1,10,-1
571 750 m 1,14,-1
 419 750 l 1,15,-1
 440 897 l 1,16,-1
 592 897 l 1,17,-1
 571 750 l 1,14,-1
EndSplineSet
EndChar

StartChar: Zcaron
Encoding: 381 381 202
Width: 607
Flags: HMW
HStem: 0 161<294 543> 526 160<93 315 70 632> 750 145<308 308 308 320 190 436>
LayerCount: 2
Fore
SplineSet
543 0 m 1,0,-1
 -27 0 l 1,1,-1
 -18 61 l 1,2,-1
 315 526 l 1,3,-1
 70 526 l 1,4,-1
 93 686 l 1,5,-1
 632 686 l 1,6,-1
 623 625 l 1,7,-1
 294 161 l 1,8,-1
 566 161 l 1,9,-1
 543 0 l 1,0,-1
308 750 m 1,10,-1
 190 895 l 1,11,-1
 320 895 l 1,12,-1
 383 818 l 1,13,-1
 468 895 l 1,14,-1
 596 895 l 1,15,-1
 436 750 l 1,16,-1
 308 750 l 1,10,-1
EndSplineSet
EndChar

StartChar: zcaron
Encoding: 382 382 203
Width: 497
Flags: HMW
HStem: 0 124<253 433> 387 124<63 223 46 496> 575 145<223 223 223 235 105 351>
LayerCount: 2
Fore
SplineSet
433 0 m 1,0,-1
 -18 0 l 1,1,-1
 -10 63 l 1,2,-1
 223 387 l 1,3,-1
 46 387 l 1,4,-1
 63 511 l 1,5,-1
 496 511 l 1,6,-1
 488 451 l 1,7,-1
 253 124 l 1,8,-1
 450 124 l 1,9,-1
 433 0 l 1,0,-1
223 575 m 1,10,-1
 105 720 l 1,11,-1
 235 720 l 1,12,-1
 298 643 l 1,13,-1
 383 720 l 1,14,-1
 511 720 l 1,15,-1
 351 575 l 1,16,-1
 223 575 l 1,10,-1
EndSplineSet
EndChar

StartChar: florin
Encoding: 402 402 204
Width: 418
Flags: HMW
HStem: -184 122<-25.5 92> 369 142<56 100 36 120 318 418> 606 122<278 395>
LayerCount: 2
Fore
SplineSet
-94 -162 m 1,0,-1
 -79 -52 l 1,1,2
 -49 -62 -49 -62 -25.5 -62 c 0,3,4
 -2 -62 -2 -62 9 -59.5 c 128,-1,5
 20 -57 20 -57 31.5 -43.5 c 128,-1,6
 43 -30 43 -30 47 -4 c 2,7,-1
 100 369 l 1,8,-1
 36 369 l 1,9,-1
 56 511 l 1,10,-1
 120 511 l 1,11,-1
 129 577 l 1,12,13
 151 728 151 728 333 728 c 0,14,15
 410 728 410 728 464 706 c 1,16,-1
 449 596 l 1,17,18
 423 606 423 606 397.5 606 c 0,19,20
 372 606 372 606 361 603.5 c 128,-1,21
 350 601 350 601 338.5 587.5 c 128,-1,22
 327 574 327 574 323 548 c 2,23,-1
 318 511 l 1,24,-1
 438 511 l 1,25,-1
 418 369 l 1,26,-1
 298 369 l 1,27,-1
 241 -33 l 2,28,29
 219 -184 219 -184 37 -184 c 0,30,31
 -40 -184 -40 -184 -94 -162 c 1,0,-1
EndSplineSet
EndChar

StartChar: circumflex
Encoding: 710 710 205
Width: 540
Flags: HMW
HStem: 575 145<54 342 330 330 330 342 214 460>
LayerCount: 2
Fore
SplineSet
182 575 m 1,0,-1
 54 575 l 1,1,-1
 214 720 l 1,2,-1
 342 720 l 1,3,-1
 460 575 l 1,4,-1
 330 575 l 1,5,-1
 267 652 l 1,6,-1
 182 575 l 1,0,-1
EndSplineSet
EndChar

StartChar: caron
Encoding: 711 711 206
Width: 540
Flags: HMW
HStem: 575 145<193 193 193 205 75 321>
LayerCount: 2
Fore
SplineSet
193 575 m 1,0,-1
 75 720 l 1,1,-1
 205 720 l 1,2,-1
 268 643 l 1,3,-1
 353 720 l 1,4,-1
 481 720 l 1,5,-1
 321 575 l 1,6,-1
 193 575 l 1,0,-1
EndSplineSet
EndChar

StartChar: breve
Encoding: 728 728 207
Width: 520
Flags: HMW
HStem: 613 86<233.5 287 233.5 313.5> 613 124<68 313.5>
LayerCount: 2
Fore
SplineSet
68 737 m 1,0,-1
 164 737 l 1,1,2
 164 731 164 731 176.5 722.5 c 128,-1,3
 189 714 189 714 212 706.5 c 128,-1,4
 235 699 235 699 260 699 c 128,-1,5
 285 699 285 699 308.5 706.5 c 128,-1,6
 332 714 332 714 345 722.5 c 128,-1,7
 358 731 358 731 358 737 c 1,8,-1
 453 737 l 1,9,10
 453 693 453 693 395 653 c 128,-1,11
 337 613 337 613 260 613 c 128,-1,12
 183 613 183 613 125.5 653 c 128,-1,13
 68 693 68 693 68 737 c 1,0,-1
EndSplineSet
EndChar

StartChar: dotaccent
Encoding: 729 729 208
Width: 280
Flags: HMW
HStem: 604 132<128.5 149.5>
VStem: 73 134<659 680.5>
LayerCount: 2
Fore
SplineSet
89 620 m 128,-1,1
 73 636 73 636 73 663.5 c 128,-1,2
 73 691 73 691 95.5 713.5 c 128,-1,3
 118 736 118 736 146.5 736 c 128,-1,4
 175 736 175 736 191 719.5 c 128,-1,5
 207 703 207 703 207 676 c 128,-1,6
 207 649 207 649 183.5 626.5 c 128,-1,7
 160 604 160 604 132.5 604 c 128,-1,0
 105 604 105 604 89 620 c 128,-1,1
EndSplineSet
EndChar

StartChar: ring
Encoding: 730 730 209
Width: 340
Flags: HMW
HStem: 545 65<155.5 174.5 155.5 187> 680 66<162.5 183.5>
VStem: 67 67<631.5 651.5 631.5 663> 205 66<635.5 658.5>
LayerCount: 2
Fore
SplineSet
92 569.5 m 128,-1,1
 67 594 67 594 67 636 c 128,-1,2
 67 678 67 678 102 712 c 128,-1,3
 137 746 137 746 179.5 746 c 128,-1,4
 222 746 222 746 246.5 721.5 c 128,-1,5
 271 697 271 697 271 654.5 c 128,-1,6
 271 612 271 612 237 578.5 c 128,-1,7
 203 545 203 545 160 545 c 128,-1,0
 117 545 117 545 92 569.5 c 128,-1,1
145.5 668.5 m 128,-1,9
 134 657 134 657 134 642 c 128,-1,10
 134 627 134 627 142.5 618.5 c 128,-1,11
 151 610 151 610 166 610 c 128,-1,12
 181 610 181 610 193 620 c 128,-1,13
 205 630 205 630 205 649 c 0,14,15
 205 680 205 680 174 680 c 0,16,8
 157 680 157 680 145.5 668.5 c 128,-1,9
EndSplineSet
EndChar

StartChar: ogonek
Encoding: 731 731 210
Width: 340
Flags: HMW
HStem: -143 53<133.5 198.5> -143 143<133.5 173>
VStem: 68 79<-72.5 -63.5>
LayerCount: 2
Fore
SplineSet
68 -83 m 0,0,1
 68 -39 68 -39 133 0 c 1,2,-1
 203 0 l 1,3,4
 186 -10 186 -10 177 -15.5 c 128,-1,5
 168 -21 168 -21 157.5 -34.5 c 128,-1,6
 147 -48 147 -48 147 -62 c 0,7,8
 147 -90 147 -90 187 -90 c 0,9,10
 216 -90 216 -90 256 -76 c 1,11,-1
 263 -119 l 1,12,13
 210 -143 210 -143 164 -143 c 0,14,15
 68 -143 68 -143 68 -83 c 0,0,1
EndSplineSet
EndChar

StartChar: tilde
Encoding: 732 732 211
Width: 333
Flags: HMW
HStem: 576 103<258 297.5 258 304.5> 616 103<81.5 120.5>
LayerCount: 2
Fore
SplineSet
38 576 m 1,0,-1
 -42 576 l 1,1,2
 -33 633 -33 633 12 676 c 128,-1,3
 57 719 57 719 118 719 c 0,4,5
 151 719 151 719 205 699 c 128,-1,6
 259 679 259 679 285 679 c 0,7,8
 322 679 322 679 341 719 c 1,9,-1
 422 719 l 1,10,11
 413 662 413 662 368 619 c 128,-1,12
 323 576 323 576 261 576 c 0,13,14
 228 576 228 576 173.5 596 c 128,-1,15
 119 616 119 616 94 616 c 0,16,17
 57 616 57 616 38 576 c 1,0,-1
EndSplineSet
EndChar

StartChar: hungarumlaut
Encoding: 733 733 212
Width: 555
Flags: HMW
HStem: 575 145<143 149 31 294 258 258 258 294 370 376>
LayerCount: 2
Fore
SplineSet
149 575 m 1,0,-1
 31 575 l 1,1,-1
 143 720 l 1,2,-1
 294 720 l 1,3,-1
 295 717 l 1,4,-1
 149 575 l 1,0,-1
376 575 m 1,5,-1
 258 575 l 1,6,-1
 370 720 l 1,7,-1
 521 720 l 1,8,-1
 522 717 l 1,9,-1
 376 575 l 1,5,-1
EndSplineSet
EndChar

StartChar: pi
Encoding: 960 960 213
Width: 718
Flags: HMW
HStem: 0 21G<31 219 31 31 404 404 404 591> 386 125<127.5 740 340 340 340 438 631 631 631 709>
VStem: 396 193<37.5 53 29.5 63>
LayerCount: 2
Fore
SplineSet
219 0 m 1,0,-1
 31 0 l 1,1,2
 68 82 68 82 103.5 194.5 c 128,-1,3
 139 307 139 307 151 386 c 1,4,5
 78 386 78 386 34 376 c 1,6,-1
 34 475 l 1,7,8
 83 511 83 511 249 511 c 2,9,-1
 740 511 l 1,10,-1
 709 386 l 1,11,-1
 631 386 l 1,12,-1
 600 165 l 2,13,14
 589 83 589 83 589 52.5 c 0,15,16
 589 22 589 22 591 0 c 1,17,-1
 404 0 l 1,18,19
 396 9 396 9 396 56 c 0,20,21
 396 103 396 103 405 153 c 1,22,-1
 438 386 l 1,23,-1
 340 386 l 1,24,25
 322 288 322 288 287.5 172 c 128,-1,26
 253 56 253 56 219 0 c 1,0,-1
EndSplineSet
EndChar

StartChar: endash
Encoding: 8211 8211 214
Width: 597
Flags: HMW
HStem: 196 158<57 534 35 557>
LayerCount: 2
Fore
SplineSet
534 196 m 1,0,-1
 35 196 l 1,1,-1
 57 354 l 1,2,-1
 557 354 l 1,3,-1
 534 196 l 1,0,-1
EndSplineSet
EndChar

StartChar: emdash
Encoding: 8212 8212 215
Width: 1015
Flags: HMW
HStem: 196 158<60 947 38 970>
LayerCount: 2
Fore
SplineSet
947 196 m 1,0,-1
 38 196 l 1,1,-1
 60 354 l 1,2,-1
 970 354 l 1,3,-1
 947 196 l 1,0,-1
EndSplineSet
EndChar

StartChar: quoteleft
Encoding: 8216 8216 216
Width: 272
Flags: HMW
HStem: 338 183<181 239 48 265> 666 20G<147 241 241 241>
LayerCount: 2
Fore
SplineSet
239 338 m 1,0,-1
 48 338 l 1,1,-1
 71 499 l 1,2,-1
 147 686 l 1,3,-1
 241 686 l 1,4,-1
 181 521 l 1,5,-1
 265 521 l 1,6,-1
 239 338 l 1,0,-1
EndSplineSet
EndChar

StartChar: quoteright
Encoding: 8217 8217 217
Width: 265
Flags: HMW
HStem: 338 21G<89 183 89 89> 503 183<91 149 65 282>
LayerCount: 2
Fore
SplineSet
149 503 m 1,0,-1
 65 503 l 1,1,-1
 91 686 l 1,2,-1
 282 686 l 1,3,-1
 259 525 l 1,4,-1
 183 338 l 1,5,-1
 89 338 l 1,6,-1
 149 503 l 1,0,-1
EndSplineSet
EndChar

StartChar: quotesinglbase
Encoding: 8218 8218 218
Width: 286
Flags: HMW
HStem: -165 21G<31 125 31 31> 0 183<33 91 7 224>
LayerCount: 2
Fore
SplineSet
91 0 m 1,0,-1
 7 0 l 1,1,-1
 33 183 l 1,2,-1
 224 183 l 1,3,-1
 201 22 l 1,4,-1
 125 -165 l 1,5,-1
 31 -165 l 1,6,-1
 91 0 l 1,0,-1
EndSplineSet
EndChar

StartChar: quotedblleft
Encoding: 8220 8220 219
Width: 514
Flags: HMW
HStem: 338 21G<94 94 94 188 342 436 342 342> 503 183<174 258 174 174 422 422 422 506>
LayerCount: 2
Fore
SplineSet
94 338 m 1,0,-1
 70 525 l 1,1,-1
 93 686 l 1,2,-1
 284 686 l 1,3,-1
 258 503 l 1,4,-1
 174 503 l 1,5,-1
 188 338 l 1,6,-1
 94 338 l 1,0,-1
342 338 m 1,7,-1
 318 525 l 1,8,-1
 341 686 l 1,9,-1
 532 686 l 1,10,-1
 506 503 l 1,11,-1
 422 503 l 1,12,-1
 436 338 l 1,13,-1
 342 338 l 1,7,-1
EndSplineSet
EndChar

StartChar: quotedblright
Encoding: 8221 8221 220
Width: 513
Flags: HMW
HStem: 338 21G<89 183 89 89 337 337 337 431> 503 183<91 149 65 282 91 313 339 397>
LayerCount: 2
Fore
SplineSet
149 503 m 1,0,-1
 65 503 l 1,1,-1
 91 686 l 1,2,-1
 282 686 l 1,3,-1
 259 525 l 1,4,-1
 183 338 l 1,5,-1
 89 338 l 1,6,-1
 149 503 l 1,0,-1
397 503 m 1,7,-1
 313 503 l 1,8,-1
 339 686 l 1,9,-1
 530 686 l 1,10,-1
 507 525 l 1,11,-1
 431 338 l 1,12,-1
 337 338 l 1,13,-1
 397 503 l 1,7,-1
EndSplineSet
EndChar

StartChar: quotedblbase
Encoding: 8222 8222 221
Width: 534
Flags: HMW
HStem: -165 21G<31 125 31 31 279 279 279 373> 0 183<33 91 7 224 33 255 281 339>
LayerCount: 2
Fore
SplineSet
91 0 m 1,0,-1
 7 0 l 1,1,-1
 33 183 l 1,2,-1
 224 183 l 1,3,-1
 201 22 l 1,4,-1
 125 -165 l 1,5,-1
 31 -165 l 1,6,-1
 91 0 l 1,0,-1
339 0 m 1,7,-1
 255 0 l 1,8,-1
 281 183 l 1,9,-1
 472 183 l 1,10,-1
 449 22 l 1,11,-1
 373 -165 l 1,12,-1
 279 -165 l 1,13,-1
 339 0 l 1,7,-1
EndSplineSet
EndChar

StartChar: dagger
Encoding: 8224 8224 222
Width: 568
Flags: HMW
HStem: -161 21G<149 292 149 149> 666 20G<268 411 411 411>
LayerCount: 2
Fore
SplineSet
246 388 m 1,0,-1
 35 368 l 1,1,-1
 55 510 l 1,2,-1
 260 490 l 1,3,-1
 268 686 l 1,4,-1
 411 686 l 1,5,-1
 363 490 l 1,6,-1
 574 510 l 1,7,-1
 554 368 l 1,8,-1
 349 388 l 1,9,-1
 292 -161 l 1,10,-1
 149 -161 l 1,11,-1
 246 388 l 1,0,-1
EndSplineSet
EndChar

StartChar: daggerdbl
Encoding: 8225 8225 223
Width: 590
Flags: HMW
HStem: -175 21G<158 305 158 158> 666 20G<274 422 422 422>
LayerCount: 2
Fore
SplineSet
206 22 m 1,0,-1
 -5 2 l 1,1,-1
 15 144 l 1,2,-1
 219 124 l 1,3,-1
 219 257 l 1,4,-1
 257 388 l 1,5,-1
 46 368 l 1,6,-1
 66 510 l 1,7,-1
 274 490 l 1,8,-1
 274 686 l 1,9,-1
 422 686 l 1,10,-1
 374 490 l 1,11,-1
 585 510 l 1,12,-1
 565 368 l 1,13,-1
 362 388 l 1,14,-1
 362 257 l 1,15,-1
 323 124 l 1,16,-1
 534 144 l 1,17,-1
 514 2 l 1,18,-1
 305 22 l 1,19,-1
 305 -175 l 1,20,-1
 158 -175 l 1,21,-1
 206 22 l 1,0,-1
EndSplineSet
EndChar

StartChar: bullet
Encoding: 8226 8226 224
Width: 600
Flags: HMW
HStem: 171 21G<239 327> 494 20G<279 375>
LayerCount: 2
Fore
SplineSet
134 317 m 0,0,1
 134 397 134 397 193 455.5 c 128,-1,2
 252 514 252 514 324 514 c 0,3,4
 396 514 396 514 438.5 472 c 128,-1,5
 481 430 481 430 481 367 c 0,6,7
 481 280 481 280 418.5 225.5 c 128,-1,8
 356 171 356 171 287 171 c 0,9,10
 218 171 218 171 176 212.5 c 128,-1,11
 134 254 134 254 134 317 c 0,0,1
EndSplineSet
EndChar

StartChar: ellipsis
Encoding: 8230 8230 225
Width: 953
Flags: HMW
HStem: 0 183<33 199 8 224 33 341 366 532 699 865>
LayerCount: 2
Fore
SplineSet
199 0 m 1,0,-1
 8 0 l 1,1,-1
 33 183 l 1,2,-1
 224 183 l 1,3,-1
 199 0 l 1,0,-1
532 0 m 1,4,-1
 341 0 l 1,5,-1
 366 183 l 1,6,-1
 557 183 l 1,7,-1
 532 0 l 1,4,-1
865 0 m 1,8,-1
 674 0 l 1,9,-1
 699 183 l 1,10,-1
 890 183 l 1,11,-1
 865 0 l 1,8,-1
EndSplineSet
EndChar

StartChar: perthousand
Encoding: 8240 8240 226
Width: 1058
Flags: HMW
HStem: -1 21G<471.5 503 503 525 813.5 845 845 867> 0 71 276 71<552 562.5 894 904.5> 338 72<128.5 191.5 171.5 182> 615 71<209 219.5>
VStem: 241 97<578.5 581 570.5 591.5> 584 97<239.5 242 231.5 252.5> 926 97<239.5 242 231.5 252.5>
LayerCount: 2
Fore
SplineSet
53 443 m 2,0,-1
 53 452 l 2,1,2
 53 458 53 458 54 461 c 2,3,-1
 68 563 l 1,4,5
 74 615 74 615 113 650.5 c 128,-1,6
 152 686 152 686 209 686 c 2,7,-1
 231 686 l 2,8,9
 278 686 278 686 308 656 c 128,-1,10
 338 626 338 626 338 581 c 2,11,-1
 338 572 l 2,12,13
 338 566 338 566 337 563 c 2,14,-1
 323 461 l 1,15,16
 314 408 314 408 277 373 c 128,-1,17
 240 338 240 338 182 338 c 2,18,-1
 160 338 l 2,19,20
 113 338 113 338 83 368 c 128,-1,21
 53 398 53 398 53 443 c 2,0,-1
157 0 m 1,22,-1
 62 0 l 1,23,-1
 578 686 l 1,24,-1
 671 686 l 1,25,-1
 157 0 l 1,22,-1
167 576 m 0,26,27
 148 448 148 448 148 438.5 c 128,-1,28
 148 429 148 429 157.5 419.5 c 128,-1,29
 167 410 167 410 182 410 c 128,-1,30
 197 410 197 410 209 421 c 128,-1,31
 221 432 221 432 223 449 c 2,32,-1
 232 511 l 1,33,34
 233.5 529 233.5 529 237.25 554 c 128,-1,35
 241 579 241 579 241 587.5 c 128,-1,36
 241 596 241 596 232.5 605.5 c 128,-1,37
 224 615 224 615 209.5 615 c 128,-1,38
 195 615 195 615 182 604 c 128,-1,39
 169 593 169 593 167 576 c 0,26,27
396 104 m 2,40,-1
 396 113 l 2,41,42
 396 119 396 119 397 122 c 2,43,-1
 411 224 l 1,44,45
 417 276 417 276 456 311.5 c 128,-1,46
 495 347 495 347 552 347 c 2,47,-1
 574 347 l 2,48,49
 621 347 621 347 651 317 c 128,-1,50
 681 287 681 287 681 242 c 2,51,-1
 681 233 l 2,52,53
 681 227 681 227 680 224 c 2,54,-1
 666 122 l 1,55,56
 657 69 657 69 620 34 c 128,-1,57
 583 -1 583 -1 525 -1 c 2,58,-1
 503 -1 l 2,59,60
 456 -1 456 -1 426 29 c 128,-1,61
 396 59 396 59 396 104 c 2,40,-1
510 237 m 0,62,63
 491 109 491 109 491 99.5 c 128,-1,64
 491 90 491 90 500.5 80.5 c 128,-1,65
 510 71 510 71 525 71 c 128,-1,66
 540 71 540 71 552 82 c 128,-1,67
 564 93 564 93 566 110 c 2,68,-1
 575 172 l 1,69,70
 576.5 190 576.5 190 580.25 215 c 128,-1,71
 584 240 584 240 584 248.5 c 128,-1,72
 584 257 584 257 575.5 266.5 c 128,-1,73
 567 276 567 276 552.5 276 c 128,-1,74
 538 276 538 276 525 265 c 128,-1,75
 512 254 512 254 510 237 c 0,62,63
738 104 m 2,76,-1
 738 113 l 2,77,78
 738 119 738 119 739 122 c 2,79,-1
 753 224 l 1,80,81
 759 276 759 276 798 311.5 c 128,-1,82
 837 347 837 347 894 347 c 2,83,-1
 916 347 l 2,84,85
 963 347 963 347 993 317 c 128,-1,86
 1023 287 1023 287 1023 242 c 2,87,-1
 1023 233 l 2,88,89
 1023 227 1023 227 1022 224 c 2,90,-1
 1008 122 l 1,91,92
 999 69 999 69 962 34 c 128,-1,93
 925 -1 925 -1 867 -1 c 2,94,-1
 845 -1 l 2,95,96
 798 -1 798 -1 768 29 c 128,-1,97
 738 59 738 59 738 104 c 2,76,-1
852 237 m 0,98,99
 833 109 833 109 833 99.5 c 128,-1,100
 833 90 833 90 842.5 80.5 c 128,-1,101
 852 71 852 71 867 71 c 128,-1,102
 882 71 882 71 894 82 c 128,-1,103
 906 93 906 93 908 110 c 2,104,-1
 917 172 l 1,105,106
 918.5 190 918.5 190 922.25 215 c 128,-1,107
 926 240 926 240 926 248.5 c 128,-1,108
 926 257 926 257 917.5 266.5 c 128,-1,109
 909 276 909 276 894.5 276 c 128,-1,110
 880 276 880 276 867 265 c 128,-1,111
 854 254 854 254 852 237 c 0,98,99
EndSplineSet
EndChar

StartChar: guilsinglleft
Encoding: 8249 8249 227
Width: 261
Flags: HMW
HStem: 163 21G<132 132 132 206> 491 20G<181 255 255 255>
LayerCount: 2
Fore
SplineSet
132 163 m 1,0,-1
 37 337 l 1,1,-1
 181 511 l 1,2,-1
 255 511 l 1,3,-1
 146 337 l 1,4,-1
 206 163 l 1,5,-1
 132 163 l 1,0,-1
EndSplineSet
EndChar

StartChar: guilsinglright
Encoding: 8250 8250 228
Width: 262
Flags: HMW
HStem: 163 21G<19 93 19 19> 491 20G<68 142 142 142>
LayerCount: 2
Fore
SplineSet
93 163 m 1,0,-1
 19 163 l 1,1,-1
 129 337 l 1,2,-1
 68 511 l 1,3,-1
 142 511 l 1,4,-1
 238 337 l 1,5,-1
 93 163 l 1,0,-1
EndSplineSet
EndChar

StartChar: fraction
Encoding: 8260 8260 229
Width: 482
Flags: HMW
HStem: 0 21G<-51 38 -51 -51> 666 20G<465 551 551 551>
LayerCount: 2
Fore
SplineSet
38 0 m 1,0,-1
 -51 0 l 1,1,-1
 465 686 l 1,2,-1
 551 686 l 1,3,-1
 38 0 l 1,0,-1
EndSplineSet
EndChar

StartChar: Euro
Encoding: 8364 8364 230
Width: 597
Flags: HMW
HStem: -10 166<319.5 460> 225 92<32 109 19 110 320 320 320 453> 365 92<52 117 39 142 349 473> 532 160<464 505 418.5 507>
LayerCount: 2
Fore
SplineSet
109 225 m 1,0,-1
 19 225 l 1,1,-1
 32 317 l 1,2,-1
 110 317 l 1,3,-1
 117 365 l 1,4,-1
 39 365 l 1,5,-1
 52 457 l 1,6,-1
 142 457 l 1,7,8
 173 542 173 542 232.5 597 c 128,-1,9
 292 652 292 652 352.5 672 c 128,-1,10
 413 692 413 692 481 692 c 0,11,12
 549 692 549 692 607 674 c 1,13,-1
 585 514 l 1,14,15
 542 532 542 532 485 532 c 0,16,17
 398 532 398 532 349 457 c 1,18,-1
 486 457 l 1,19,-1
 473 365 l 1,20,-1
 315 365 l 1,21,22
 308 339 308 339 308 317 c 1,23,-1
 466 317 l 1,24,-1
 453 225 l 1,25,-1
 320 225 l 1,26,27
 350 156 350 156 444 156 c 0,28,29
 491 156 491 156 538 182 c 1,30,-1
 515 15 l 1,31,32
 440 -10 440 -10 385 -10 c 0,33,34
 330 -10 330 -10 288.5 1.5 c 128,-1,35
 247 13 247 13 208 38.5 c 128,-1,36
 169 64 169 64 142.5 112 c 128,-1,37
 116 160 116 160 109 225 c 1,0,-1
EndSplineSet
EndChar

StartChar: trademark
Encoding: 8482 8482 231
Width: 1007
Flags: HMW
HStem: 288 21G<160 282 160 160 431 431 431 543 614 614 614 754 825 825 825 947> 590 96<101 202 88 451 324 324 324 438>
LayerCount: 2
Fore
SplineSet
202 590 m 1,0,-1
 88 590 l 1,1,-1
 101 686 l 1,2,-1
 451 686 l 1,3,-1
 438 590 l 1,4,-1
 324 590 l 1,5,-1
 282 288 l 1,6,-1
 160 288 l 1,7,-1
 202 590 l 1,0,-1
543 288 m 1,8,-1
 431 288 l 1,9,-1
 486 686 l 1,10,-1
 686 686 l 1,11,-1
 710 454 l 1,12,-1
 714 454 l 1,13,-1
 802 686 l 1,14,-1
 1002 686 l 1,15,-1
 947 288 l 1,16,-1
 825 288 l 1,17,-1
 865 563 l 1,18,-1
 861 563 l 1,19,-1
 754 288 l 1,20,-1
 614 288 l 1,21,-1
 583 563 l 1,22,-1
 579 563 l 1,23,-1
 543 288 l 1,8,-1
EndSplineSet
EndChar

StartChar: uni2126
Encoding: 8486 8486 232
Width: 765
Flags: HMW
HStem: 0 21G<-4 300 -4 -4 382 382 382 687> 540 154<410 415 415 420>
VStem: 507 220<448 477.5>
LayerCount: 2
Fore
SplineSet
300 0 m 1,0,-1
 -4 0 l 1,1,-1
 18 162 l 1,2,-1
 29 162 l 1,3,-1
 138 142 l 1,4,5
 60 225 60 225 60 318 c 0,6,7
 60 328 60 328 62 350 c 2,8,-1
 68 394 l 2,9,10
 86 519 86 519 186 606.5 c 128,-1,11
 286 694 286 694 410 694 c 2,12,-1
 466 694 l 2,13,14
 579 694 579 694 653 620 c 128,-1,15
 727 546 727 546 727 436 c 0,16,17
 727 415 727 415 724 394 c 2,18,-1
 718 350 l 2,19,20
 703 241 703 241 583 142 c 1,21,-1
 698 162 l 1,22,-1
 709 162 l 1,23,-1
 687 0 l 1,24,-1
 382 0 l 1,25,-1
 394 85 l 1,26,27
 458 110 458 110 469 177 c 1,28,-1
 488 308 l 1,29,30
 491.428571429 340 491.428571429 340 499.214285714 394.5 c 128,-1,31
 507 449 507 449 507 453 c 0,32,33
 507 490 507 490 482.5 515 c 128,-1,34
 458 540 458 540 420 540 c 2,35,-1
 415 540 l 2,36,37
 373 540 373 540 340 510.5 c 128,-1,38
 307 481 307 481 301 440 c 2,39,-1
 264 177 l 2,40,41
 263 174 263 174 263 170 c 2,42,-1
 263 163 l 2,43,44
 263 106 263 106 312 85 c 1,45,-1
 300 0 l 1,0,-1
EndSplineSet
EndChar

StartChar: partialdiff
Encoding: 8706 8706 233
Width: 621
Flags: HMW
HStem: -10 140<176 278 242 278> 321 116<277.5 289.5 205 298 205 304> 546 150<213 334 192 369>
LayerCount: 2
Fore
SplineSet
15 194 m 0,0,1
 15 308 15 308 90 372.5 c 128,-1,2
 165 437 165 437 271 437 c 0,3,4
 302 437 302 437 335 424 c 128,-1,5
 368 411 368 411 388 385 c 1,6,-1
 401 481 l 1,7,8
 401 508 401 508 381.5 527 c 128,-1,9
 362 546 362 546 334 546 c 2,10,-1
 192 546 l 1,11,-1
 213 696 l 1,12,-1
 369 696 l 2,13,14
 468 696 468 696 532 635.5 c 128,-1,15
 596 575 596 575 596 482 c 2,16,-1
 596 464 l 2,17,18
 596 458 596 458 594 446 c 2,19,-1
 565 240 l 2,20,21
 549 129 549 129 469.5 59.5 c 128,-1,22
 390 -10 390 -10 270 -10 c 2,23,-1
 242 -10 l 2,24,25
 142 -10 142 -10 78.5 46 c 128,-1,26
 15 102 15 102 15 194 c 0,0,1
206 194 m 0,27,28
 206 167 206 167 224.5 148.5 c 128,-1,29
 243 130 243 130 272 130 c 2,30,-1
 278 130 l 2,31,32
 308 130 308 130 333 152 c 128,-1,33
 358 174 358 174 363 205 c 2,34,-1
 370 256 l 1,35,36
 370 284 370 284 351 302.5 c 128,-1,37
 332 321 332 321 304 321 c 2,38,-1
 298 321 l 2,39,40
 268 321 268 321 243 299 c 128,-1,41
 218 277 218 277 213 246 c 2,42,-1
 207 205 l 2,43,44
 206 202 206 202 206 194 c 0,27,28
EndSplineSet
EndChar

StartChar: uni2206
Encoding: 8710 8710 234
Width: 635
Flags: HMW
HStem: 0 109<146 442 146 570> 666 20G<305 444 444 444>
LayerCount: 2
Fore
SplineSet
570 0 m 1,0,-1
 -14 0 l 1,1,-1
 -1 93 l 1,2,-1
 305 686 l 1,3,-1
 444 686 l 1,4,-1
 583 93 l 1,5,-1
 570 0 l 1,0,-1
353 525 m 1,6,-1
 146 109 l 1,7,-1
 442 109 l 1,8,-1
 353 525 l 1,6,-1
EndSplineSet
EndChar

StartChar: product
Encoding: 8719 8719 235
Width: 898
Flags: HMW
HStem: -101 21G<87 301 87 87 484 699 484 484> 551 180<87 179 62 933 393 393 393 576 791 791 791 908>
LayerCount: 2
Fore
SplineSet
179 551 m 1,0,-1
 62 551 l 1,1,-1
 87 731 l 1,2,-1
 933 731 l 1,3,-1
 908 551 l 1,4,-1
 791 551 l 1,5,-1
 699 -101 l 1,6,-1
 484 -101 l 1,7,-1
 576 551 l 1,8,-1
 393 551 l 1,9,-1
 301 -101 l 1,10,-1
 87 -101 l 1,11,-1
 179 551 l 1,0,-1
EndSplineSet
EndChar

StartChar: summation
Encoding: 8721 8721 236
Width: 711
Flags: HMW
HStem: -101 181<284 627> 556 175<376 693 376 376>
LayerCount: 2
Fore
SplineSet
627 -101 m 1,0,-1
 -27 -101 l 1,1,-1
 -10 17 l 1,2,-1
 287 312 l 1,3,-1
 83 593 l 1,4,-1
 102 731 l 1,5,-1
 718 731 l 1,6,-1
 693 556 l 1,7,-1
 376 556 l 1,8,-1
 376 552 l 1,9,-1
 538 337 l 1,10,-1
 285 85 l 1,11,-1
 284 80 l 1,12,-1
 652 80 l 1,13,-1
 627 -101 l 1,0,-1
EndSplineSet
EndChar

StartChar: minus
Encoding: 8722 8722 237
Width: 615
Flags: HMW
HStem: 213 150<61 552 40 573>
LayerCount: 2
Fore
SplineSet
552 213 m 1,0,-1
 40 213 l 1,1,-1
 61 363 l 1,2,-1
 573 363 l 1,3,-1
 552 213 l 1,0,-1
EndSplineSet
EndChar

StartChar: radical
Encoding: 8730 8730 238
Width: 736
Flags: HMW
HStem: -153 21G<232 392 232 232> 809 20G<675 824 824 824>
LayerCount: 2
Fore
SplineSet
13 236 m 1,0,-1
 -8 328 l 1,1,-1
 245 427 l 1,2,-1
 322 120 l 2,3,4
 326 103 326 103 332.5 74 c 128,-1,5
 339 45 339 45 342 32 c 1,6,7
 347 44 347 44 358.5 75 c 128,-1,8
 370 106 370 106 378 124 c 2,9,-1
 675 829 l 1,10,-1
 824 829 l 1,11,-1
 392 -153 l 1,12,-1
 232 -153 l 1,13,-1
 103 271 l 1,14,-1
 13 236 l 1,0,-1
EndSplineSet
EndChar

StartChar: infinity
Encoding: 8734 8734 239
Width: 822
Flags: HMW
HStem: 91 99<191.5 231 565 618> 378 98<216.5 269.5 581 630.5>
VStem: 35 103<247.5 304.5 247.5 316.5> 680 105<303.5 306 306 322 303.5 322.5>
LayerCount: 2
Fore
SplineSet
35 250 m 0,0,1
 35 347 35 347 100.5 411.5 c 128,-1,2
 166 476 166 476 255 476 c 0,3,4
 314 476 314 476 355 450 c 128,-1,5
 396 424 396 424 429 368 c 1,6,7
 456.666666667 395.666666667 456.666666667 395.666666667 467.333333333 404.333333333 c 128,-1,8
 478 413 478 413 493.5 426 c 128,-1,9
 509 439 509 439 522 446 c 128,-1,10
 535 453 535 453 552.5 461 c 0,11,12
 585.3125 476 585.3125 476 627 476 c 0,13,14
 695 476 695 476 740 434.5 c 128,-1,15
 785 393 785 393 785 322 c 2,16,-1
 785 306 l 2,17,18
 785 300 785 300 783 290 c 0,19,20
 772 199 772 199 709 145 c 128,-1,21
 646 91 646 91 572 91 c 0,22,23
 458 91 458 91 396 204 c 1,24,25
 344 148 344 148 296 119.5 c 128,-1,26
 248 91 248 91 185.5 91 c 128,-1,27
 123 91 123 91 79 134.5 c 128,-1,28
 35 178 35 178 35 250 c 0,0,1
169.5 348.5 m 128,-1,30
 138 319 138 319 138 277.5 c 128,-1,31
 138 236 138 236 159.5 213 c 128,-1,32
 181 190 181 190 214 190 c 0,33,34
 274 190 274 190 354 277 c 1,35,36
 337 311 337 311 324 330.5 c 0,37,38
 292.333333333 378 292.333333333 378 239 378 c 0,39,29
 201 378 201 378 169.5 348.5 c 128,-1,30
468 285 m 1,40,41
 500 228 500 228 526 209 c 128,-1,42
 552 190 552 190 590.5 190 c 128,-1,43
 629 190 629 190 654.5 227 c 128,-1,44
 680 264 680 264 680 299.5 c 128,-1,45
 680 335 680 335 661 356.5 c 128,-1,46
 642 378 642 378 612.5 378 c 128,-1,47
 583 378 583 378 555.5 362 c 128,-1,48
 528 346 528 346 514 332 c 128,-1,49
 500 318 500 318 474 291 c 1,50,51
 469.5 288 469.5 288 468 285 c 1,40,41
EndSplineSet
EndChar

StartChar: integral
Encoding: 8747 8747 240
Width: 318
Flags: HMW
HStem: -250 21G<-57 23 -57 -57> 731 20G<283 364 364 364>
LayerCount: 2
Fore
SplineSet
23 -250 m 2,0,-1
 -57 -250 l 1,1,-1
 -47 -182 l 1,2,3
 37 -182 37 -182 42 -141 c 2,4,-1
 76 190 l 1,5,6
 120 596 120 596 127 644.5 c 0,7,8
 134 693 134 693 180 722 c 128,-1,9
 226 751 226 751 283 751 c 2,10,-1
 364 751 l 1,11,-1
 354 683 l 1,12,13
 269 683 269 683 264 642 c 2,14,-1
 230 311 l 1,15,16
 185 -99 185 -99 178.5 -145.5 c 0,17,18
 172 -192 172 -192 126 -221 c 128,-1,19
 80 -250 80 -250 23 -250 c 2,0,-1
EndSplineSet
EndChar

StartChar: approxequal
Encoding: 8776 8776 241
Width: 615
Flags: HMW
HStem: 45 21G<-9 -9> 57 126<367 416.5> 123 60 123 126<158 209.5> 278 126<397.5 448.5> 344 60 344 126<190 240> 462 20G<616 616>
LayerCount: 2
Fore
SplineSet
-9 45 m 1,0,-1
 8 171 l 1,1,2
 30.5 192 30.5 192 59 210 c 0,3,4
 125 249 125 249 175 249 c 0,5,6
 225 249 225 249 296 216 c 128,-1,7
 367 183 367 183 419.5 183 c 0,8,9
 472 183 472 183 534 222 c 1,10,11
 562.5 238.5 562.5 238.5 585 261 c 1,12,-1
 567 135 l 1,13,14
 544.5 112.5 544.5 112.5 516 96 c 1,15,16
 454 57 454 57 402.5 57 c 0,17,18
 351 57 351 57 280.5 90 c 128,-1,19
 210 123 210 123 159 123 c 0,20,21
 108 123 108 123 42 84 c 0,22,23
 13.5 66 13.5 66 -9 45 c 1,0,-1
22 266 m 1,24,-1
 40 392 l 1,25,26
 62.5 413 62.5 413 91 431 c 0,27,28
 157 470 157 470 206.5 470 c 0,29,30
 256 470 256 470 326.5 437 c 128,-1,31
 397 404 397 404 450 404 c 0,32,33
 503 404 503 404 565 443 c 1,34,35
 593.5 459.5 593.5 459.5 616 482 c 1,36,-1
 599 356 l 1,37,38
 576.5 333.5 576.5 333.5 548 317 c 1,39,40
 486 278 486 278 434 278 c 0,41,42
 382 278 382 278 311 311 c 128,-1,43
 240 344 240 344 189.5 344 c 0,44,45
 139 344 139 344 73 305 c 0,46,47
 44.5 287 44.5 287 22 266 c 1,24,-1
EndSplineSet
EndChar

StartChar: notequal
Encoding: 8800 8800 242
Width: 615
Flags: HMW
HStem: 0 209<40 150 39 211> 81 128<40 105 22 211 40 216 320 534> 301 128<71 287 53 392 71 396 500 565> 301 210<53 567 396 567 459 565>
LayerCount: 2
Fore
SplineSet
105 81 m 1,0,-1
 22 81 l 1,1,-1
 40 209 l 1,2,-1
 211 209 l 1,3,-1
 287 301 l 1,4,-1
 53 301 l 1,5,-1
 71 429 l 1,6,-1
 392 429 l 1,7,-1
 459 511 l 1,8,-1
 567 511 l 1,9,-1
 500 429 l 1,10,-1
 583 429 l 1,11,-1
 565 301 l 1,12,-1
 396 301 l 1,13,-1
 320 209 l 1,14,-1
 552 209 l 1,15,-1
 534 81 l 1,16,-1
 216 81 l 1,17,-1
 150 0 l 1,18,-1
 39 0 l 1,19,-1
 105 81 l 1,0,-1
EndSplineSet
EndChar

StartChar: lessequal
Encoding: 8804 8804 243
Width: 615
Flags: HMW
HStem: 0 128<28 521 10 539> 500 20G<594 594>
LayerCount: 2
Fore
SplineSet
521 0 m 1,0,-1
 10 0 l 1,1,-1
 28 128 l 1,2,-1
 539 128 l 1,3,-1
 521 0 l 1,0,-1
542 148 m 1,4,-1
 49 264 l 1,5,-1
 69 403 l 1,6,-1
 594 520 l 1,7,-1
 575 381 l 1,8,-1
 220 333 l 1,9,-1
 561 286 l 1,10,-1
 542 148 l 1,4,-1
EndSplineSet
EndChar

StartChar: greaterequal
Encoding: 8805 8805 244
Width: 615
Flags: HMW
HStem: 0 128<30 523 12 541> 500 20G<85 85>
LayerCount: 2
Fore
SplineSet
523 0 m 1,0,-1
 12 0 l 1,1,-1
 30 128 l 1,2,-1
 541 128 l 1,3,-1
 523 0 l 1,0,-1
558 264 m 1,4,-1
 33 148 l 1,5,-1
 52 286 l 1,6,-1
 407 333 l 1,7,-1
 66 381 l 1,8,-1
 85 520 l 1,9,-1
 578 403 l 1,10,-1
 558 264 l 1,4,-1
EndSplineSet
EndChar

StartChar: lozenge
Encoding: 9674 9674 245
Width: 535
Flags: HMW
HStem: 0 21G<156 156 156 295> 666 20G<253 392 392 392>
LayerCount: 2
Fore
SplineSet
156 0 m 1,0,-1
 33 343 l 1,1,-1
 253 686 l 1,2,-1
 392 686 l 1,3,-1
 516 343 l 1,4,-1
 295 0 l 1,5,-1
 156 0 l 1,0,-1
307 565 m 1,6,-1
 169 343 l 1,7,-1
 244 121 l 1,8,-1
 382 343 l 1,9,-1
 307 565 l 1,6,-1
EndSplineSet
EndChar

StartChar: uniFB01
Encoding: 64257 64257 247
Width: 702
Flags: HMW
HStem: -187 122<-26.5 90.5> 0 21G<416 612 416 416> 369 142<56 100 36 120 318 418> 577 151<281.5 496 281.5 693> 606 122<281.5 397.5>
LayerCount: 2
Fore
SplineSet
-94 -165 m 1,0,-1
 -78 -53 l 1,1,2
 -51 -65 -51 -65 -18 -65 c 0,3,4
 37 -65 37 -65 49 4 c 1,5,-1
 100 369 l 1,6,-1
 36 369 l 1,7,-1
 56 511 l 1,8,-1
 120 511 l 1,9,-1
 129 577 l 1,10,11
 151 728 151 728 334 728 c 0,12,13
 421 728 421 728 464 706 c 1,14,-1
 449 596 l 1,15,16
 415 606 415 606 395 606 c 0,17,18
 375 606 375 606 365 604 c 128,-1,19
 355 602 355 602 348 595.5 c 128,-1,20
 341 589 341 589 336.5 584.5 c 128,-1,21
 332 580 332 580 329 568 c 128,-1,22
 326 556 326 556 324.5 551.5 c 128,-1,23
 323 547 323 547 321 531 c 128,-1,24
 319 515 319 515 318 511 c 1,25,-1
 438 511 l 1,26,-1
 418 369 l 1,27,-1
 298 369 l 1,28,-1
 243 -26 l 2,29,30
 231 -106 231 -106 176 -146.5 c 128,-1,31
 121 -187 121 -187 35.5 -187 c 0,32,33
 -50 -187 -50 -187 -94 -165 c 1,0,-1
612 0 m 1,34,-1
 416 0 l 1,35,-1
 487 511 l 1,36,-1
 684 511 l 1,37,-1
 612 0 l 1,34,-1
693 577 m 1,38,-1
 496 577 l 1,39,-1
 516 720 l 1,40,-1
 713 720 l 1,41,-1
 693 577 l 1,38,-1
EndSplineSet
EndChar

